<?xml version="1.0" encoding="UTF-8"?><svg xmlns="http://www.w3.org/2000/svg" xmlns:xlink="http://www.w3.org/1999/xlink" contentScriptType="text/ecmascript" width="750pt" zoomAndPan="magnify" contentStyleType="text/css" viewBox="0 0 750 525.000007" height="525.000007pt" preserveAspectRatio="xMidYMid meet" version="1.2"><defs><g/></defs><g xml:id="surface1" id="surface1"><g style="fill:rgb(94.509888%,59.999084%,32.548523%);fill-opacity:0.302;"><g transform="translate(18.583444, 215.832438)"><path style="stroke:none;" d="M 49.125 1.0625 C 43.90625 1.0625 40.164062 -0.0976562 37.90625 -2.421875 C 35.644531 -4.753906 34.515625 -9.171875 34.515625 -15.671875 C 34.515625 -20.046875 34.972656 -25.65625 35.890625 -32.5 C 36.804688 -39.351562 38.328125 -48.78125 40.453125 -60.78125 C 44.117188 -82.945312 47.007812 -102.144531 49.125 -118.375 C 50.394531 -128.539062 51.03125 -137.007812 51.03125 -143.78125 C 51.03125 -150.132812 48.703125 -153.3125 44.046875 -153.3125 C 40.378906 -153.3125 35.96875 -151.441406 30.8125 -147.703125 C 25.65625 -143.960938 19.972656 -138 13.765625 -129.8125 C 11.785156 -127.125 9.597656 -125.78125 7.203125 -125.78125 C 5.222656 -125.78125 3.488281 -126.734375 2 -128.640625 C 0.519531 -130.546875 -0.21875 -132.703125 -0.21875 -135.109375 C -0.21875 -137.367188 0.238281 -139.660156 1.15625 -141.984375 C 2.082031 -144.316406 3.601562 -146.96875 5.71875 -149.9375 C 12.488281 -159.394531 20.039062 -166.695312 28.375 -171.84375 C 36.707031 -177 45.035156 -179.578125 53.359375 -179.578125 C 61.128906 -179.578125 67.09375 -177.101562 71.25 -172.15625 C 75.414062 -167.21875 77.5 -160.019531 77.5 -150.5625 C 77.5 -146.75 77.144531 -142.265625 76.4375 -137.109375 C 75.738281 -131.960938 75.101562 -127.765625 74.53125 -124.515625 C 73.96875 -121.265625 73.546875 -119.003906 73.265625 -117.734375 C 81.316406 -140.753906 90.351562 -156.816406 100.375 -165.921875 C 110.394531 -175.023438 121.40625 -179.578125 133.40625 -179.578125 C 142.582031 -179.578125 149.816406 -176.328125 155.109375 -169.828125 C 160.410156 -163.335938 163.0625 -154.164062 163.0625 -142.3125 C 163.0625 -137.644531 162.425781 -131.851562 161.15625 -124.9375 C 168.207031 -144.425781 176.460938 -158.40625 185.921875 -166.875 C 195.390625 -175.34375 206.265625 -179.578125 218.546875 -179.578125 C 228.421875 -179.578125 236.003906 -176.398438 241.296875 -170.046875 C 246.597656 -163.691406 249.25 -154.796875 249.25 -143.359375 C 249.25 -137.148438 248.332031 -129.597656 246.5 -120.703125 L 233.578125 -60.140625 C 232.160156 -53.078125 231.453125 -47.003906 231.453125 -41.921875 C 231.453125 -35.992188 232.828125 -31.546875 235.578125 -28.578125 C 238.335938 -25.617188 242.1875 -24.140625 247.125 -24.140625 C 251.789062 -24.140625 256.34375 -25.691406 260.78125 -28.796875 C 265.226562 -31.898438 270.488281 -37.054688 276.5625 -44.265625 C 278.257812 -46.234375 280.164062 -47.21875 282.28125 -47.21875 C 284.113281 -47.21875 285.5625 -46.367188 286.625 -44.671875 C 287.6875 -42.984375 288.21875 -40.65625 288.21875 -37.6875 C 288.21875 -32.1875 286.875 -27.8125 284.1875 -24.5625 C 276.84375 -15.664062 269.570312 -9.171875 262.375 -5.078125 C 255.175781 -0.984375 247.625 1.0625 239.71875 1.0625 C 227.71875 1.0625 218.328125 -2.5 211.546875 -9.625 C 204.773438 -16.757812 201.390625 -26.328125 201.390625 -38.328125 C 201.390625 -46.660156 203.082031 -58.734375 206.46875 -74.546875 L 214.9375 -113.296875 C 215.21875 -114.566406 215.710938 -116.820312 216.421875 -120.0625 C 217.128906 -123.3125 217.691406 -126.382812 218.109375 -129.28125 C 218.535156 -132.175781 218.75 -135.035156 218.75 -137.859375 C 218.75 -142.796875 217.796875 -146.5 215.890625 -148.96875 C 213.984375 -151.445312 211.265625 -152.6875 207.734375 -152.6875 C 201.097656 -152.6875 194.144531 -148.414062 186.875 -139.875 C 179.613281 -131.332031 172.695312 -117.175781 166.125 -97.40625 C 159.5625 -77.644531 154.234375 -51.953125 150.140625 -20.328125 C 149.148438 -11.859375 147.421875 -6.175781 144.953125 -3.28125 C 142.484375 -0.382812 138.492188 1.0625 132.984375 1.0625 C 128.179688 1.0625 124.6875 -0.0664062 122.5 -2.328125 C 120.3125 -4.585938 119.21875 -8.820312 119.21875 -15.03125 C 119.21875 -20.820312 119.992188 -28.410156 121.546875 -37.796875 C 123.109375 -47.179688 125.085938 -58.226562 127.484375 -70.9375 C 133.972656 -105.101562 137.21875 -127.128906 137.21875 -137.015625 C 137.21875 -142.378906 136.191406 -146.332031 134.140625 -148.875 C 132.097656 -151.414062 129.03125 -152.6875 124.9375 -152.6875 C 118.019531 -152.6875 110.890625 -148.765625 103.546875 -140.921875 C 96.210938 -133.085938 89.050781 -119.179688 82.0625 -99.203125 C 75.070312 -79.234375 69.25 -52.238281 64.59375 -18.21875 C 63.601562 -11.007812 62.15625 -5.992188 60.25 -3.171875 C 58.34375 -0.347656 54.632812 1.0625 49.125 1.0625 Z M 49.125 1.0625 "/></g></g><g style="fill:rgb(94.509888%,59.999084%,32.548523%);fill-opacity:0.302;"><g transform="translate(279.476445, 215.832438)"><path style="stroke:none;" d="M 36.21875 1.0625 C 27.457031 1.0625 20.460938 -2.113281 15.234375 -8.46875 C 10.015625 -14.820312 7.40625 -23.148438 7.40625 -33.453125 C 7.40625 -44.753906 10.015625 -55.453125 15.234375 -65.546875 C 20.460938 -75.640625 27.414062 -83.753906 36.09375 -89.890625 C 44.78125 -96.035156 53.992188 -99.109375 63.734375 -99.109375 C 66.847656 -99.109375 68.929688 -98.503906 69.984375 -97.296875 C 71.046875 -96.097656 71.929688 -93.945312 72.640625 -90.84375 C 75.597656 -91.40625 78.703125 -91.6875 81.953125 -91.6875 C 88.867188 -91.6875 92.328125 -89.21875 92.328125 -84.28125 C 92.328125 -81.3125 91.269531 -74.253906 89.15625 -63.109375 C 85.90625 -46.867188 84.28125 -35.570312 84.28125 -29.21875 C 84.28125 -27.101562 84.804688 -25.410156 85.859375 -24.140625 C 86.921875 -22.867188 88.300781 -22.234375 90 -22.234375 C 92.6875 -22.234375 95.929688 -23.960938 99.734375 -27.421875 C 103.546875 -30.878906 108.703125 -36.492188 115.203125 -44.265625 C 116.890625 -46.234375 118.796875 -47.21875 120.921875 -47.21875 C 122.753906 -47.21875 124.195312 -46.367188 125.25 -44.671875 C 126.3125 -42.984375 126.84375 -40.65625 126.84375 -37.6875 C 126.84375 -32.039062 125.503906 -27.664062 122.828125 -24.5625 C 117.035156 -17.363281 110.890625 -11.289062 104.390625 -6.34375 C 97.898438 -1.40625 91.617188 1.0625 85.546875 1.0625 C 80.890625 1.0625 76.617188 -0.523438 72.734375 -3.703125 C 68.859375 -6.878906 65.929688 -11.222656 63.953125 -16.734375 C 56.609375 -4.867188 47.363281 1.0625 36.21875 1.0625 Z M 43.828125 -20.328125 C 46.941406 -20.328125 49.910156 -22.160156 52.734375 -25.828125 C 55.554688 -29.503906 57.601562 -34.378906 58.875 -40.453125 L 66.703125 -79.40625 C 60.773438 -79.269531 55.304688 -77.046875 50.296875 -72.734375 C 45.285156 -68.429688 41.296875 -62.75 38.328125 -55.6875 C 35.359375 -48.632812 33.875 -41.15625 33.875 -33.25 C 33.875 -28.875 34.753906 -25.625 36.515625 -23.5 C 38.285156 -21.382812 40.722656 -20.328125 43.828125 -20.328125 Z M 43.828125 -20.328125 "/></g></g><g style="fill:rgb(94.509888%,59.999084%,32.548523%);fill-opacity:0.302;"><g transform="translate(379.005437, 215.832438)"><path style="stroke:none;" d="M 104.609375 -47.21875 C 106.441406 -47.21875 107.890625 -46.367188 108.953125 -44.671875 C 110.015625 -42.984375 110.546875 -40.65625 110.546875 -37.6875 C 110.546875 -32.039062 109.203125 -27.664062 106.515625 -24.5625 C 100.441406 -17.082031 93.804688 -10.941406 86.609375 -6.140625 C 79.410156 -1.335938 71.148438 1.0625 61.828125 1.0625 C 33.035156 1.0625 18.640625 -19.195312 18.640625 -59.71875 C 18.640625 -65.925781 18.847656 -72.207031 19.265625 -78.5625 L 11.015625 -78.5625 C 6.773438 -78.5625 3.914062 -79.335938 2.4375 -80.890625 C 0.957031 -82.441406 0.21875 -84.914062 0.21875 -88.3125 C 0.21875 -96.21875 3.390625 -100.171875 9.734375 -100.171875 L 21.8125 -100.171875 C 24.207031 -115.691406 27.875 -129.875 32.8125 -142.71875 C 37.757812 -155.570312 43.726562 -165.8125 50.71875 -173.4375 C 57.707031 -181.0625 65.222656 -184.875 73.265625 -184.875 C 79.203125 -184.875 83.863281 -182.257812 87.25 -177.03125 C 90.632812 -171.8125 92.328125 -165.25 92.328125 -157.34375 C 92.328125 -135.457031 83.148438 -116.398438 64.796875 -100.171875 L 88.515625 -100.171875 C 90.773438 -100.171875 92.398438 -99.675781 93.390625 -98.6875 C 94.378906 -97.695312 94.875 -95.859375 94.875 -93.171875 C 94.875 -83.429688 86.894531 -78.5625 70.9375 -78.5625 L 45.109375 -78.5625 C 44.828125 -71.507812 44.6875 -66.003906 44.6875 -62.046875 C 44.6875 -47.367188 46.414062 -37.0625 49.875 -31.125 C 53.332031 -25.195312 58.800781 -22.234375 66.28125 -22.234375 C 72.351562 -22.234375 77.71875 -24.066406 82.375 -27.734375 C 87.03125 -31.410156 92.535156 -36.921875 98.890625 -44.265625 C 100.585938 -46.234375 102.492188 -47.21875 104.609375 -47.21875 Z M 67.546875 -164.546875 C 65.429688 -164.546875 63.066406 -161.894531 60.453125 -156.59375 C 57.847656 -151.300781 55.378906 -143.960938 53.046875 -134.578125 C 50.710938 -125.191406 48.769531 -114.78125 47.21875 -103.34375 C 55.550781 -110.539062 61.800781 -118.617188 65.96875 -127.578125 C 70.132812 -136.546875 72.21875 -144.703125 72.21875 -152.046875 C 72.21875 -160.378906 70.660156 -164.546875 67.546875 -164.546875 Z M 67.546875 -164.546875 "/></g></g><g style="fill:rgb(94.509888%,59.999084%,32.548523%);fill-opacity:0.302;"><g transform="translate(462.228613, 215.832438)"><path style="stroke:none;" d="M 36.21875 1.0625 C 27.457031 1.0625 20.460938 -2.113281 15.234375 -8.46875 C 10.015625 -14.820312 7.40625 -23.148438 7.40625 -33.453125 C 7.40625 -44.753906 10.015625 -55.453125 15.234375 -65.546875 C 20.460938 -75.640625 27.414062 -83.753906 36.09375 -89.890625 C 44.78125 -96.035156 53.992188 -99.109375 63.734375 -99.109375 C 66.847656 -99.109375 68.929688 -98.503906 69.984375 -97.296875 C 71.046875 -96.097656 71.929688 -93.945312 72.640625 -90.84375 C 75.597656 -91.40625 78.703125 -91.6875 81.953125 -91.6875 C 88.867188 -91.6875 92.328125 -89.21875 92.328125 -84.28125 C 92.328125 -81.3125 91.269531 -74.253906 89.15625 -63.109375 C 85.90625 -46.867188 84.28125 -35.570312 84.28125 -29.21875 C 84.28125 -27.101562 84.804688 -25.410156 85.859375 -24.140625 C 86.921875 -22.867188 88.300781 -22.234375 90 -22.234375 C 92.6875 -22.234375 95.929688 -23.960938 99.734375 -27.421875 C 103.546875 -30.878906 108.703125 -36.492188 115.203125 -44.265625 C 116.890625 -46.234375 118.796875 -47.21875 120.921875 -47.21875 C 122.753906 -47.21875 124.195312 -46.367188 125.25 -44.671875 C 126.3125 -42.984375 126.84375 -40.65625 126.84375 -37.6875 C 126.84375 -32.039062 125.503906 -27.664062 122.828125 -24.5625 C 117.035156 -17.363281 110.890625 -11.289062 104.390625 -6.34375 C 97.898438 -1.40625 91.617188 1.0625 85.546875 1.0625 C 80.890625 1.0625 76.617188 -0.523438 72.734375 -3.703125 C 68.859375 -6.878906 65.929688 -11.222656 63.953125 -16.734375 C 56.609375 -4.867188 47.363281 1.0625 36.21875 1.0625 Z M 43.828125 -20.328125 C 46.941406 -20.328125 49.910156 -22.160156 52.734375 -25.828125 C 55.554688 -29.503906 57.601562 -34.378906 58.875 -40.453125 L 66.703125 -79.40625 C 60.773438 -79.269531 55.304688 -77.046875 50.296875 -72.734375 C 45.285156 -68.429688 41.296875 -62.75 38.328125 -55.6875 C 35.359375 -48.632812 33.875 -41.15625 33.875 -33.25 C 33.875 -28.875 34.753906 -25.625 36.515625 -23.5 C 38.285156 -21.382812 40.722656 -20.328125 43.828125 -20.328125 Z M 43.828125 -20.328125 "/></g></g><g style="fill:rgb(94.509888%,59.999084%,32.548523%);fill-opacity:0.302;"><g transform="translate(561.757629, 215.832438)"><path style="stroke:none;" d="M 49.546875 5.71875 C 42.210938 5.71875 36.601562 4.019531 32.71875 0.625 C 28.832031 -2.757812 26.890625 -6.566406 26.890625 -10.796875 C 26.890625 -14.472656 28.226562 -17.648438 30.90625 -20.328125 C 33.59375 -23.015625 37.550781 -24.359375 42.78125 -24.359375 C 44.613281 -24.359375 46.765625 -24.179688 49.234375 -23.828125 C 51.703125 -23.472656 53.570312 -23.222656 54.84375 -23.078125 C 54.707031 -26.753906 53.894531 -30.210938 52.40625 -33.453125 C 50.925781 -36.703125 49.054688 -39.84375 46.796875 -42.875 C 44.535156 -45.914062 42.421875 -48.566406 40.453125 -50.828125 C 36.066406 -42.492188 31.722656 -35.570312 27.421875 -30.0625 C 23.117188 -24.5625 18.425781 -19.34375 13.34375 -14.40625 C 10.800781 -11.863281 8.117188 -10.59375 5.296875 -10.59375 C 3.035156 -10.59375 1.203125 -11.398438 -0.203125 -13.015625 C -1.617188 -14.640625 -2.328125 -16.65625 -2.328125 -19.0625 C -2.328125 -21.882812 -1.335938 -24.492188 0.640625 -26.890625 L 3.390625 -30.28125 C 11.148438 -39.882812 17.007812 -47.789062 20.96875 -54 C 23.363281 -58.09375 26.1875 -63.5625 29.4375 -70.40625 C 32.6875 -77.257812 35.863281 -84.351562 38.96875 -91.6875 C 41.644531 -97.90625 47.21875 -101.015625 55.6875 -101.015625 C 59.644531 -101.015625 62.398438 -100.660156 63.953125 -99.953125 C 65.503906 -99.242188 66.28125 -98.113281 66.28125 -96.5625 C 66.28125 -95.71875 66 -94.375 65.4375 -92.53125 C 64.875 -90.695312 64.097656 -88.863281 63.109375 -87.03125 C 60.566406 -81.945312 59.296875 -77.644531 59.296875 -74.125 C 59.296875 -72 60.035156 -69.664062 61.515625 -67.125 C 62.992188 -64.582031 65.289062 -61.40625 68.40625 -57.59375 C 72.914062 -51.664062 76.335938 -46.617188 78.671875 -42.453125 C 81.003906 -38.296875 82.171875 -33.742188 82.171875 -28.796875 C 82.171875 -27.390625 82.023438 -25.414062 81.734375 -22.875 C 88.660156 -25.550781 96.78125 -32.679688 106.09375 -44.265625 C 107.789062 -46.234375 109.695312 -47.21875 111.8125 -47.21875 C 113.644531 -47.21875 115.085938 -46.367188 116.140625 -44.671875 C 117.203125 -42.984375 117.734375 -40.65625 117.734375 -37.6875 C 117.734375 -32.320312 116.394531 -27.945312 113.71875 -24.5625 C 106.65625 -15.8125 99.910156 -9.847656 93.484375 -6.671875 C 87.066406 -3.492188 79.128906 -1.765625 69.671875 -1.484375 C 64.023438 3.316406 57.316406 5.71875 49.546875 5.71875 Z M 49.546875 5.71875 "/></g></g><g style="fill:rgb(94.509888%,59.999084%,32.548523%);fill-opacity:0.502;"><g transform="translate(12.968035, 210.21703)"><path style="stroke:none;" d="M 49.125 1.0625 C 43.90625 1.0625 40.164062 -0.0976562 37.90625 -2.421875 C 35.644531 -4.753906 34.515625 -9.171875 34.515625 -15.671875 C 34.515625 -20.046875 34.972656 -25.65625 35.890625 -32.5 C 36.804688 -39.351562 38.328125 -48.78125 40.453125 -60.78125 C 44.117188 -82.945312 47.007812 -102.144531 49.125 -118.375 C 50.394531 -128.539062 51.03125 -137.007812 51.03125 -143.78125 C 51.03125 -150.132812 48.703125 -153.3125 44.046875 -153.3125 C 40.378906 -153.3125 35.96875 -151.441406 30.8125 -147.703125 C 25.65625 -143.960938 19.972656 -138 13.765625 -129.8125 C 11.785156 -127.125 9.597656 -125.78125 7.203125 -125.78125 C 5.222656 -125.78125 3.488281 -126.734375 2 -128.640625 C 0.519531 -130.546875 -0.21875 -132.703125 -0.21875 -135.109375 C -0.21875 -137.367188 0.238281 -139.660156 1.15625 -141.984375 C 2.082031 -144.316406 3.601562 -146.96875 5.71875 -149.9375 C 12.488281 -159.394531 20.039062 -166.695312 28.375 -171.84375 C 36.707031 -177 45.035156 -179.578125 53.359375 -179.578125 C 61.128906 -179.578125 67.09375 -177.101562 71.25 -172.15625 C 75.414062 -167.21875 77.5 -160.019531 77.5 -150.5625 C 77.5 -146.75 77.144531 -142.265625 76.4375 -137.109375 C 75.738281 -131.960938 75.101562 -127.765625 74.53125 -124.515625 C 73.96875 -121.265625 73.546875 -119.003906 73.265625 -117.734375 C 81.316406 -140.753906 90.351562 -156.816406 100.375 -165.921875 C 110.394531 -175.023438 121.40625 -179.578125 133.40625 -179.578125 C 142.582031 -179.578125 149.816406 -176.328125 155.109375 -169.828125 C 160.410156 -163.335938 163.0625 -154.164062 163.0625 -142.3125 C 163.0625 -137.644531 162.425781 -131.851562 161.15625 -124.9375 C 168.207031 -144.425781 176.460938 -158.40625 185.921875 -166.875 C 195.390625 -175.34375 206.265625 -179.578125 218.546875 -179.578125 C 228.421875 -179.578125 236.003906 -176.398438 241.296875 -170.046875 C 246.597656 -163.691406 249.25 -154.796875 249.25 -143.359375 C 249.25 -137.148438 248.332031 -129.597656 246.5 -120.703125 L 233.578125 -60.140625 C 232.160156 -53.078125 231.453125 -47.003906 231.453125 -41.921875 C 231.453125 -35.992188 232.828125 -31.546875 235.578125 -28.578125 C 238.335938 -25.617188 242.1875 -24.140625 247.125 -24.140625 C 251.789062 -24.140625 256.34375 -25.691406 260.78125 -28.796875 C 265.226562 -31.898438 270.488281 -37.054688 276.5625 -44.265625 C 278.257812 -46.234375 280.164062 -47.21875 282.28125 -47.21875 C 284.113281 -47.21875 285.5625 -46.367188 286.625 -44.671875 C 287.6875 -42.984375 288.21875 -40.65625 288.21875 -37.6875 C 288.21875 -32.1875 286.875 -27.8125 284.1875 -24.5625 C 276.84375 -15.664062 269.570312 -9.171875 262.375 -5.078125 C 255.175781 -0.984375 247.625 1.0625 239.71875 1.0625 C 227.71875 1.0625 218.328125 -2.5 211.546875 -9.625 C 204.773438 -16.757812 201.390625 -26.328125 201.390625 -38.328125 C 201.390625 -46.660156 203.082031 -58.734375 206.46875 -74.546875 L 214.9375 -113.296875 C 215.21875 -114.566406 215.710938 -116.820312 216.421875 -120.0625 C 217.128906 -123.3125 217.691406 -126.382812 218.109375 -129.28125 C 218.535156 -132.175781 218.75 -135.035156 218.75 -137.859375 C 218.75 -142.796875 217.796875 -146.5 215.890625 -148.96875 C 213.984375 -151.445312 211.265625 -152.6875 207.734375 -152.6875 C 201.097656 -152.6875 194.144531 -148.414062 186.875 -139.875 C 179.613281 -131.332031 172.695312 -117.175781 166.125 -97.40625 C 159.5625 -77.644531 154.234375 -51.953125 150.140625 -20.328125 C 149.148438 -11.859375 147.421875 -6.175781 144.953125 -3.28125 C 142.484375 -0.382812 138.492188 1.0625 132.984375 1.0625 C 128.179688 1.0625 124.6875 -0.0664062 122.5 -2.328125 C 120.3125 -4.585938 119.21875 -8.820312 119.21875 -15.03125 C 119.21875 -20.820312 119.992188 -28.410156 121.546875 -37.796875 C 123.109375 -47.179688 125.085938 -58.226562 127.484375 -70.9375 C 133.972656 -105.101562 137.21875 -127.128906 137.21875 -137.015625 C 137.21875 -142.378906 136.191406 -146.332031 134.140625 -148.875 C 132.097656 -151.414062 129.03125 -152.6875 124.9375 -152.6875 C 118.019531 -152.6875 110.890625 -148.765625 103.546875 -140.921875 C 96.210938 -133.085938 89.050781 -119.179688 82.0625 -99.203125 C 75.070312 -79.234375 69.25 -52.238281 64.59375 -18.21875 C 63.601562 -11.007812 62.15625 -5.992188 60.25 -3.171875 C 58.34375 -0.347656 54.632812 1.0625 49.125 1.0625 Z M 49.125 1.0625 "/></g></g><g style="fill:rgb(94.509888%,59.999084%,32.548523%);fill-opacity:0.502;"><g transform="translate(273.861036, 210.21703)"><path style="stroke:none;" d="M 36.21875 1.0625 C 27.457031 1.0625 20.460938 -2.113281 15.234375 -8.46875 C 10.015625 -14.820312 7.40625 -23.148438 7.40625 -33.453125 C 7.40625 -44.753906 10.015625 -55.453125 15.234375 -65.546875 C 20.460938 -75.640625 27.414062 -83.753906 36.09375 -89.890625 C 44.78125 -96.035156 53.992188 -99.109375 63.734375 -99.109375 C 66.847656 -99.109375 68.929688 -98.503906 69.984375 -97.296875 C 71.046875 -96.097656 71.929688 -93.945312 72.640625 -90.84375 C 75.597656 -91.40625 78.703125 -91.6875 81.953125 -91.6875 C 88.867188 -91.6875 92.328125 -89.21875 92.328125 -84.28125 C 92.328125 -81.3125 91.269531 -74.253906 89.15625 -63.109375 C 85.90625 -46.867188 84.28125 -35.570312 84.28125 -29.21875 C 84.28125 -27.101562 84.804688 -25.410156 85.859375 -24.140625 C 86.921875 -22.867188 88.300781 -22.234375 90 -22.234375 C 92.6875 -22.234375 95.929688 -23.960938 99.734375 -27.421875 C 103.546875 -30.878906 108.703125 -36.492188 115.203125 -44.265625 C 116.890625 -46.234375 118.796875 -47.21875 120.921875 -47.21875 C 122.753906 -47.21875 124.195312 -46.367188 125.25 -44.671875 C 126.3125 -42.984375 126.84375 -40.65625 126.84375 -37.6875 C 126.84375 -32.039062 125.503906 -27.664062 122.828125 -24.5625 C 117.035156 -17.363281 110.890625 -11.289062 104.390625 -6.34375 C 97.898438 -1.40625 91.617188 1.0625 85.546875 1.0625 C 80.890625 1.0625 76.617188 -0.523438 72.734375 -3.703125 C 68.859375 -6.878906 65.929688 -11.222656 63.953125 -16.734375 C 56.609375 -4.867188 47.363281 1.0625 36.21875 1.0625 Z M 43.828125 -20.328125 C 46.941406 -20.328125 49.910156 -22.160156 52.734375 -25.828125 C 55.554688 -29.503906 57.601562 -34.378906 58.875 -40.453125 L 66.703125 -79.40625 C 60.773438 -79.269531 55.304688 -77.046875 50.296875 -72.734375 C 45.285156 -68.429688 41.296875 -62.75 38.328125 -55.6875 C 35.359375 -48.632812 33.875 -41.15625 33.875 -33.25 C 33.875 -28.875 34.753906 -25.625 36.515625 -23.5 C 38.285156 -21.382812 40.722656 -20.328125 43.828125 -20.328125 Z M 43.828125 -20.328125 "/></g></g><g style="fill:rgb(94.509888%,59.999084%,32.548523%);fill-opacity:0.502;"><g transform="translate(373.390029, 210.21703)"><path style="stroke:none;" d="M 104.609375 -47.21875 C 106.441406 -47.21875 107.890625 -46.367188 108.953125 -44.671875 C 110.015625 -42.984375 110.546875 -40.65625 110.546875 -37.6875 C 110.546875 -32.039062 109.203125 -27.664062 106.515625 -24.5625 C 100.441406 -17.082031 93.804688 -10.941406 86.609375 -6.140625 C 79.410156 -1.335938 71.148438 1.0625 61.828125 1.0625 C 33.035156 1.0625 18.640625 -19.195312 18.640625 -59.71875 C 18.640625 -65.925781 18.847656 -72.207031 19.265625 -78.5625 L 11.015625 -78.5625 C 6.773438 -78.5625 3.914062 -79.335938 2.4375 -80.890625 C 0.957031 -82.441406 0.21875 -84.914062 0.21875 -88.3125 C 0.21875 -96.21875 3.390625 -100.171875 9.734375 -100.171875 L 21.8125 -100.171875 C 24.207031 -115.691406 27.875 -129.875 32.8125 -142.71875 C 37.757812 -155.570312 43.726562 -165.8125 50.71875 -173.4375 C 57.707031 -181.0625 65.222656 -184.875 73.265625 -184.875 C 79.203125 -184.875 83.863281 -182.257812 87.25 -177.03125 C 90.632812 -171.8125 92.328125 -165.25 92.328125 -157.34375 C 92.328125 -135.457031 83.148438 -116.398438 64.796875 -100.171875 L 88.515625 -100.171875 C 90.773438 -100.171875 92.398438 -99.675781 93.390625 -98.6875 C 94.378906 -97.695312 94.875 -95.859375 94.875 -93.171875 C 94.875 -83.429688 86.894531 -78.5625 70.9375 -78.5625 L 45.109375 -78.5625 C 44.828125 -71.507812 44.6875 -66.003906 44.6875 -62.046875 C 44.6875 -47.367188 46.414062 -37.0625 49.875 -31.125 C 53.332031 -25.195312 58.800781 -22.234375 66.28125 -22.234375 C 72.351562 -22.234375 77.71875 -24.066406 82.375 -27.734375 C 87.03125 -31.410156 92.535156 -36.921875 98.890625 -44.265625 C 100.585938 -46.234375 102.492188 -47.21875 104.609375 -47.21875 Z M 67.546875 -164.546875 C 65.429688 -164.546875 63.066406 -161.894531 60.453125 -156.59375 C 57.847656 -151.300781 55.378906 -143.960938 53.046875 -134.578125 C 50.710938 -125.191406 48.769531 -114.78125 47.21875 -103.34375 C 55.550781 -110.539062 61.800781 -118.617188 65.96875 -127.578125 C 70.132812 -136.546875 72.21875 -144.703125 72.21875 -152.046875 C 72.21875 -160.378906 70.660156 -164.546875 67.546875 -164.546875 Z M 67.546875 -164.546875 "/></g></g><g style="fill:rgb(94.509888%,59.999084%,32.548523%);fill-opacity:0.502;"><g transform="translate(456.613204, 210.21703)"><path style="stroke:none;" d="M 36.21875 1.0625 C 27.457031 1.0625 20.460938 -2.113281 15.234375 -8.46875 C 10.015625 -14.820312 7.40625 -23.148438 7.40625 -33.453125 C 7.40625 -44.753906 10.015625 -55.453125 15.234375 -65.546875 C 20.460938 -75.640625 27.414062 -83.753906 36.09375 -89.890625 C 44.78125 -96.035156 53.992188 -99.109375 63.734375 -99.109375 C 66.847656 -99.109375 68.929688 -98.503906 69.984375 -97.296875 C 71.046875 -96.097656 71.929688 -93.945312 72.640625 -90.84375 C 75.597656 -91.40625 78.703125 -91.6875 81.953125 -91.6875 C 88.867188 -91.6875 92.328125 -89.21875 92.328125 -84.28125 C 92.328125 -81.3125 91.269531 -74.253906 89.15625 -63.109375 C 85.90625 -46.867188 84.28125 -35.570312 84.28125 -29.21875 C 84.28125 -27.101562 84.804688 -25.410156 85.859375 -24.140625 C 86.921875 -22.867188 88.300781 -22.234375 90 -22.234375 C 92.6875 -22.234375 95.929688 -23.960938 99.734375 -27.421875 C 103.546875 -30.878906 108.703125 -36.492188 115.203125 -44.265625 C 116.890625 -46.234375 118.796875 -47.21875 120.921875 -47.21875 C 122.753906 -47.21875 124.195312 -46.367188 125.25 -44.671875 C 126.3125 -42.984375 126.84375 -40.65625 126.84375 -37.6875 C 126.84375 -32.039062 125.503906 -27.664062 122.828125 -24.5625 C 117.035156 -17.363281 110.890625 -11.289062 104.390625 -6.34375 C 97.898438 -1.40625 91.617188 1.0625 85.546875 1.0625 C 80.890625 1.0625 76.617188 -0.523438 72.734375 -3.703125 C 68.859375 -6.878906 65.929688 -11.222656 63.953125 -16.734375 C 56.609375 -4.867188 47.363281 1.0625 36.21875 1.0625 Z M 43.828125 -20.328125 C 46.941406 -20.328125 49.910156 -22.160156 52.734375 -25.828125 C 55.554688 -29.503906 57.601562 -34.378906 58.875 -40.453125 L 66.703125 -79.40625 C 60.773438 -79.269531 55.304688 -77.046875 50.296875 -72.734375 C 45.285156 -68.429688 41.296875 -62.75 38.328125 -55.6875 C 35.359375 -48.632812 33.875 -41.15625 33.875 -33.25 C 33.875 -28.875 34.753906 -25.625 36.515625 -23.5 C 38.285156 -21.382812 40.722656 -20.328125 43.828125 -20.328125 Z M 43.828125 -20.328125 "/></g></g><g style="fill:rgb(94.509888%,59.999084%,32.548523%);fill-opacity:0.502;"><g transform="translate(556.14222, 210.21703)"><path style="stroke:none;" d="M 49.546875 5.71875 C 42.210938 5.71875 36.601562 4.019531 32.71875 0.625 C 28.832031 -2.757812 26.890625 -6.566406 26.890625 -10.796875 C 26.890625 -14.472656 28.226562 -17.648438 30.90625 -20.328125 C 33.59375 -23.015625 37.550781 -24.359375 42.78125 -24.359375 C 44.613281 -24.359375 46.765625 -24.179688 49.234375 -23.828125 C 51.703125 -23.472656 53.570312 -23.222656 54.84375 -23.078125 C 54.707031 -26.753906 53.894531 -30.210938 52.40625 -33.453125 C 50.925781 -36.703125 49.054688 -39.84375 46.796875 -42.875 C 44.535156 -45.914062 42.421875 -48.566406 40.453125 -50.828125 C 36.066406 -42.492188 31.722656 -35.570312 27.421875 -30.0625 C 23.117188 -24.5625 18.425781 -19.34375 13.34375 -14.40625 C 10.800781 -11.863281 8.117188 -10.59375 5.296875 -10.59375 C 3.035156 -10.59375 1.203125 -11.398438 -0.203125 -13.015625 C -1.617188 -14.640625 -2.328125 -16.65625 -2.328125 -19.0625 C -2.328125 -21.882812 -1.335938 -24.492188 0.640625 -26.890625 L 3.390625 -30.28125 C 11.148438 -39.882812 17.007812 -47.789062 20.96875 -54 C 23.363281 -58.09375 26.1875 -63.5625 29.4375 -70.40625 C 32.6875 -77.257812 35.863281 -84.351562 38.96875 -91.6875 C 41.644531 -97.90625 47.21875 -101.015625 55.6875 -101.015625 C 59.644531 -101.015625 62.398438 -100.660156 63.953125 -99.953125 C 65.503906 -99.242188 66.28125 -98.113281 66.28125 -96.5625 C 66.28125 -95.71875 66 -94.375 65.4375 -92.53125 C 64.875 -90.695312 64.097656 -88.863281 63.109375 -87.03125 C 60.566406 -81.945312 59.296875 -77.644531 59.296875 -74.125 C 59.296875 -72 60.035156 -69.664062 61.515625 -67.125 C 62.992188 -64.582031 65.289062 -61.40625 68.40625 -57.59375 C 72.914062 -51.664062 76.335938 -46.617188 78.671875 -42.453125 C 81.003906 -38.296875 82.171875 -33.742188 82.171875 -28.796875 C 82.171875 -27.390625 82.023438 -25.414062 81.734375 -22.875 C 88.660156 -25.550781 96.78125 -32.679688 106.09375 -44.265625 C 107.789062 -46.234375 109.695312 -47.21875 111.8125 -47.21875 C 113.644531 -47.21875 115.085938 -46.367188 116.140625 -44.671875 C 117.203125 -42.984375 117.734375 -40.65625 117.734375 -37.6875 C 117.734375 -32.320312 116.394531 -27.945312 113.71875 -24.5625 C 106.65625 -15.8125 99.910156 -9.847656 93.484375 -6.671875 C 87.066406 -3.492188 79.128906 -1.765625 69.671875 -1.484375 C 64.023438 3.316406 57.316406 5.71875 49.546875 5.71875 Z M 49.546875 5.71875 "/></g></g><g style="fill:rgb(92.939758%,96.859741%,96.469116%);fill-opacity:1;"><g transform="translate(7.352625, 204.601621)"><path style="stroke:none;" d="M 49.125 1.0625 C 43.90625 1.0625 40.164062 -0.0976562 37.90625 -2.421875 C 35.644531 -4.753906 34.515625 -9.171875 34.515625 -15.671875 C 34.515625 -20.046875 34.972656 -25.65625 35.890625 -32.5 C 36.804688 -39.351562 38.328125 -48.78125 40.453125 -60.78125 C 44.117188 -82.945312 47.007812 -102.144531 49.125 -118.375 C 50.394531 -128.539062 51.03125 -137.007812 51.03125 -143.78125 C 51.03125 -150.132812 48.703125 -153.3125 44.046875 -153.3125 C 40.378906 -153.3125 35.96875 -151.441406 30.8125 -147.703125 C 25.65625 -143.960938 19.972656 -138 13.765625 -129.8125 C 11.785156 -127.125 9.597656 -125.78125 7.203125 -125.78125 C 5.222656 -125.78125 3.488281 -126.734375 2 -128.640625 C 0.519531 -130.546875 -0.21875 -132.703125 -0.21875 -135.109375 C -0.21875 -137.367188 0.238281 -139.660156 1.15625 -141.984375 C 2.082031 -144.316406 3.601562 -146.96875 5.71875 -149.9375 C 12.488281 -159.394531 20.039062 -166.695312 28.375 -171.84375 C 36.707031 -177 45.035156 -179.578125 53.359375 -179.578125 C 61.128906 -179.578125 67.09375 -177.101562 71.25 -172.15625 C 75.414062 -167.21875 77.5 -160.019531 77.5 -150.5625 C 77.5 -146.75 77.144531 -142.265625 76.4375 -137.109375 C 75.738281 -131.960938 75.101562 -127.765625 74.53125 -124.515625 C 73.96875 -121.265625 73.546875 -119.003906 73.265625 -117.734375 C 81.316406 -140.753906 90.351562 -156.816406 100.375 -165.921875 C 110.394531 -175.023438 121.40625 -179.578125 133.40625 -179.578125 C 142.582031 -179.578125 149.816406 -176.328125 155.109375 -169.828125 C 160.410156 -163.335938 163.0625 -154.164062 163.0625 -142.3125 C 163.0625 -137.644531 162.425781 -131.851562 161.15625 -124.9375 C 168.207031 -144.425781 176.460938 -158.40625 185.921875 -166.875 C 195.390625 -175.34375 206.265625 -179.578125 218.546875 -179.578125 C 228.421875 -179.578125 236.003906 -176.398438 241.296875 -170.046875 C 246.597656 -163.691406 249.25 -154.796875 249.25 -143.359375 C 249.25 -137.148438 248.332031 -129.597656 246.5 -120.703125 L 233.578125 -60.140625 C 232.160156 -53.078125 231.453125 -47.003906 231.453125 -41.921875 C 231.453125 -35.992188 232.828125 -31.546875 235.578125 -28.578125 C 238.335938 -25.617188 242.1875 -24.140625 247.125 -24.140625 C 251.789062 -24.140625 256.34375 -25.691406 260.78125 -28.796875 C 265.226562 -31.898438 270.488281 -37.054688 276.5625 -44.265625 C 278.257812 -46.234375 280.164062 -47.21875 282.28125 -47.21875 C 284.113281 -47.21875 285.5625 -46.367188 286.625 -44.671875 C 287.6875 -42.984375 288.21875 -40.65625 288.21875 -37.6875 C 288.21875 -32.1875 286.875 -27.8125 284.1875 -24.5625 C 276.84375 -15.664062 269.570312 -9.171875 262.375 -5.078125 C 255.175781 -0.984375 247.625 1.0625 239.71875 1.0625 C 227.71875 1.0625 218.328125 -2.5 211.546875 -9.625 C 204.773438 -16.757812 201.390625 -26.328125 201.390625 -38.328125 C 201.390625 -46.660156 203.082031 -58.734375 206.46875 -74.546875 L 214.9375 -113.296875 C 215.21875 -114.566406 215.710938 -116.820312 216.421875 -120.0625 C 217.128906 -123.3125 217.691406 -126.382812 218.109375 -129.28125 C 218.535156 -132.175781 218.75 -135.035156 218.75 -137.859375 C 218.75 -142.796875 217.796875 -146.5 215.890625 -148.96875 C 213.984375 -151.445312 211.265625 -152.6875 207.734375 -152.6875 C 201.097656 -152.6875 194.144531 -148.414062 186.875 -139.875 C 179.613281 -131.332031 172.695312 -117.175781 166.125 -97.40625 C 159.5625 -77.644531 154.234375 -51.953125 150.140625 -20.328125 C 149.148438 -11.859375 147.421875 -6.175781 144.953125 -3.28125 C 142.484375 -0.382812 138.492188 1.0625 132.984375 1.0625 C 128.179688 1.0625 124.6875 -0.0664062 122.5 -2.328125 C 120.3125 -4.585938 119.21875 -8.820312 119.21875 -15.03125 C 119.21875 -20.820312 119.992188 -28.410156 121.546875 -37.796875 C 123.109375 -47.179688 125.085938 -58.226562 127.484375 -70.9375 C 133.972656 -105.101562 137.21875 -127.128906 137.21875 -137.015625 C 137.21875 -142.378906 136.191406 -146.332031 134.140625 -148.875 C 132.097656 -151.414062 129.03125 -152.6875 124.9375 -152.6875 C 118.019531 -152.6875 110.890625 -148.765625 103.546875 -140.921875 C 96.210938 -133.085938 89.050781 -119.179688 82.0625 -99.203125 C 75.070312 -79.234375 69.25 -52.238281 64.59375 -18.21875 C 63.601562 -11.007812 62.15625 -5.992188 60.25 -3.171875 C 58.34375 -0.347656 54.632812 1.0625 49.125 1.0625 Z M 49.125 1.0625 "/></g></g><g style="fill:rgb(92.939758%,96.859741%,96.469116%);fill-opacity:1;"><g transform="translate(268.245626, 204.601621)"><path style="stroke:none;" d="M 36.21875 1.0625 C 27.457031 1.0625 20.460938 -2.113281 15.234375 -8.46875 C 10.015625 -14.820312 7.40625 -23.148438 7.40625 -33.453125 C 7.40625 -44.753906 10.015625 -55.453125 15.234375 -65.546875 C 20.460938 -75.640625 27.414062 -83.753906 36.09375 -89.890625 C 44.78125 -96.035156 53.992188 -99.109375 63.734375 -99.109375 C 66.847656 -99.109375 68.929688 -98.503906 69.984375 -97.296875 C 71.046875 -96.097656 71.929688 -93.945312 72.640625 -90.84375 C 75.597656 -91.40625 78.703125 -91.6875 81.953125 -91.6875 C 88.867188 -91.6875 92.328125 -89.21875 92.328125 -84.28125 C 92.328125 -81.3125 91.269531 -74.253906 89.15625 -63.109375 C 85.90625 -46.867188 84.28125 -35.570312 84.28125 -29.21875 C 84.28125 -27.101562 84.804688 -25.410156 85.859375 -24.140625 C 86.921875 -22.867188 88.300781 -22.234375 90 -22.234375 C 92.6875 -22.234375 95.929688 -23.960938 99.734375 -27.421875 C 103.546875 -30.878906 108.703125 -36.492188 115.203125 -44.265625 C 116.890625 -46.234375 118.796875 -47.21875 120.921875 -47.21875 C 122.753906 -47.21875 124.195312 -46.367188 125.25 -44.671875 C 126.3125 -42.984375 126.84375 -40.65625 126.84375 -37.6875 C 126.84375 -32.039062 125.503906 -27.664062 122.828125 -24.5625 C 117.035156 -17.363281 110.890625 -11.289062 104.390625 -6.34375 C 97.898438 -1.40625 91.617188 1.0625 85.546875 1.0625 C 80.890625 1.0625 76.617188 -0.523438 72.734375 -3.703125 C 68.859375 -6.878906 65.929688 -11.222656 63.953125 -16.734375 C 56.609375 -4.867188 47.363281 1.0625 36.21875 1.0625 Z M 43.828125 -20.328125 C 46.941406 -20.328125 49.910156 -22.160156 52.734375 -25.828125 C 55.554688 -29.503906 57.601562 -34.378906 58.875 -40.453125 L 66.703125 -79.40625 C 60.773438 -79.269531 55.304688 -77.046875 50.296875 -72.734375 C 45.285156 -68.429688 41.296875 -62.75 38.328125 -55.6875 C 35.359375 -48.632812 33.875 -41.15625 33.875 -33.25 C 33.875 -28.875 34.753906 -25.625 36.515625 -23.5 C 38.285156 -21.382812 40.722656 -20.328125 43.828125 -20.328125 Z M 43.828125 -20.328125 "/></g></g><g style="fill:rgb(92.939758%,96.859741%,96.469116%);fill-opacity:1;"><g transform="translate(367.774619, 204.601621)"><path style="stroke:none;" d="M 104.609375 -47.21875 C 106.441406 -47.21875 107.890625 -46.367188 108.953125 -44.671875 C 110.015625 -42.984375 110.546875 -40.65625 110.546875 -37.6875 C 110.546875 -32.039062 109.203125 -27.664062 106.515625 -24.5625 C 100.441406 -17.082031 93.804688 -10.941406 86.609375 -6.140625 C 79.410156 -1.335938 71.148438 1.0625 61.828125 1.0625 C 33.035156 1.0625 18.640625 -19.195312 18.640625 -59.71875 C 18.640625 -65.925781 18.847656 -72.207031 19.265625 -78.5625 L 11.015625 -78.5625 C 6.773438 -78.5625 3.914062 -79.335938 2.4375 -80.890625 C 0.957031 -82.441406 0.21875 -84.914062 0.21875 -88.3125 C 0.21875 -96.21875 3.390625 -100.171875 9.734375 -100.171875 L 21.8125 -100.171875 C 24.207031 -115.691406 27.875 -129.875 32.8125 -142.71875 C 37.757812 -155.570312 43.726562 -165.8125 50.71875 -173.4375 C 57.707031 -181.0625 65.222656 -184.875 73.265625 -184.875 C 79.203125 -184.875 83.863281 -182.257812 87.25 -177.03125 C 90.632812 -171.8125 92.328125 -165.25 92.328125 -157.34375 C 92.328125 -135.457031 83.148438 -116.398438 64.796875 -100.171875 L 88.515625 -100.171875 C 90.773438 -100.171875 92.398438 -99.675781 93.390625 -98.6875 C 94.378906 -97.695312 94.875 -95.859375 94.875 -93.171875 C 94.875 -83.429688 86.894531 -78.5625 70.9375 -78.5625 L 45.109375 -78.5625 C 44.828125 -71.507812 44.6875 -66.003906 44.6875 -62.046875 C 44.6875 -47.367188 46.414062 -37.0625 49.875 -31.125 C 53.332031 -25.195312 58.800781 -22.234375 66.28125 -22.234375 C 72.351562 -22.234375 77.71875 -24.066406 82.375 -27.734375 C 87.03125 -31.410156 92.535156 -36.921875 98.890625 -44.265625 C 100.585938 -46.234375 102.492188 -47.21875 104.609375 -47.21875 Z M 67.546875 -164.546875 C 65.429688 -164.546875 63.066406 -161.894531 60.453125 -156.59375 C 57.847656 -151.300781 55.378906 -143.960938 53.046875 -134.578125 C 50.710938 -125.191406 48.769531 -114.78125 47.21875 -103.34375 C 55.550781 -110.539062 61.800781 -118.617188 65.96875 -127.578125 C 70.132812 -136.546875 72.21875 -144.703125 72.21875 -152.046875 C 72.21875 -160.378906 70.660156 -164.546875 67.546875 -164.546875 Z M 67.546875 -164.546875 "/></g></g><g style="fill:rgb(92.939758%,96.859741%,96.469116%);fill-opacity:1;"><g transform="translate(450.997795, 204.601621)"><path style="stroke:none;" d="M 36.21875 1.0625 C 27.457031 1.0625 20.460938 -2.113281 15.234375 -8.46875 C 10.015625 -14.820312 7.40625 -23.148438 7.40625 -33.453125 C 7.40625 -44.753906 10.015625 -55.453125 15.234375 -65.546875 C 20.460938 -75.640625 27.414062 -83.753906 36.09375 -89.890625 C 44.78125 -96.035156 53.992188 -99.109375 63.734375 -99.109375 C 66.847656 -99.109375 68.929688 -98.503906 69.984375 -97.296875 C 71.046875 -96.097656 71.929688 -93.945312 72.640625 -90.84375 C 75.597656 -91.40625 78.703125 -91.6875 81.953125 -91.6875 C 88.867188 -91.6875 92.328125 -89.21875 92.328125 -84.28125 C 92.328125 -81.3125 91.269531 -74.253906 89.15625 -63.109375 C 85.90625 -46.867188 84.28125 -35.570312 84.28125 -29.21875 C 84.28125 -27.101562 84.804688 -25.410156 85.859375 -24.140625 C 86.921875 -22.867188 88.300781 -22.234375 90 -22.234375 C 92.6875 -22.234375 95.929688 -23.960938 99.734375 -27.421875 C 103.546875 -30.878906 108.703125 -36.492188 115.203125 -44.265625 C 116.890625 -46.234375 118.796875 -47.21875 120.921875 -47.21875 C 122.753906 -47.21875 124.195312 -46.367188 125.25 -44.671875 C 126.3125 -42.984375 126.84375 -40.65625 126.84375 -37.6875 C 126.84375 -32.039062 125.503906 -27.664062 122.828125 -24.5625 C 117.035156 -17.363281 110.890625 -11.289062 104.390625 -6.34375 C 97.898438 -1.40625 91.617188 1.0625 85.546875 1.0625 C 80.890625 1.0625 76.617188 -0.523438 72.734375 -3.703125 C 68.859375 -6.878906 65.929688 -11.222656 63.953125 -16.734375 C 56.609375 -4.867188 47.363281 1.0625 36.21875 1.0625 Z M 43.828125 -20.328125 C 46.941406 -20.328125 49.910156 -22.160156 52.734375 -25.828125 C 55.554688 -29.503906 57.601562 -34.378906 58.875 -40.453125 L 66.703125 -79.40625 C 60.773438 -79.269531 55.304688 -77.046875 50.296875 -72.734375 C 45.285156 -68.429688 41.296875 -62.75 38.328125 -55.6875 C 35.359375 -48.632812 33.875 -41.15625 33.875 -33.25 C 33.875 -28.875 34.753906 -25.625 36.515625 -23.5 C 38.285156 -21.382812 40.722656 -20.328125 43.828125 -20.328125 Z M 43.828125 -20.328125 "/></g></g><g style="fill:rgb(92.939758%,96.859741%,96.469116%);fill-opacity:1;"><g transform="translate(550.52681, 204.601621)"><path style="stroke:none;" d="M 49.546875 5.71875 C 42.210938 5.71875 36.601562 4.019531 32.71875 0.625 C 28.832031 -2.757812 26.890625 -6.566406 26.890625 -10.796875 C 26.890625 -14.472656 28.226562 -17.648438 30.90625 -20.328125 C 33.59375 -23.015625 37.550781 -24.359375 42.78125 -24.359375 C 44.613281 -24.359375 46.765625 -24.179688 49.234375 -23.828125 C 51.703125 -23.472656 53.570312 -23.222656 54.84375 -23.078125 C 54.707031 -26.753906 53.894531 -30.210938 52.40625 -33.453125 C 50.925781 -36.703125 49.054688 -39.84375 46.796875 -42.875 C 44.535156 -45.914062 42.421875 -48.566406 40.453125 -50.828125 C 36.066406 -42.492188 31.722656 -35.570312 27.421875 -30.0625 C 23.117188 -24.5625 18.425781 -19.34375 13.34375 -14.40625 C 10.800781 -11.863281 8.117188 -10.59375 5.296875 -10.59375 C 3.035156 -10.59375 1.203125 -11.398438 -0.203125 -13.015625 C -1.617188 -14.640625 -2.328125 -16.65625 -2.328125 -19.0625 C -2.328125 -21.882812 -1.335938 -24.492188 0.640625 -26.890625 L 3.390625 -30.28125 C 11.148438 -39.882812 17.007812 -47.789062 20.96875 -54 C 23.363281 -58.09375 26.1875 -63.5625 29.4375 -70.40625 C 32.6875 -77.257812 35.863281 -84.351562 38.96875 -91.6875 C 41.644531 -97.90625 47.21875 -101.015625 55.6875 -101.015625 C 59.644531 -101.015625 62.398438 -100.660156 63.953125 -99.953125 C 65.503906 -99.242188 66.28125 -98.113281 66.28125 -96.5625 C 66.28125 -95.71875 66 -94.375 65.4375 -92.53125 C 64.875 -90.695312 64.097656 -88.863281 63.109375 -87.03125 C 60.566406 -81.945312 59.296875 -77.644531 59.296875 -74.125 C 59.296875 -72 60.035156 -69.664062 61.515625 -67.125 C 62.992188 -64.582031 65.289062 -61.40625 68.40625 -57.59375 C 72.914062 -51.664062 76.335938 -46.617188 78.671875 -42.453125 C 81.003906 -38.296875 82.171875 -33.742188 82.171875 -28.796875 C 82.171875 -27.390625 82.023438 -25.414062 81.734375 -22.875 C 88.660156 -25.550781 96.78125 -32.679688 106.09375 -44.265625 C 107.789062 -46.234375 109.695312 -47.21875 111.8125 -47.21875 C 113.644531 -47.21875 115.085938 -46.367188 116.140625 -44.671875 C 117.203125 -42.984375 117.734375 -40.65625 117.734375 -37.6875 C 117.734375 -32.320312 116.394531 -27.945312 113.71875 -24.5625 C 106.65625 -15.8125 99.910156 -9.847656 93.484375 -6.671875 C 87.066406 -3.492188 79.128906 -1.765625 69.671875 -1.484375 C 64.023438 3.316406 57.316406 5.71875 49.546875 5.71875 Z M 49.546875 5.71875 "/></g></g><g style="fill:rgb(94.509888%,59.999084%,32.548523%);fill-opacity:0.302;"><g transform="translate(94.862903, 414.519345)"><path style="stroke:none;" d="M 174.28125 -126.21875 C 174.28125 -114.21875 171.171875 -103.203125 164.953125 -93.171875 C 158.742188 -83.148438 149.710938 -74.960938 137.859375 -68.609375 C 126.003906 -62.253906 111.882812 -58.515625 95.5 -57.390625 L 86.40625 -6.359375 C 82.875 13.265625 73.269531 23.078125 57.59375 23.078125 C 48.988281 23.078125 41.050781 20.535156 33.78125 15.453125 C 26.507812 10.367188 20.679688 2.609375 16.296875 -7.828125 C 11.921875 -18.273438 9.734375 -31.125 9.734375 -46.375 C 9.734375 -75.03125 14.359375 -99.347656 23.609375 -119.328125 C 32.859375 -139.304688 45.28125 -154.269531 60.875 -164.21875 C 76.476562 -174.175781 93.671875 -179.15625 112.453125 -179.15625 C 125.722656 -179.15625 136.976562 -176.820312 146.21875 -172.15625 C 155.46875 -167.5 162.457031 -161.179688 167.1875 -153.203125 C 171.914062 -145.234375 174.28125 -136.238281 174.28125 -126.21875 Z M 99.3125 -79.203125 C 128.257812 -82.867188 142.734375 -97.90625 142.734375 -124.3125 C 142.734375 -133.625 139.660156 -141.207031 133.515625 -147.0625 C 127.378906 -152.925781 117.882812 -155.859375 105.03125 -155.859375 C 90.488281 -155.859375 77.816406 -151.269531 67.015625 -142.09375 C 56.222656 -132.914062 47.894531 -120.171875 42.03125 -103.859375 C 36.175781 -87.554688 33.25 -68.960938 33.25 -48.078125 C 33.25 -39.316406 34.128906 -31.546875 35.890625 -24.765625 C 37.660156 -17.992188 39.921875 -12.738281 42.671875 -9 C 45.421875 -5.257812 48.066406 -3.390625 50.609375 -3.390625 C 54.140625 -3.390625 56.820312 -8.257812 58.65625 -18 L 65.640625 -58.03125 C 60.140625 -58.875 57.742188 -59.222656 58.453125 -59.078125 C 54.210938 -59.785156 51.457031 -61.09375 50.1875 -63 C 48.914062 -64.90625 48.28125 -67.34375 48.28125 -70.3125 C 48.28125 -73.414062 49.160156 -75.882812 50.921875 -77.71875 C 52.691406 -79.550781 55.128906 -80.46875 58.234375 -80.46875 C 59.648438 -80.46875 60.707031 -80.398438 61.40625 -80.265625 C 64.800781 -79.691406 67.414062 -79.335938 69.25 -79.203125 C 71.082031 -90.210938 73.691406 -104.960938 77.078125 -123.453125 C 77.929688 -128.253906 79.875 -131.675781 82.90625 -133.71875 C 85.9375 -135.769531 89.5 -136.796875 93.59375 -136.796875 C 98.257812 -136.796875 101.613281 -135.910156 103.65625 -134.140625 C 105.707031 -132.378906 106.734375 -129.59375 106.734375 -125.78125 C 106.734375 -123.53125 106.59375 -121.695312 106.3125 -120.28125 Z M 99.3125 -79.203125 "/></g></g><g style="fill:rgb(94.509888%,59.999084%,32.548523%);fill-opacity:0.302;"><g transform="translate(265.332746, 414.519345)"><path style="stroke:none;" d="M 37.90625 -112.65625 C 31.976562 -112.65625 27.53125 -114.03125 24.5625 -116.78125 C 21.601562 -119.539062 20.125 -123.390625 20.125 -128.328125 C 20.125 -133.265625 22.0625 -137.390625 25.9375 -140.703125 C 29.820312 -144.023438 34.660156 -145.6875 40.453125 -145.6875 C 45.671875 -145.6875 49.90625 -144.414062 53.15625 -141.875 C 56.40625 -139.34375 58.03125 -135.742188 58.03125 -131.078125 C 58.03125 -125.429688 56.191406 -120.945312 52.515625 -117.625 C 48.847656 -114.3125 43.976562 -112.65625 37.90625 -112.65625 Z M 36.21875 1.0625 C 27.039062 1.0625 20.367188 -2.179688 16.203125 -8.671875 C 12.035156 -15.171875 9.953125 -23.785156 9.953125 -34.515625 C 9.953125 -40.867188 10.765625 -49.019531 12.390625 -58.96875 C 14.015625 -68.925781 16.097656 -78.210938 18.640625 -86.828125 C 19.910156 -91.335938 21.601562 -94.441406 23.71875 -96.140625 C 25.832031 -97.835938 29.21875 -98.6875 33.875 -98.6875 C 41.082031 -98.6875 44.6875 -96.285156 44.6875 -91.484375 C 44.6875 -87.953125 43.34375 -79.765625 40.65625 -66.921875 C 37.269531 -51.390625 35.578125 -40.867188 35.578125 -35.359375 C 35.578125 -31.128906 36.140625 -27.882812 37.265625 -25.625 C 38.398438 -23.363281 40.304688 -22.234375 42.984375 -22.234375 C 45.523438 -22.234375 48.703125 -24 52.515625 -27.53125 C 56.328125 -31.0625 61.410156 -36.640625 67.765625 -44.265625 C 69.460938 -46.234375 71.367188 -47.21875 73.484375 -47.21875 C 75.316406 -47.21875 76.757812 -46.367188 77.8125 -44.671875 C 78.875 -42.984375 79.40625 -40.65625 79.40625 -37.6875 C 79.40625 -32.039062 78.066406 -27.664062 75.390625 -24.5625 C 61.410156 -7.476562 48.351562 1.0625 36.21875 1.0625 Z M 36.21875 1.0625 "/></g></g><g style="fill:rgb(94.509888%,59.999084%,32.548523%);fill-opacity:0.302;"><g transform="translate(317.426633, 414.519345)"><path style="stroke:none;" d="M 118.59375 -46.796875 C 120.425781 -46.796875 121.867188 -45.910156 122.921875 -44.140625 C 123.984375 -42.378906 124.515625 -40.160156 124.515625 -37.484375 C 124.515625 -34.234375 124.019531 -31.691406 123.03125 -29.859375 C 122.039062 -28.023438 120.488281 -26.398438 118.375 -24.984375 C 106.238281 -16.796875 97.34375 -10.726562 91.6875 -6.78125 L 78.140625 2.328125 C 72.773438 31.554688 65.75 54.535156 57.0625 71.265625 C 48.382812 87.992188 37.335938 96.359375 23.921875 96.359375 C 16.722656 96.359375 10.863281 94.132812 6.34375 89.6875 C 1.832031 85.238281 -0.421875 79.414062 -0.421875 72.21875 C -0.421875 62.1875 3.53125 51.414062 11.4375 39.90625 C 19.34375 28.40625 34.164062 14.253906 55.90625 -2.546875 L 57.171875 -10.796875 C 54.773438 -6.984375 51.632812 -4.050781 47.75 -2 C 43.863281 0.0390625 40.019531 1.0625 36.21875 1.0625 C 27.457031 1.0625 20.460938 -2.113281 15.234375 -8.46875 C 10.015625 -14.820312 7.40625 -23.148438 7.40625 -33.453125 C 7.40625 -44.753906 10.015625 -55.453125 15.234375 -65.546875 C 20.460938 -75.640625 27.414062 -83.753906 36.09375 -89.890625 C 44.78125 -96.035156 53.992188 -99.109375 63.734375 -99.109375 C 66.847656 -99.109375 68.929688 -98.503906 69.984375 -97.296875 C 71.046875 -96.097656 71.929688 -93.945312 72.640625 -90.84375 C 75.316406 -91.40625 78.421875 -91.6875 81.953125 -91.6875 C 85.484375 -91.6875 87.988281 -91.15625 89.46875 -90.09375 C 90.945312 -89.039062 91.6875 -86.960938 91.6875 -83.859375 C 91.6875 -82.160156 91.617188 -80.816406 91.484375 -79.828125 C 90.921875 -75.453125 89.15625 -64.375 86.1875 -46.59375 C 85.625 -43.195312 85.023438 -39.488281 84.390625 -35.46875 C 83.753906 -31.445312 83.082031 -27.175781 82.375 -22.65625 C 93.25 -31.125 103.695312 -38.609375 113.71875 -45.109375 C 115.550781 -46.234375 117.175781 -46.796875 118.59375 -46.796875 Z M 43.828125 -20.328125 C 47.078125 -20.328125 50.179688 -22.300781 53.140625 -26.25 C 56.109375 -30.207031 58.226562 -35.859375 59.5 -43.203125 L 66.28125 -79.40625 C 60.488281 -79.269531 55.125 -77.046875 50.1875 -72.734375 C 45.25 -68.429688 41.296875 -62.75 38.328125 -55.6875 C 35.359375 -48.632812 33.875 -41.15625 33.875 -33.25 C 33.875 -28.875 34.753906 -25.625 36.515625 -23.5 C 38.285156 -21.382812 40.722656 -20.328125 43.828125 -20.328125 Z M 26.265625 75.8125 C 29.785156 75.8125 33.769531 71.578125 38.21875 63.109375 C 42.664062 54.640625 46.9375 41.15625 51.03125 22.65625 C 40.164062 31.976562 32.332031 40.378906 27.53125 47.859375 C 22.726562 55.335938 20.328125 61.898438 20.328125 67.546875 C 20.328125 69.953125 20.785156 71.929688 21.703125 73.484375 C 22.617188 75.035156 24.140625 75.8125 26.265625 75.8125 Z M 26.265625 75.8125 "/></g></g><g style="fill:rgb(94.509888%,59.999084%,32.548523%);fill-opacity:0.302;"><g transform="translate(418.861488, 414.519345)"><path style="stroke:none;" d="M 36.21875 1.0625 C 27.457031 1.0625 20.460938 -2.113281 15.234375 -8.46875 C 10.015625 -14.820312 7.40625 -23.148438 7.40625 -33.453125 C 7.40625 -44.753906 10.015625 -55.453125 15.234375 -65.546875 C 20.460938 -75.640625 27.414062 -83.753906 36.09375 -89.890625 C 44.78125 -96.035156 53.992188 -99.109375 63.734375 -99.109375 C 66.847656 -99.109375 68.929688 -98.503906 69.984375 -97.296875 C 71.046875 -96.097656 71.929688 -93.945312 72.640625 -90.84375 C 75.597656 -91.40625 78.703125 -91.6875 81.953125 -91.6875 C 88.867188 -91.6875 92.328125 -89.21875 92.328125 -84.28125 C 92.328125 -81.3125 91.269531 -74.253906 89.15625 -63.109375 C 85.90625 -46.867188 84.28125 -35.570312 84.28125 -29.21875 C 84.28125 -27.101562 84.804688 -25.410156 85.859375 -24.140625 C 86.921875 -22.867188 88.300781 -22.234375 90 -22.234375 C 92.6875 -22.234375 95.929688 -23.960938 99.734375 -27.421875 C 103.546875 -30.878906 108.703125 -36.492188 115.203125 -44.265625 C 116.890625 -46.234375 118.796875 -47.21875 120.921875 -47.21875 C 122.753906 -47.21875 124.195312 -46.367188 125.25 -44.671875 C 126.3125 -42.984375 126.84375 -40.65625 126.84375 -37.6875 C 126.84375 -32.039062 125.503906 -27.664062 122.828125 -24.5625 C 117.035156 -17.363281 110.890625 -11.289062 104.390625 -6.34375 C 97.898438 -1.40625 91.617188 1.0625 85.546875 1.0625 C 80.890625 1.0625 76.617188 -0.523438 72.734375 -3.703125 C 68.859375 -6.878906 65.929688 -11.222656 63.953125 -16.734375 C 56.609375 -4.867188 47.363281 1.0625 36.21875 1.0625 Z M 43.828125 -20.328125 C 46.941406 -20.328125 49.910156 -22.160156 52.734375 -25.828125 C 55.554688 -29.503906 57.601562 -34.378906 58.875 -40.453125 L 66.703125 -79.40625 C 60.773438 -79.269531 55.304688 -77.046875 50.296875 -72.734375 C 45.285156 -68.429688 41.296875 -62.75 38.328125 -55.6875 C 35.359375 -48.632812 33.875 -41.15625 33.875 -33.25 C 33.875 -28.875 34.753906 -25.625 36.515625 -23.5 C 38.285156 -21.382812 40.722656 -20.328125 43.828125 -20.328125 Z M 43.828125 -20.328125 "/></g></g><g style="fill:rgb(94.509888%,59.999084%,32.548523%);fill-opacity:0.302;"><g transform="translate(518.390503, 414.519345)"><path style="stroke:none;" d="M 118.59375 -46.796875 C 120.425781 -46.796875 121.867188 -45.910156 122.921875 -44.140625 C 123.984375 -42.378906 124.515625 -40.160156 124.515625 -37.484375 C 124.515625 -34.234375 124.019531 -31.691406 123.03125 -29.859375 C 122.039062 -28.023438 120.488281 -26.398438 118.375 -24.984375 C 106.238281 -16.796875 97.34375 -10.726562 91.6875 -6.78125 L 78.140625 2.328125 C 72.773438 31.554688 65.75 54.535156 57.0625 71.265625 C 48.382812 87.992188 37.335938 96.359375 23.921875 96.359375 C 16.722656 96.359375 10.863281 94.132812 6.34375 89.6875 C 1.832031 85.238281 -0.421875 79.414062 -0.421875 72.21875 C -0.421875 62.1875 3.53125 51.414062 11.4375 39.90625 C 19.34375 28.40625 34.164062 14.253906 55.90625 -2.546875 L 57.171875 -10.796875 C 54.773438 -6.984375 51.632812 -4.050781 47.75 -2 C 43.863281 0.0390625 40.019531 1.0625 36.21875 1.0625 C 27.457031 1.0625 20.460938 -2.113281 15.234375 -8.46875 C 10.015625 -14.820312 7.40625 -23.148438 7.40625 -33.453125 C 7.40625 -44.753906 10.015625 -55.453125 15.234375 -65.546875 C 20.460938 -75.640625 27.414062 -83.753906 36.09375 -89.890625 C 44.78125 -96.035156 53.992188 -99.109375 63.734375 -99.109375 C 66.847656 -99.109375 68.929688 -98.503906 69.984375 -97.296875 C 71.046875 -96.097656 71.929688 -93.945312 72.640625 -90.84375 C 75.316406 -91.40625 78.421875 -91.6875 81.953125 -91.6875 C 85.484375 -91.6875 87.988281 -91.15625 89.46875 -90.09375 C 90.945312 -89.039062 91.6875 -86.960938 91.6875 -83.859375 C 91.6875 -82.160156 91.617188 -80.816406 91.484375 -79.828125 C 90.921875 -75.453125 89.15625 -64.375 86.1875 -46.59375 C 85.625 -43.195312 85.023438 -39.488281 84.390625 -35.46875 C 83.753906 -31.445312 83.082031 -27.175781 82.375 -22.65625 C 93.25 -31.125 103.695312 -38.609375 113.71875 -45.109375 C 115.550781 -46.234375 117.175781 -46.796875 118.59375 -46.796875 Z M 43.828125 -20.328125 C 47.078125 -20.328125 50.179688 -22.300781 53.140625 -26.25 C 56.109375 -30.207031 58.226562 -35.859375 59.5 -43.203125 L 66.28125 -79.40625 C 60.488281 -79.269531 55.125 -77.046875 50.1875 -72.734375 C 45.25 -68.429688 41.296875 -62.75 38.328125 -55.6875 C 35.359375 -48.632812 33.875 -41.15625 33.875 -33.25 C 33.875 -28.875 34.753906 -25.625 36.515625 -23.5 C 38.285156 -21.382812 40.722656 -20.328125 43.828125 -20.328125 Z M 26.265625 75.8125 C 29.785156 75.8125 33.769531 71.578125 38.21875 63.109375 C 42.664062 54.640625 46.9375 41.15625 51.03125 22.65625 C 40.164062 31.976562 32.332031 40.378906 27.53125 47.859375 C 22.726562 55.335938 20.328125 61.898438 20.328125 67.546875 C 20.328125 69.953125 20.785156 71.929688 21.703125 73.484375 C 22.617188 75.035156 24.140625 75.8125 26.265625 75.8125 Z M 26.265625 75.8125 "/></g></g><g style="fill:rgb(94.509888%,59.999084%,32.548523%);fill-opacity:0.302;"><g transform="translate(619.825358, 414.519345)"><path style="stroke:none;" d="M 36.21875 1.0625 C 27.457031 1.0625 20.460938 -2.113281 15.234375 -8.46875 C 10.015625 -14.820312 7.40625 -23.148438 7.40625 -33.453125 C 7.40625 -44.753906 10.015625 -55.453125 15.234375 -65.546875 C 20.460938 -75.640625 27.414062 -83.753906 36.09375 -89.890625 C 44.78125 -96.035156 53.992188 -99.109375 63.734375 -99.109375 C 66.847656 -99.109375 68.929688 -98.503906 69.984375 -97.296875 C 71.046875 -96.097656 71.929688 -93.945312 72.640625 -90.84375 C 75.597656 -91.40625 78.703125 -91.6875 81.953125 -91.6875 C 88.867188 -91.6875 92.328125 -89.21875 92.328125 -84.28125 C 92.328125 -81.3125 91.269531 -74.253906 89.15625 -63.109375 C 85.90625 -46.867188 84.28125 -35.570312 84.28125 -29.21875 C 84.28125 -27.101562 84.804688 -25.410156 85.859375 -24.140625 C 86.921875 -22.867188 88.300781 -22.234375 90 -22.234375 C 92.6875 -22.234375 95.929688 -23.960938 99.734375 -27.421875 C 103.546875 -30.878906 108.703125 -36.492188 115.203125 -44.265625 C 116.890625 -46.234375 118.796875 -47.21875 120.921875 -47.21875 C 122.753906 -47.21875 124.195312 -46.367188 125.25 -44.671875 C 126.3125 -42.984375 126.84375 -40.65625 126.84375 -37.6875 C 126.84375 -32.039062 125.503906 -27.664062 122.828125 -24.5625 C 117.035156 -17.363281 110.890625 -11.289062 104.390625 -6.34375 C 97.898438 -1.40625 91.617188 1.0625 85.546875 1.0625 C 80.890625 1.0625 76.617188 -0.523438 72.734375 -3.703125 C 68.859375 -6.878906 65.929688 -11.222656 63.953125 -16.734375 C 56.609375 -4.867188 47.363281 1.0625 36.21875 1.0625 Z M 43.828125 -20.328125 C 46.941406 -20.328125 49.910156 -22.160156 52.734375 -25.828125 C 55.554688 -29.503906 57.601562 -34.378906 58.875 -40.453125 L 66.703125 -79.40625 C 60.773438 -79.269531 55.304688 -77.046875 50.296875 -72.734375 C 45.285156 -68.429688 41.296875 -62.75 38.328125 -55.6875 C 35.359375 -48.632812 33.875 -41.15625 33.875 -33.25 C 33.875 -28.875 34.753906 -25.625 36.515625 -23.5 C 38.285156 -21.382812 40.722656 -20.328125 43.828125 -20.328125 Z M 43.828125 -20.328125 "/></g></g><g style="fill:rgb(94.509888%,59.999084%,32.548523%);fill-opacity:0.502;"><g transform="translate(89.247498, 408.903928)"><path style="stroke:none;" d="M 174.28125 -126.21875 C 174.28125 -114.21875 171.171875 -103.203125 164.953125 -93.171875 C 158.742188 -83.148438 149.710938 -74.960938 137.859375 -68.609375 C 126.003906 -62.253906 111.882812 -58.515625 95.5 -57.390625 L 86.40625 -6.359375 C 82.875 13.265625 73.269531 23.078125 57.59375 23.078125 C 48.988281 23.078125 41.050781 20.535156 33.78125 15.453125 C 26.507812 10.367188 20.679688 2.609375 16.296875 -7.828125 C 11.921875 -18.273438 9.734375 -31.125 9.734375 -46.375 C 9.734375 -75.03125 14.359375 -99.347656 23.609375 -119.328125 C 32.859375 -139.304688 45.28125 -154.269531 60.875 -164.21875 C 76.476562 -174.175781 93.671875 -179.15625 112.453125 -179.15625 C 125.722656 -179.15625 136.976562 -176.820312 146.21875 -172.15625 C 155.46875 -167.5 162.457031 -161.179688 167.1875 -153.203125 C 171.914062 -145.234375 174.28125 -136.238281 174.28125 -126.21875 Z M 99.3125 -79.203125 C 128.257812 -82.867188 142.734375 -97.90625 142.734375 -124.3125 C 142.734375 -133.625 139.660156 -141.207031 133.515625 -147.0625 C 127.378906 -152.925781 117.882812 -155.859375 105.03125 -155.859375 C 90.488281 -155.859375 77.816406 -151.269531 67.015625 -142.09375 C 56.222656 -132.914062 47.894531 -120.171875 42.03125 -103.859375 C 36.175781 -87.554688 33.25 -68.960938 33.25 -48.078125 C 33.25 -39.316406 34.128906 -31.546875 35.890625 -24.765625 C 37.660156 -17.992188 39.921875 -12.738281 42.671875 -9 C 45.421875 -5.257812 48.066406 -3.390625 50.609375 -3.390625 C 54.140625 -3.390625 56.820312 -8.257812 58.65625 -18 L 65.640625 -58.03125 C 60.140625 -58.875 57.742188 -59.222656 58.453125 -59.078125 C 54.210938 -59.785156 51.457031 -61.09375 50.1875 -63 C 48.914062 -64.90625 48.28125 -67.34375 48.28125 -70.3125 C 48.28125 -73.414062 49.160156 -75.882812 50.921875 -77.71875 C 52.691406 -79.550781 55.128906 -80.46875 58.234375 -80.46875 C 59.648438 -80.46875 60.707031 -80.398438 61.40625 -80.265625 C 64.800781 -79.691406 67.414062 -79.335938 69.25 -79.203125 C 71.082031 -90.210938 73.691406 -104.960938 77.078125 -123.453125 C 77.929688 -128.253906 79.875 -131.675781 82.90625 -133.71875 C 85.9375 -135.769531 89.5 -136.796875 93.59375 -136.796875 C 98.257812 -136.796875 101.613281 -135.910156 103.65625 -134.140625 C 105.707031 -132.378906 106.734375 -129.59375 106.734375 -125.78125 C 106.734375 -123.53125 106.59375 -121.695312 106.3125 -120.28125 Z M 99.3125 -79.203125 "/></g></g><g style="fill:rgb(94.509888%,59.999084%,32.548523%);fill-opacity:0.502;"><g transform="translate(259.717341, 408.903928)"><path style="stroke:none;" d="M 37.90625 -112.65625 C 31.976562 -112.65625 27.53125 -114.03125 24.5625 -116.78125 C 21.601562 -119.539062 20.125 -123.390625 20.125 -128.328125 C 20.125 -133.265625 22.0625 -137.390625 25.9375 -140.703125 C 29.820312 -144.023438 34.660156 -145.6875 40.453125 -145.6875 C 45.671875 -145.6875 49.90625 -144.414062 53.15625 -141.875 C 56.40625 -139.34375 58.03125 -135.742188 58.03125 -131.078125 C 58.03125 -125.429688 56.191406 -120.945312 52.515625 -117.625 C 48.847656 -114.3125 43.976562 -112.65625 37.90625 -112.65625 Z M 36.21875 1.0625 C 27.039062 1.0625 20.367188 -2.179688 16.203125 -8.671875 C 12.035156 -15.171875 9.953125 -23.785156 9.953125 -34.515625 C 9.953125 -40.867188 10.765625 -49.019531 12.390625 -58.96875 C 14.015625 -68.925781 16.097656 -78.210938 18.640625 -86.828125 C 19.910156 -91.335938 21.601562 -94.441406 23.71875 -96.140625 C 25.832031 -97.835938 29.21875 -98.6875 33.875 -98.6875 C 41.082031 -98.6875 44.6875 -96.285156 44.6875 -91.484375 C 44.6875 -87.953125 43.34375 -79.765625 40.65625 -66.921875 C 37.269531 -51.390625 35.578125 -40.867188 35.578125 -35.359375 C 35.578125 -31.128906 36.140625 -27.882812 37.265625 -25.625 C 38.398438 -23.363281 40.304688 -22.234375 42.984375 -22.234375 C 45.523438 -22.234375 48.703125 -24 52.515625 -27.53125 C 56.328125 -31.0625 61.410156 -36.640625 67.765625 -44.265625 C 69.460938 -46.234375 71.367188 -47.21875 73.484375 -47.21875 C 75.316406 -47.21875 76.757812 -46.367188 77.8125 -44.671875 C 78.875 -42.984375 79.40625 -40.65625 79.40625 -37.6875 C 79.40625 -32.039062 78.066406 -27.664062 75.390625 -24.5625 C 61.410156 -7.476562 48.351562 1.0625 36.21875 1.0625 Z M 36.21875 1.0625 "/></g></g><g style="fill:rgb(94.509888%,59.999084%,32.548523%);fill-opacity:0.502;"><g transform="translate(311.811228, 408.903928)"><path style="stroke:none;" d="M 118.59375 -46.796875 C 120.425781 -46.796875 121.867188 -45.910156 122.921875 -44.140625 C 123.984375 -42.378906 124.515625 -40.160156 124.515625 -37.484375 C 124.515625 -34.234375 124.019531 -31.691406 123.03125 -29.859375 C 122.039062 -28.023438 120.488281 -26.398438 118.375 -24.984375 C 106.238281 -16.796875 97.34375 -10.726562 91.6875 -6.78125 L 78.140625 2.328125 C 72.773438 31.554688 65.75 54.535156 57.0625 71.265625 C 48.382812 87.992188 37.335938 96.359375 23.921875 96.359375 C 16.722656 96.359375 10.863281 94.132812 6.34375 89.6875 C 1.832031 85.238281 -0.421875 79.414062 -0.421875 72.21875 C -0.421875 62.1875 3.53125 51.414062 11.4375 39.90625 C 19.34375 28.40625 34.164062 14.253906 55.90625 -2.546875 L 57.171875 -10.796875 C 54.773438 -6.984375 51.632812 -4.050781 47.75 -2 C 43.863281 0.0390625 40.019531 1.0625 36.21875 1.0625 C 27.457031 1.0625 20.460938 -2.113281 15.234375 -8.46875 C 10.015625 -14.820312 7.40625 -23.148438 7.40625 -33.453125 C 7.40625 -44.753906 10.015625 -55.453125 15.234375 -65.546875 C 20.460938 -75.640625 27.414062 -83.753906 36.09375 -89.890625 C 44.78125 -96.035156 53.992188 -99.109375 63.734375 -99.109375 C 66.847656 -99.109375 68.929688 -98.503906 69.984375 -97.296875 C 71.046875 -96.097656 71.929688 -93.945312 72.640625 -90.84375 C 75.316406 -91.40625 78.421875 -91.6875 81.953125 -91.6875 C 85.484375 -91.6875 87.988281 -91.15625 89.46875 -90.09375 C 90.945312 -89.039062 91.6875 -86.960938 91.6875 -83.859375 C 91.6875 -82.160156 91.617188 -80.816406 91.484375 -79.828125 C 90.921875 -75.453125 89.15625 -64.375 86.1875 -46.59375 C 85.625 -43.195312 85.023438 -39.488281 84.390625 -35.46875 C 83.753906 -31.445312 83.082031 -27.175781 82.375 -22.65625 C 93.25 -31.125 103.695312 -38.609375 113.71875 -45.109375 C 115.550781 -46.234375 117.175781 -46.796875 118.59375 -46.796875 Z M 43.828125 -20.328125 C 47.078125 -20.328125 50.179688 -22.300781 53.140625 -26.25 C 56.109375 -30.207031 58.226562 -35.859375 59.5 -43.203125 L 66.28125 -79.40625 C 60.488281 -79.269531 55.125 -77.046875 50.1875 -72.734375 C 45.25 -68.429688 41.296875 -62.75 38.328125 -55.6875 C 35.359375 -48.632812 33.875 -41.15625 33.875 -33.25 C 33.875 -28.875 34.753906 -25.625 36.515625 -23.5 C 38.285156 -21.382812 40.722656 -20.328125 43.828125 -20.328125 Z M 26.265625 75.8125 C 29.785156 75.8125 33.769531 71.578125 38.21875 63.109375 C 42.664062 54.640625 46.9375 41.15625 51.03125 22.65625 C 40.164062 31.976562 32.332031 40.378906 27.53125 47.859375 C 22.726562 55.335938 20.328125 61.898438 20.328125 67.546875 C 20.328125 69.953125 20.785156 71.929688 21.703125 73.484375 C 22.617188 75.035156 24.140625 75.8125 26.265625 75.8125 Z M 26.265625 75.8125 "/></g></g><g style="fill:rgb(94.509888%,59.999084%,32.548523%);fill-opacity:0.502;"><g transform="translate(413.246082, 408.903928)"><path style="stroke:none;" d="M 36.21875 1.0625 C 27.457031 1.0625 20.460938 -2.113281 15.234375 -8.46875 C 10.015625 -14.820312 7.40625 -23.148438 7.40625 -33.453125 C 7.40625 -44.753906 10.015625 -55.453125 15.234375 -65.546875 C 20.460938 -75.640625 27.414062 -83.753906 36.09375 -89.890625 C 44.78125 -96.035156 53.992188 -99.109375 63.734375 -99.109375 C 66.847656 -99.109375 68.929688 -98.503906 69.984375 -97.296875 C 71.046875 -96.097656 71.929688 -93.945312 72.640625 -90.84375 C 75.597656 -91.40625 78.703125 -91.6875 81.953125 -91.6875 C 88.867188 -91.6875 92.328125 -89.21875 92.328125 -84.28125 C 92.328125 -81.3125 91.269531 -74.253906 89.15625 -63.109375 C 85.90625 -46.867188 84.28125 -35.570312 84.28125 -29.21875 C 84.28125 -27.101562 84.804688 -25.410156 85.859375 -24.140625 C 86.921875 -22.867188 88.300781 -22.234375 90 -22.234375 C 92.6875 -22.234375 95.929688 -23.960938 99.734375 -27.421875 C 103.546875 -30.878906 108.703125 -36.492188 115.203125 -44.265625 C 116.890625 -46.234375 118.796875 -47.21875 120.921875 -47.21875 C 122.753906 -47.21875 124.195312 -46.367188 125.25 -44.671875 C 126.3125 -42.984375 126.84375 -40.65625 126.84375 -37.6875 C 126.84375 -32.039062 125.503906 -27.664062 122.828125 -24.5625 C 117.035156 -17.363281 110.890625 -11.289062 104.390625 -6.34375 C 97.898438 -1.40625 91.617188 1.0625 85.546875 1.0625 C 80.890625 1.0625 76.617188 -0.523438 72.734375 -3.703125 C 68.859375 -6.878906 65.929688 -11.222656 63.953125 -16.734375 C 56.609375 -4.867188 47.363281 1.0625 36.21875 1.0625 Z M 43.828125 -20.328125 C 46.941406 -20.328125 49.910156 -22.160156 52.734375 -25.828125 C 55.554688 -29.503906 57.601562 -34.378906 58.875 -40.453125 L 66.703125 -79.40625 C 60.773438 -79.269531 55.304688 -77.046875 50.296875 -72.734375 C 45.285156 -68.429688 41.296875 -62.75 38.328125 -55.6875 C 35.359375 -48.632812 33.875 -41.15625 33.875 -33.25 C 33.875 -28.875 34.753906 -25.625 36.515625 -23.5 C 38.285156 -21.382812 40.722656 -20.328125 43.828125 -20.328125 Z M 43.828125 -20.328125 "/></g></g><g style="fill:rgb(94.509888%,59.999084%,32.548523%);fill-opacity:0.502;"><g transform="translate(512.775098, 408.903928)"><path style="stroke:none;" d="M 118.59375 -46.796875 C 120.425781 -46.796875 121.867188 -45.910156 122.921875 -44.140625 C 123.984375 -42.378906 124.515625 -40.160156 124.515625 -37.484375 C 124.515625 -34.234375 124.019531 -31.691406 123.03125 -29.859375 C 122.039062 -28.023438 120.488281 -26.398438 118.375 -24.984375 C 106.238281 -16.796875 97.34375 -10.726562 91.6875 -6.78125 L 78.140625 2.328125 C 72.773438 31.554688 65.75 54.535156 57.0625 71.265625 C 48.382812 87.992188 37.335938 96.359375 23.921875 96.359375 C 16.722656 96.359375 10.863281 94.132812 6.34375 89.6875 C 1.832031 85.238281 -0.421875 79.414062 -0.421875 72.21875 C -0.421875 62.1875 3.53125 51.414062 11.4375 39.90625 C 19.34375 28.40625 34.164062 14.253906 55.90625 -2.546875 L 57.171875 -10.796875 C 54.773438 -6.984375 51.632812 -4.050781 47.75 -2 C 43.863281 0.0390625 40.019531 1.0625 36.21875 1.0625 C 27.457031 1.0625 20.460938 -2.113281 15.234375 -8.46875 C 10.015625 -14.820312 7.40625 -23.148438 7.40625 -33.453125 C 7.40625 -44.753906 10.015625 -55.453125 15.234375 -65.546875 C 20.460938 -75.640625 27.414062 -83.753906 36.09375 -89.890625 C 44.78125 -96.035156 53.992188 -99.109375 63.734375 -99.109375 C 66.847656 -99.109375 68.929688 -98.503906 69.984375 -97.296875 C 71.046875 -96.097656 71.929688 -93.945312 72.640625 -90.84375 C 75.316406 -91.40625 78.421875 -91.6875 81.953125 -91.6875 C 85.484375 -91.6875 87.988281 -91.15625 89.46875 -90.09375 C 90.945312 -89.039062 91.6875 -86.960938 91.6875 -83.859375 C 91.6875 -82.160156 91.617188 -80.816406 91.484375 -79.828125 C 90.921875 -75.453125 89.15625 -64.375 86.1875 -46.59375 C 85.625 -43.195312 85.023438 -39.488281 84.390625 -35.46875 C 83.753906 -31.445312 83.082031 -27.175781 82.375 -22.65625 C 93.25 -31.125 103.695312 -38.609375 113.71875 -45.109375 C 115.550781 -46.234375 117.175781 -46.796875 118.59375 -46.796875 Z M 43.828125 -20.328125 C 47.078125 -20.328125 50.179688 -22.300781 53.140625 -26.25 C 56.109375 -30.207031 58.226562 -35.859375 59.5 -43.203125 L 66.28125 -79.40625 C 60.488281 -79.269531 55.125 -77.046875 50.1875 -72.734375 C 45.25 -68.429688 41.296875 -62.75 38.328125 -55.6875 C 35.359375 -48.632812 33.875 -41.15625 33.875 -33.25 C 33.875 -28.875 34.753906 -25.625 36.515625 -23.5 C 38.285156 -21.382812 40.722656 -20.328125 43.828125 -20.328125 Z M 26.265625 75.8125 C 29.785156 75.8125 33.769531 71.578125 38.21875 63.109375 C 42.664062 54.640625 46.9375 41.15625 51.03125 22.65625 C 40.164062 31.976562 32.332031 40.378906 27.53125 47.859375 C 22.726562 55.335938 20.328125 61.898438 20.328125 67.546875 C 20.328125 69.953125 20.785156 71.929688 21.703125 73.484375 C 22.617188 75.035156 24.140625 75.8125 26.265625 75.8125 Z M 26.265625 75.8125 "/></g></g><g style="fill:rgb(94.509888%,59.999084%,32.548523%);fill-opacity:0.502;"><g transform="translate(614.209953, 408.903928)"><path style="stroke:none;" d="M 36.21875 1.0625 C 27.457031 1.0625 20.460938 -2.113281 15.234375 -8.46875 C 10.015625 -14.820312 7.40625 -23.148438 7.40625 -33.453125 C 7.40625 -44.753906 10.015625 -55.453125 15.234375 -65.546875 C 20.460938 -75.640625 27.414062 -83.753906 36.09375 -89.890625 C 44.78125 -96.035156 53.992188 -99.109375 63.734375 -99.109375 C 66.847656 -99.109375 68.929688 -98.503906 69.984375 -97.296875 C 71.046875 -96.097656 71.929688 -93.945312 72.640625 -90.84375 C 75.597656 -91.40625 78.703125 -91.6875 81.953125 -91.6875 C 88.867188 -91.6875 92.328125 -89.21875 92.328125 -84.28125 C 92.328125 -81.3125 91.269531 -74.253906 89.15625 -63.109375 C 85.90625 -46.867188 84.28125 -35.570312 84.28125 -29.21875 C 84.28125 -27.101562 84.804688 -25.410156 85.859375 -24.140625 C 86.921875 -22.867188 88.300781 -22.234375 90 -22.234375 C 92.6875 -22.234375 95.929688 -23.960938 99.734375 -27.421875 C 103.546875 -30.878906 108.703125 -36.492188 115.203125 -44.265625 C 116.890625 -46.234375 118.796875 -47.21875 120.921875 -47.21875 C 122.753906 -47.21875 124.195312 -46.367188 125.25 -44.671875 C 126.3125 -42.984375 126.84375 -40.65625 126.84375 -37.6875 C 126.84375 -32.039062 125.503906 -27.664062 122.828125 -24.5625 C 117.035156 -17.363281 110.890625 -11.289062 104.390625 -6.34375 C 97.898438 -1.40625 91.617188 1.0625 85.546875 1.0625 C 80.890625 1.0625 76.617188 -0.523438 72.734375 -3.703125 C 68.859375 -6.878906 65.929688 -11.222656 63.953125 -16.734375 C 56.609375 -4.867188 47.363281 1.0625 36.21875 1.0625 Z M 43.828125 -20.328125 C 46.941406 -20.328125 49.910156 -22.160156 52.734375 -25.828125 C 55.554688 -29.503906 57.601562 -34.378906 58.875 -40.453125 L 66.703125 -79.40625 C 60.773438 -79.269531 55.304688 -77.046875 50.296875 -72.734375 C 45.285156 -68.429688 41.296875 -62.75 38.328125 -55.6875 C 35.359375 -48.632812 33.875 -41.15625 33.875 -33.25 C 33.875 -28.875 34.753906 -25.625 36.515625 -23.5 C 38.285156 -21.382812 40.722656 -20.328125 43.828125 -20.328125 Z M 43.828125 -20.328125 "/></g></g><g style="fill:rgb(92.939758%,96.859741%,96.469116%);fill-opacity:1;"><g transform="translate(83.632087, 403.288525)"><path style="stroke:none;" d="M 174.28125 -126.21875 C 174.28125 -114.21875 171.171875 -103.203125 164.953125 -93.171875 C 158.742188 -83.148438 149.710938 -74.960938 137.859375 -68.609375 C 126.003906 -62.253906 111.882812 -58.515625 95.5 -57.390625 L 86.40625 -6.359375 C 82.875 13.265625 73.269531 23.078125 57.59375 23.078125 C 48.988281 23.078125 41.050781 20.535156 33.78125 15.453125 C 26.507812 10.367188 20.679688 2.609375 16.296875 -7.828125 C 11.921875 -18.273438 9.734375 -31.125 9.734375 -46.375 C 9.734375 -75.03125 14.359375 -99.347656 23.609375 -119.328125 C 32.859375 -139.304688 45.28125 -154.269531 60.875 -164.21875 C 76.476562 -174.175781 93.671875 -179.15625 112.453125 -179.15625 C 125.722656 -179.15625 136.976562 -176.820312 146.21875 -172.15625 C 155.46875 -167.5 162.457031 -161.179688 167.1875 -153.203125 C 171.914062 -145.234375 174.28125 -136.238281 174.28125 -126.21875 Z M 99.3125 -79.203125 C 128.257812 -82.867188 142.734375 -97.90625 142.734375 -124.3125 C 142.734375 -133.625 139.660156 -141.207031 133.515625 -147.0625 C 127.378906 -152.925781 117.882812 -155.859375 105.03125 -155.859375 C 90.488281 -155.859375 77.816406 -151.269531 67.015625 -142.09375 C 56.222656 -132.914062 47.894531 -120.171875 42.03125 -103.859375 C 36.175781 -87.554688 33.25 -68.960938 33.25 -48.078125 C 33.25 -39.316406 34.128906 -31.546875 35.890625 -24.765625 C 37.660156 -17.992188 39.921875 -12.738281 42.671875 -9 C 45.421875 -5.257812 48.066406 -3.390625 50.609375 -3.390625 C 54.140625 -3.390625 56.820312 -8.257812 58.65625 -18 L 65.640625 -58.03125 C 60.140625 -58.875 57.742188 -59.222656 58.453125 -59.078125 C 54.210938 -59.785156 51.457031 -61.09375 50.1875 -63 C 48.914062 -64.90625 48.28125 -67.34375 48.28125 -70.3125 C 48.28125 -73.414062 49.160156 -75.882812 50.921875 -77.71875 C 52.691406 -79.550781 55.128906 -80.46875 58.234375 -80.46875 C 59.648438 -80.46875 60.707031 -80.398438 61.40625 -80.265625 C 64.800781 -79.691406 67.414062 -79.335938 69.25 -79.203125 C 71.082031 -90.210938 73.691406 -104.960938 77.078125 -123.453125 C 77.929688 -128.253906 79.875 -131.675781 82.90625 -133.71875 C 85.9375 -135.769531 89.5 -136.796875 93.59375 -136.796875 C 98.257812 -136.796875 101.613281 -135.910156 103.65625 -134.140625 C 105.707031 -132.378906 106.734375 -129.59375 106.734375 -125.78125 C 106.734375 -123.53125 106.59375 -121.695312 106.3125 -120.28125 Z M 99.3125 -79.203125 "/></g></g><g style="fill:rgb(92.939758%,96.859741%,96.469116%);fill-opacity:1;"><g transform="translate(254.101931, 403.288525)"><path style="stroke:none;" d="M 37.90625 -112.65625 C 31.976562 -112.65625 27.53125 -114.03125 24.5625 -116.78125 C 21.601562 -119.539062 20.125 -123.390625 20.125 -128.328125 C 20.125 -133.265625 22.0625 -137.390625 25.9375 -140.703125 C 29.820312 -144.023438 34.660156 -145.6875 40.453125 -145.6875 C 45.671875 -145.6875 49.90625 -144.414062 53.15625 -141.875 C 56.40625 -139.34375 58.03125 -135.742188 58.03125 -131.078125 C 58.03125 -125.429688 56.191406 -120.945312 52.515625 -117.625 C 48.847656 -114.3125 43.976562 -112.65625 37.90625 -112.65625 Z M 36.21875 1.0625 C 27.039062 1.0625 20.367188 -2.179688 16.203125 -8.671875 C 12.035156 -15.171875 9.953125 -23.785156 9.953125 -34.515625 C 9.953125 -40.867188 10.765625 -49.019531 12.390625 -58.96875 C 14.015625 -68.925781 16.097656 -78.210938 18.640625 -86.828125 C 19.910156 -91.335938 21.601562 -94.441406 23.71875 -96.140625 C 25.832031 -97.835938 29.21875 -98.6875 33.875 -98.6875 C 41.082031 -98.6875 44.6875 -96.285156 44.6875 -91.484375 C 44.6875 -87.953125 43.34375 -79.765625 40.65625 -66.921875 C 37.269531 -51.390625 35.578125 -40.867188 35.578125 -35.359375 C 35.578125 -31.128906 36.140625 -27.882812 37.265625 -25.625 C 38.398438 -23.363281 40.304688 -22.234375 42.984375 -22.234375 C 45.523438 -22.234375 48.703125 -24 52.515625 -27.53125 C 56.328125 -31.0625 61.410156 -36.640625 67.765625 -44.265625 C 69.460938 -46.234375 71.367188 -47.21875 73.484375 -47.21875 C 75.316406 -47.21875 76.757812 -46.367188 77.8125 -44.671875 C 78.875 -42.984375 79.40625 -40.65625 79.40625 -37.6875 C 79.40625 -32.039062 78.066406 -27.664062 75.390625 -24.5625 C 61.410156 -7.476562 48.351562 1.0625 36.21875 1.0625 Z M 36.21875 1.0625 "/></g></g><g style="fill:rgb(92.939758%,96.859741%,96.469116%);fill-opacity:1;"><g transform="translate(306.195818, 403.288525)"><path style="stroke:none;" d="M 118.59375 -46.796875 C 120.425781 -46.796875 121.867188 -45.910156 122.921875 -44.140625 C 123.984375 -42.378906 124.515625 -40.160156 124.515625 -37.484375 C 124.515625 -34.234375 124.019531 -31.691406 123.03125 -29.859375 C 122.039062 -28.023438 120.488281 -26.398438 118.375 -24.984375 C 106.238281 -16.796875 97.34375 -10.726562 91.6875 -6.78125 L 78.140625 2.328125 C 72.773438 31.554688 65.75 54.535156 57.0625 71.265625 C 48.382812 87.992188 37.335938 96.359375 23.921875 96.359375 C 16.722656 96.359375 10.863281 94.132812 6.34375 89.6875 C 1.832031 85.238281 -0.421875 79.414062 -0.421875 72.21875 C -0.421875 62.1875 3.53125 51.414062 11.4375 39.90625 C 19.34375 28.40625 34.164062 14.253906 55.90625 -2.546875 L 57.171875 -10.796875 C 54.773438 -6.984375 51.632812 -4.050781 47.75 -2 C 43.863281 0.0390625 40.019531 1.0625 36.21875 1.0625 C 27.457031 1.0625 20.460938 -2.113281 15.234375 -8.46875 C 10.015625 -14.820312 7.40625 -23.148438 7.40625 -33.453125 C 7.40625 -44.753906 10.015625 -55.453125 15.234375 -65.546875 C 20.460938 -75.640625 27.414062 -83.753906 36.09375 -89.890625 C 44.78125 -96.035156 53.992188 -99.109375 63.734375 -99.109375 C 66.847656 -99.109375 68.929688 -98.503906 69.984375 -97.296875 C 71.046875 -96.097656 71.929688 -93.945312 72.640625 -90.84375 C 75.316406 -91.40625 78.421875 -91.6875 81.953125 -91.6875 C 85.484375 -91.6875 87.988281 -91.15625 89.46875 -90.09375 C 90.945312 -89.039062 91.6875 -86.960938 91.6875 -83.859375 C 91.6875 -82.160156 91.617188 -80.816406 91.484375 -79.828125 C 90.921875 -75.453125 89.15625 -64.375 86.1875 -46.59375 C 85.625 -43.195312 85.023438 -39.488281 84.390625 -35.46875 C 83.753906 -31.445312 83.082031 -27.175781 82.375 -22.65625 C 93.25 -31.125 103.695312 -38.609375 113.71875 -45.109375 C 115.550781 -46.234375 117.175781 -46.796875 118.59375 -46.796875 Z M 43.828125 -20.328125 C 47.078125 -20.328125 50.179688 -22.300781 53.140625 -26.25 C 56.109375 -30.207031 58.226562 -35.859375 59.5 -43.203125 L 66.28125 -79.40625 C 60.488281 -79.269531 55.125 -77.046875 50.1875 -72.734375 C 45.25 -68.429688 41.296875 -62.75 38.328125 -55.6875 C 35.359375 -48.632812 33.875 -41.15625 33.875 -33.25 C 33.875 -28.875 34.753906 -25.625 36.515625 -23.5 C 38.285156 -21.382812 40.722656 -20.328125 43.828125 -20.328125 Z M 26.265625 75.8125 C 29.785156 75.8125 33.769531 71.578125 38.21875 63.109375 C 42.664062 54.640625 46.9375 41.15625 51.03125 22.65625 C 40.164062 31.976562 32.332031 40.378906 27.53125 47.859375 C 22.726562 55.335938 20.328125 61.898438 20.328125 67.546875 C 20.328125 69.953125 20.785156 71.929688 21.703125 73.484375 C 22.617188 75.035156 24.140625 75.8125 26.265625 75.8125 Z M 26.265625 75.8125 "/></g></g><g style="fill:rgb(92.939758%,96.859741%,96.469116%);fill-opacity:1;"><g transform="translate(407.630672, 403.288525)"><path style="stroke:none;" d="M 36.21875 1.0625 C 27.457031 1.0625 20.460938 -2.113281 15.234375 -8.46875 C 10.015625 -14.820312 7.40625 -23.148438 7.40625 -33.453125 C 7.40625 -44.753906 10.015625 -55.453125 15.234375 -65.546875 C 20.460938 -75.640625 27.414062 -83.753906 36.09375 -89.890625 C 44.78125 -96.035156 53.992188 -99.109375 63.734375 -99.109375 C 66.847656 -99.109375 68.929688 -98.503906 69.984375 -97.296875 C 71.046875 -96.097656 71.929688 -93.945312 72.640625 -90.84375 C 75.597656 -91.40625 78.703125 -91.6875 81.953125 -91.6875 C 88.867188 -91.6875 92.328125 -89.21875 92.328125 -84.28125 C 92.328125 -81.3125 91.269531 -74.253906 89.15625 -63.109375 C 85.90625 -46.867188 84.28125 -35.570312 84.28125 -29.21875 C 84.28125 -27.101562 84.804688 -25.410156 85.859375 -24.140625 C 86.921875 -22.867188 88.300781 -22.234375 90 -22.234375 C 92.6875 -22.234375 95.929688 -23.960938 99.734375 -27.421875 C 103.546875 -30.878906 108.703125 -36.492188 115.203125 -44.265625 C 116.890625 -46.234375 118.796875 -47.21875 120.921875 -47.21875 C 122.753906 -47.21875 124.195312 -46.367188 125.25 -44.671875 C 126.3125 -42.984375 126.84375 -40.65625 126.84375 -37.6875 C 126.84375 -32.039062 125.503906 -27.664062 122.828125 -24.5625 C 117.035156 -17.363281 110.890625 -11.289062 104.390625 -6.34375 C 97.898438 -1.40625 91.617188 1.0625 85.546875 1.0625 C 80.890625 1.0625 76.617188 -0.523438 72.734375 -3.703125 C 68.859375 -6.878906 65.929688 -11.222656 63.953125 -16.734375 C 56.609375 -4.867188 47.363281 1.0625 36.21875 1.0625 Z M 43.828125 -20.328125 C 46.941406 -20.328125 49.910156 -22.160156 52.734375 -25.828125 C 55.554688 -29.503906 57.601562 -34.378906 58.875 -40.453125 L 66.703125 -79.40625 C 60.773438 -79.269531 55.304688 -77.046875 50.296875 -72.734375 C 45.285156 -68.429688 41.296875 -62.75 38.328125 -55.6875 C 35.359375 -48.632812 33.875 -41.15625 33.875 -33.25 C 33.875 -28.875 34.753906 -25.625 36.515625 -23.5 C 38.285156 -21.382812 40.722656 -20.328125 43.828125 -20.328125 Z M 43.828125 -20.328125 "/></g></g><g style="fill:rgb(92.939758%,96.859741%,96.469116%);fill-opacity:1;"><g transform="translate(507.159688, 403.288525)"><path style="stroke:none;" d="M 118.59375 -46.796875 C 120.425781 -46.796875 121.867188 -45.910156 122.921875 -44.140625 C 123.984375 -42.378906 124.515625 -40.160156 124.515625 -37.484375 C 124.515625 -34.234375 124.019531 -31.691406 123.03125 -29.859375 C 122.039062 -28.023438 120.488281 -26.398438 118.375 -24.984375 C 106.238281 -16.796875 97.34375 -10.726562 91.6875 -6.78125 L 78.140625 2.328125 C 72.773438 31.554688 65.75 54.535156 57.0625 71.265625 C 48.382812 87.992188 37.335938 96.359375 23.921875 96.359375 C 16.722656 96.359375 10.863281 94.132812 6.34375 89.6875 C 1.832031 85.238281 -0.421875 79.414062 -0.421875 72.21875 C -0.421875 62.1875 3.53125 51.414062 11.4375 39.90625 C 19.34375 28.40625 34.164062 14.253906 55.90625 -2.546875 L 57.171875 -10.796875 C 54.773438 -6.984375 51.632812 -4.050781 47.75 -2 C 43.863281 0.0390625 40.019531 1.0625 36.21875 1.0625 C 27.457031 1.0625 20.460938 -2.113281 15.234375 -8.46875 C 10.015625 -14.820312 7.40625 -23.148438 7.40625 -33.453125 C 7.40625 -44.753906 10.015625 -55.453125 15.234375 -65.546875 C 20.460938 -75.640625 27.414062 -83.753906 36.09375 -89.890625 C 44.78125 -96.035156 53.992188 -99.109375 63.734375 -99.109375 C 66.847656 -99.109375 68.929688 -98.503906 69.984375 -97.296875 C 71.046875 -96.097656 71.929688 -93.945312 72.640625 -90.84375 C 75.316406 -91.40625 78.421875 -91.6875 81.953125 -91.6875 C 85.484375 -91.6875 87.988281 -91.15625 89.46875 -90.09375 C 90.945312 -89.039062 91.6875 -86.960938 91.6875 -83.859375 C 91.6875 -82.160156 91.617188 -80.816406 91.484375 -79.828125 C 90.921875 -75.453125 89.15625 -64.375 86.1875 -46.59375 C 85.625 -43.195312 85.023438 -39.488281 84.390625 -35.46875 C 83.753906 -31.445312 83.082031 -27.175781 82.375 -22.65625 C 93.25 -31.125 103.695312 -38.609375 113.71875 -45.109375 C 115.550781 -46.234375 117.175781 -46.796875 118.59375 -46.796875 Z M 43.828125 -20.328125 C 47.078125 -20.328125 50.179688 -22.300781 53.140625 -26.25 C 56.109375 -30.207031 58.226562 -35.859375 59.5 -43.203125 L 66.28125 -79.40625 C 60.488281 -79.269531 55.125 -77.046875 50.1875 -72.734375 C 45.25 -68.429688 41.296875 -62.75 38.328125 -55.6875 C 35.359375 -48.632812 33.875 -41.15625 33.875 -33.25 C 33.875 -28.875 34.753906 -25.625 36.515625 -23.5 C 38.285156 -21.382812 40.722656 -20.328125 43.828125 -20.328125 Z M 26.265625 75.8125 C 29.785156 75.8125 33.769531 71.578125 38.21875 63.109375 C 42.664062 54.640625 46.9375 41.15625 51.03125 22.65625 C 40.164062 31.976562 32.332031 40.378906 27.53125 47.859375 C 22.726562 55.335938 20.328125 61.898438 20.328125 67.546875 C 20.328125 69.953125 20.785156 71.929688 21.703125 73.484375 C 22.617188 75.035156 24.140625 75.8125 26.265625 75.8125 Z M 26.265625 75.8125 "/></g></g><g style="fill:rgb(92.939758%,96.859741%,96.469116%);fill-opacity:1;"><g transform="translate(608.594542, 403.288525)"><path style="stroke:none;" d="M 36.21875 1.0625 C 27.457031 1.0625 20.460938 -2.113281 15.234375 -8.46875 C 10.015625 -14.820312 7.40625 -23.148438 7.40625 -33.453125 C 7.40625 -44.753906 10.015625 -55.453125 15.234375 -65.546875 C 20.460938 -75.640625 27.414062 -83.753906 36.09375 -89.890625 C 44.78125 -96.035156 53.992188 -99.109375 63.734375 -99.109375 C 66.847656 -99.109375 68.929688 -98.503906 69.984375 -97.296875 C 71.046875 -96.097656 71.929688 -93.945312 72.640625 -90.84375 C 75.597656 -91.40625 78.703125 -91.6875 81.953125 -91.6875 C 88.867188 -91.6875 92.328125 -89.21875 92.328125 -84.28125 C 92.328125 -81.3125 91.269531 -74.253906 89.15625 -63.109375 C 85.90625 -46.867188 84.28125 -35.570312 84.28125 -29.21875 C 84.28125 -27.101562 84.804688 -25.410156 85.859375 -24.140625 C 86.921875 -22.867188 88.300781 -22.234375 90 -22.234375 C 92.6875 -22.234375 95.929688 -23.960938 99.734375 -27.421875 C 103.546875 -30.878906 108.703125 -36.492188 115.203125 -44.265625 C 116.890625 -46.234375 118.796875 -47.21875 120.921875 -47.21875 C 122.753906 -47.21875 124.195312 -46.367188 125.25 -44.671875 C 126.3125 -42.984375 126.84375 -40.65625 126.84375 -37.6875 C 126.84375 -32.039062 125.503906 -27.664062 122.828125 -24.5625 C 117.035156 -17.363281 110.890625 -11.289062 104.390625 -6.34375 C 97.898438 -1.40625 91.617188 1.0625 85.546875 1.0625 C 80.890625 1.0625 76.617188 -0.523438 72.734375 -3.703125 C 68.859375 -6.878906 65.929688 -11.222656 63.953125 -16.734375 C 56.609375 -4.867188 47.363281 1.0625 36.21875 1.0625 Z M 43.828125 -20.328125 C 46.941406 -20.328125 49.910156 -22.160156 52.734375 -25.828125 C 55.554688 -29.503906 57.601562 -34.378906 58.875 -40.453125 L 66.703125 -79.40625 C 60.773438 -79.269531 55.304688 -77.046875 50.296875 -72.734375 C 45.285156 -68.429688 41.296875 -62.75 38.328125 -55.6875 C 35.359375 -48.632812 33.875 -41.15625 33.875 -33.25 C 33.875 -28.875 34.753906 -25.625 36.515625 -23.5 C 38.285156 -21.382812 40.722656 -20.328125 43.828125 -20.328125 Z M 43.828125 -20.328125 "/></g></g></g></svg>