<?xml version="1.0" encoding="UTF-8"?><svg xmlns="http://www.w3.org/2000/svg" xmlns:xlink="http://www.w3.org/1999/xlink" contentScriptType="text/ecmascript" width="750pt" zoomAndPan="magnify" contentStyleType="text/css" viewBox="0 0 750 168.749997" height="168.749997pt" preserveAspectRatio="xMidYMid meet" version="1.2"><defs><g/></defs><g xml:id="surface1" id="surface1"><g style="fill:rgb(94.509888%,59.999084%,32.548523%);fill-opacity:0.302;"><g transform="translate(10.123513, 112.032139)"><path style="stroke:none;" d="M 26.96875 0.578125 C 24.101562 0.578125 22.050781 -0.0546875 20.8125 -1.328125 C 19.570312 -2.609375 18.953125 -5.03125 18.953125 -8.59375 C 18.953125 -11 19.203125 -14.082031 19.703125 -17.84375 C 20.203125 -21.601562 21.035156 -26.773438 22.203125 -33.359375 C 24.210938 -45.523438 25.800781 -56.0625 26.96875 -64.96875 C 27.664062 -70.550781 28.015625 -75.203125 28.015625 -78.921875 C 28.015625 -82.410156 26.734375 -84.15625 24.171875 -84.15625 C 22.160156 -84.15625 19.738281 -83.128906 16.90625 -81.078125 C 14.082031 -79.023438 10.96875 -75.75 7.5625 -71.25 C 6.46875 -69.78125 5.265625 -69.046875 3.953125 -69.046875 C 2.867188 -69.046875 1.921875 -69.566406 1.109375 -70.609375 C 0.296875 -71.660156 -0.109375 -72.84375 -0.109375 -74.15625 C -0.109375 -75.394531 0.140625 -76.65625 0.640625 -77.9375 C 1.140625 -79.21875 1.972656 -80.671875 3.140625 -82.296875 C 6.859375 -87.484375 11.003906 -91.488281 15.578125 -94.3125 C 20.148438 -97.144531 24.722656 -98.5625 29.296875 -98.5625 C 33.554688 -98.5625 36.828125 -97.207031 39.109375 -94.5 C 41.398438 -91.789062 42.546875 -87.835938 42.546875 -82.640625 C 42.546875 -80.546875 42.347656 -78.082031 41.953125 -75.25 C 41.566406 -72.425781 41.21875 -70.125 40.90625 -68.34375 C 40.601562 -66.5625 40.375 -65.320312 40.21875 -64.625 C 44.632812 -77.257812 49.59375 -86.070312 55.09375 -91.0625 C 60.59375 -96.0625 66.640625 -98.5625 73.234375 -98.5625 C 78.265625 -98.5625 82.234375 -96.78125 85.140625 -93.21875 C 88.046875 -89.65625 89.5 -84.617188 89.5 -78.109375 C 89.5 -75.554688 89.148438 -72.378906 88.453125 -68.578125 C 92.328125 -79.273438 96.859375 -86.945312 102.046875 -91.59375 C 107.242188 -96.238281 113.210938 -98.5625 119.953125 -98.5625 C 125.378906 -98.5625 129.546875 -96.816406 132.453125 -93.328125 C 135.359375 -89.847656 136.8125 -84.96875 136.8125 -78.6875 C 136.8125 -75.28125 136.304688 -71.132812 135.296875 -66.25 L 128.203125 -33.015625 C 127.429688 -29.140625 127.046875 -25.804688 127.046875 -23.015625 C 127.046875 -19.753906 127.800781 -17.3125 129.3125 -15.6875 C 130.820312 -14.0625 132.929688 -13.25 135.640625 -13.25 C 138.203125 -13.25 140.703125 -14.097656 143.140625 -15.796875 C 145.578125 -17.503906 148.460938 -20.335938 151.796875 -24.296875 C 152.734375 -25.378906 153.78125 -25.921875 154.9375 -25.921875 C 155.945312 -25.921875 156.738281 -25.453125 157.3125 -24.515625 C 157.894531 -23.585938 158.1875 -22.3125 158.1875 -20.6875 C 158.1875 -17.664062 157.453125 -15.265625 155.984375 -13.484375 C 151.953125 -8.597656 147.960938 -5.03125 144.015625 -2.78125 C 140.066406 -0.539062 135.921875 0.578125 131.578125 0.578125 C 124.992188 0.578125 119.835938 -1.375 116.109375 -5.28125 C 112.390625 -9.195312 110.53125 -14.445312 110.53125 -21.03125 C 110.53125 -25.601562 111.460938 -32.234375 113.328125 -40.921875 L 117.984375 -62.1875 C 118.128906 -62.882812 118.394531 -64.125 118.78125 -65.90625 C 119.175781 -67.6875 119.488281 -69.367188 119.71875 -70.953125 C 119.945312 -72.546875 120.0625 -74.117188 120.0625 -75.671875 C 120.0625 -78.378906 119.539062 -80.410156 118.5 -81.765625 C 117.457031 -83.128906 115.96875 -83.8125 114.03125 -83.8125 C 110.382812 -83.8125 106.566406 -81.460938 102.578125 -76.765625 C 98.585938 -72.078125 94.789062 -64.304688 91.1875 -53.453125 C 87.582031 -42.609375 84.65625 -28.507812 82.40625 -11.15625 C 81.863281 -6.507812 80.914062 -3.390625 79.5625 -1.796875 C 78.207031 -0.210938 76.019531 0.578125 73 0.578125 C 70.363281 0.578125 68.441406 -0.0390625 67.234375 -1.28125 C 66.035156 -2.519531 65.4375 -4.84375 65.4375 -8.25 C 65.4375 -11.425781 65.863281 -15.59375 66.71875 -20.75 C 67.570312 -25.90625 68.65625 -31.96875 69.96875 -38.9375 C 73.53125 -57.6875 75.3125 -69.773438 75.3125 -75.203125 C 75.3125 -78.148438 74.75 -80.320312 73.625 -81.71875 C 72.507812 -83.113281 70.828125 -83.8125 68.578125 -83.8125 C 64.773438 -83.8125 60.859375 -81.660156 56.828125 -77.359375 C 52.804688 -73.054688 48.875 -65.421875 45.03125 -54.453125 C 41.195312 -43.492188 38.003906 -28.675781 35.453125 -10 C 34.910156 -6.039062 34.113281 -3.285156 33.0625 -1.734375 C 32.019531 -0.191406 29.988281 0.578125 26.96875 0.578125 Z M 26.96875 0.578125 "/></g></g><g style="fill:rgb(94.509888%,59.999084%,32.548523%);fill-opacity:0.302;"><g transform="translate(153.319536, 112.032139)"><path style="stroke:none;" d="M 19.875 0.578125 C 15.070312 0.578125 11.234375 -1.160156 8.359375 -4.640625 C 5.492188 -8.128906 4.0625 -12.703125 4.0625 -18.359375 C 4.0625 -24.554688 5.492188 -30.425781 8.359375 -35.96875 C 11.234375 -41.507812 15.050781 -45.960938 19.8125 -49.328125 C 24.582031 -52.703125 29.640625 -54.390625 34.984375 -54.390625 C 36.691406 -54.390625 37.832031 -54.0625 38.40625 -53.40625 C 38.988281 -52.75 39.476562 -51.566406 39.875 -49.859375 C 41.5 -50.171875 43.203125 -50.328125 44.984375 -50.328125 C 48.773438 -50.328125 50.671875 -48.972656 50.671875 -46.265625 C 50.671875 -44.640625 50.09375 -40.765625 48.9375 -34.640625 C 47.15625 -25.722656 46.265625 -19.523438 46.265625 -16.046875 C 46.265625 -14.878906 46.550781 -13.945312 47.125 -13.25 C 47.707031 -12.550781 48.46875 -12.203125 49.40625 -12.203125 C 50.875 -12.203125 52.65625 -13.148438 54.75 -15.046875 C 56.84375 -16.953125 59.671875 -20.035156 63.234375 -24.296875 C 64.160156 -25.378906 65.207031 -25.921875 66.375 -25.921875 C 67.375 -25.921875 68.164062 -25.453125 68.75 -24.515625 C 69.332031 -23.585938 69.625 -22.3125 69.625 -20.6875 C 69.625 -17.59375 68.890625 -15.191406 67.421875 -13.484375 C 64.242188 -9.535156 60.867188 -6.203125 57.296875 -3.484375 C 53.734375 -0.773438 50.285156 0.578125 46.953125 0.578125 C 44.398438 0.578125 42.054688 -0.289062 39.921875 -2.03125 C 37.796875 -3.78125 36.191406 -6.164062 35.109375 -9.1875 C 31.078125 -2.675781 26 0.578125 19.875 0.578125 Z M 24.0625 -11.15625 C 25.769531 -11.15625 27.394531 -12.160156 28.9375 -14.171875 C 30.488281 -16.191406 31.613281 -18.867188 32.3125 -22.203125 L 36.609375 -43.59375 C 33.359375 -43.507812 30.359375 -42.285156 27.609375 -39.921875 C 24.859375 -37.554688 22.664062 -34.4375 21.03125 -30.5625 C 19.40625 -26.695312 18.59375 -22.59375 18.59375 -18.25 C 18.59375 -15.84375 19.078125 -14.054688 20.046875 -12.890625 C 21.015625 -11.734375 22.351562 -11.15625 24.0625 -11.15625 Z M 24.0625 -11.15625 "/></g></g><g style="fill:rgb(94.509888%,59.999084%,32.548523%);fill-opacity:0.302;"><g transform="translate(207.947895, 112.032139)"><path style="stroke:none;" d="M 57.421875 -25.921875 C 58.429688 -25.921875 59.222656 -25.453125 59.796875 -24.515625 C 60.378906 -23.585938 60.671875 -22.3125 60.671875 -20.6875 C 60.671875 -17.59375 59.9375 -15.191406 58.46875 -13.484375 C 55.132812 -9.378906 51.488281 -6.007812 47.53125 -3.375 C 43.582031 -0.738281 39.050781 0.578125 33.9375 0.578125 C 18.132812 0.578125 10.234375 -10.539062 10.234375 -32.78125 C 10.234375 -36.1875 10.347656 -39.632812 10.578125 -43.125 L 6.046875 -43.125 C 3.722656 -43.125 2.148438 -43.550781 1.328125 -44.40625 C 0.515625 -45.257812 0.109375 -46.613281 0.109375 -48.46875 C 0.109375 -52.8125 1.851562 -54.984375 5.34375 -54.984375 L 11.96875 -54.984375 C 13.289062 -63.503906 15.304688 -71.289062 18.015625 -78.34375 C 20.722656 -85.394531 23.992188 -91.007812 27.828125 -95.1875 C 31.671875 -99.375 35.800781 -101.46875 40.21875 -101.46875 C 43.46875 -101.46875 46.019531 -100.035156 47.875 -97.171875 C 49.738281 -94.304688 50.671875 -90.703125 50.671875 -86.359375 C 50.671875 -74.347656 45.632812 -63.890625 35.5625 -54.984375 L 48.59375 -54.984375 C 49.832031 -54.984375 50.722656 -54.707031 51.265625 -54.15625 C 51.804688 -53.613281 52.078125 -52.609375 52.078125 -51.140625 C 52.078125 -45.796875 47.695312 -43.125 38.9375 -43.125 L 24.765625 -43.125 C 24.609375 -39.25 24.53125 -36.226562 24.53125 -34.0625 C 24.53125 -26 25.476562 -20.335938 27.375 -17.078125 C 29.269531 -13.828125 32.269531 -12.203125 36.375 -12.203125 C 39.707031 -12.203125 42.648438 -13.207031 45.203125 -15.21875 C 47.765625 -17.238281 50.789062 -20.265625 54.28125 -24.296875 C 55.207031 -25.378906 56.253906 -25.921875 57.421875 -25.921875 Z M 37.078125 -90.3125 C 35.910156 -90.3125 34.609375 -88.859375 33.171875 -85.953125 C 31.742188 -83.046875 30.390625 -79.015625 29.109375 -73.859375 C 27.835938 -68.710938 26.773438 -63 25.921875 -56.71875 C 30.492188 -60.675781 33.921875 -65.113281 36.203125 -70.03125 C 38.492188 -74.945312 39.640625 -79.421875 39.640625 -83.453125 C 39.640625 -88.023438 38.785156 -90.3125 37.078125 -90.3125 Z M 37.078125 -90.3125 "/></g></g><g style="fill:rgb(94.509888%,59.999084%,32.548523%);fill-opacity:0.302;"><g transform="translate(253.62648, 112.032139)"><path style="stroke:none;" d="M 19.875 0.578125 C 15.070312 0.578125 11.234375 -1.160156 8.359375 -4.640625 C 5.492188 -8.128906 4.0625 -12.703125 4.0625 -18.359375 C 4.0625 -24.554688 5.492188 -30.425781 8.359375 -35.96875 C 11.234375 -41.507812 15.050781 -45.960938 19.8125 -49.328125 C 24.582031 -52.703125 29.640625 -54.390625 34.984375 -54.390625 C 36.691406 -54.390625 37.832031 -54.0625 38.40625 -53.40625 C 38.988281 -52.75 39.476562 -51.566406 39.875 -49.859375 C 41.5 -50.171875 43.203125 -50.328125 44.984375 -50.328125 C 48.773438 -50.328125 50.671875 -48.972656 50.671875 -46.265625 C 50.671875 -44.640625 50.09375 -40.765625 48.9375 -34.640625 C 47.15625 -25.722656 46.265625 -19.523438 46.265625 -16.046875 C 46.265625 -14.878906 46.550781 -13.945312 47.125 -13.25 C 47.707031 -12.550781 48.46875 -12.203125 49.40625 -12.203125 C 50.875 -12.203125 52.65625 -13.148438 54.75 -15.046875 C 56.84375 -16.953125 59.671875 -20.035156 63.234375 -24.296875 C 64.160156 -25.378906 65.207031 -25.921875 66.375 -25.921875 C 67.375 -25.921875 68.164062 -25.453125 68.75 -24.515625 C 69.332031 -23.585938 69.625 -22.3125 69.625 -20.6875 C 69.625 -17.59375 68.890625 -15.191406 67.421875 -13.484375 C 64.242188 -9.535156 60.867188 -6.203125 57.296875 -3.484375 C 53.734375 -0.773438 50.285156 0.578125 46.953125 0.578125 C 44.398438 0.578125 42.054688 -0.289062 39.921875 -2.03125 C 37.796875 -3.78125 36.191406 -6.164062 35.109375 -9.1875 C 31.078125 -2.675781 26 0.578125 19.875 0.578125 Z M 24.0625 -11.15625 C 25.769531 -11.15625 27.394531 -12.160156 28.9375 -14.171875 C 30.488281 -16.191406 31.613281 -18.867188 32.3125 -22.203125 L 36.609375 -43.59375 C 33.359375 -43.507812 30.359375 -42.285156 27.609375 -39.921875 C 24.859375 -37.554688 22.664062 -34.4375 21.03125 -30.5625 C 19.40625 -26.695312 18.59375 -22.59375 18.59375 -18.25 C 18.59375 -15.84375 19.078125 -14.054688 20.046875 -12.890625 C 21.015625 -11.734375 22.351562 -11.15625 24.0625 -11.15625 Z M 24.0625 -11.15625 "/></g></g><g style="fill:rgb(94.509888%,59.999084%,32.548523%);fill-opacity:0.302;"><g transform="translate(308.254825, 112.032139)"><path style="stroke:none;" d="M 27.203125 3.140625 C 23.171875 3.140625 20.085938 2.207031 17.953125 0.34375 C 15.828125 -1.507812 14.765625 -3.597656 14.765625 -5.921875 C 14.765625 -7.941406 15.5 -9.6875 16.96875 -11.15625 C 18.4375 -12.625 20.609375 -13.359375 23.484375 -13.359375 C 24.484375 -13.359375 25.660156 -13.257812 27.015625 -13.0625 C 28.378906 -12.875 29.410156 -12.742188 30.109375 -12.671875 C 30.023438 -14.679688 29.578125 -16.578125 28.765625 -18.359375 C 27.953125 -20.140625 26.925781 -21.863281 25.6875 -23.53125 C 24.445312 -25.195312 23.285156 -26.648438 22.203125 -27.890625 C 19.796875 -23.316406 17.410156 -19.519531 15.046875 -16.5 C 12.679688 -13.476562 10.109375 -10.613281 7.328125 -7.90625 C 5.929688 -6.507812 4.457031 -5.8125 2.90625 -5.8125 C 1.664062 -5.8125 0.660156 -6.253906 -0.109375 -7.140625 C -0.890625 -8.035156 -1.28125 -9.144531 -1.28125 -10.46875 C -1.28125 -12.007812 -0.738281 -13.441406 0.34375 -14.765625 L 1.859375 -16.625 C 6.117188 -21.894531 9.332031 -26.234375 11.5 -29.640625 C 12.820312 -31.890625 14.375 -34.890625 16.15625 -38.640625 C 17.9375 -42.398438 19.679688 -46.296875 21.390625 -50.328125 C 22.859375 -53.734375 25.914062 -55.4375 30.5625 -55.4375 C 32.738281 -55.4375 34.25 -55.242188 35.09375 -54.859375 C 35.945312 -54.472656 36.375 -53.851562 36.375 -53 C 36.375 -52.539062 36.21875 -51.804688 35.90625 -50.796875 C 35.601562 -49.785156 35.179688 -48.773438 34.640625 -47.765625 C 33.242188 -44.984375 32.546875 -42.625 32.546875 -40.6875 C 32.546875 -39.519531 32.953125 -38.238281 33.765625 -36.84375 C 34.578125 -35.445312 35.835938 -33.703125 37.546875 -31.609375 C 40.023438 -28.359375 41.898438 -25.585938 43.171875 -23.296875 C 44.453125 -21.015625 45.09375 -18.519531 45.09375 -15.8125 C 45.09375 -15.03125 45.015625 -13.941406 44.859375 -12.546875 C 48.660156 -14.023438 53.117188 -17.941406 58.234375 -24.296875 C 59.160156 -25.378906 60.207031 -25.921875 61.375 -25.921875 C 62.375 -25.921875 63.164062 -25.453125 63.75 -24.515625 C 64.332031 -23.585938 64.625 -22.3125 64.625 -20.6875 C 64.625 -17.738281 63.890625 -15.335938 62.421875 -13.484375 C 58.546875 -8.679688 54.84375 -5.40625 51.3125 -3.65625 C 47.789062 -1.914062 43.429688 -0.96875 38.234375 -0.8125 C 35.140625 1.820312 31.460938 3.140625 27.203125 3.140625 Z M 27.203125 3.140625 "/></g></g><g style="fill:rgb(94.509888%,59.999084%,32.548523%);fill-opacity:0.302;"><g transform="translate(357.885273, 112.032139)"><path style="stroke:none;" d=""/></g></g><g style="fill:rgb(94.509888%,59.999084%,32.548523%);fill-opacity:0.302;"><g transform="translate(388.686363, 112.032139)"><path style="stroke:none;" d="M 95.65625 -69.28125 C 95.65625 -62.6875 93.953125 -56.640625 90.546875 -51.140625 C 87.140625 -45.640625 82.179688 -41.144531 75.671875 -37.65625 C 69.160156 -34.164062 61.410156 -32.113281 52.421875 -31.5 L 47.421875 -3.484375 C 45.484375 7.285156 40.210938 12.671875 31.609375 12.671875 C 26.890625 12.671875 22.53125 11.273438 18.53125 8.484375 C 14.539062 5.691406 11.34375 1.429688 8.9375 -4.296875 C 6.539062 -10.035156 5.34375 -17.085938 5.34375 -25.453125 C 5.34375 -41.179688 7.878906 -54.523438 12.953125 -65.484375 C 18.035156 -76.453125 24.859375 -84.664062 33.421875 -90.125 C 41.984375 -95.59375 51.414062 -98.328125 61.71875 -98.328125 C 69 -98.328125 75.175781 -97.046875 80.25 -94.484375 C 85.332031 -91.929688 89.171875 -88.46875 91.765625 -84.09375 C 94.359375 -79.71875 95.65625 -74.78125 95.65625 -69.28125 Z M 54.515625 -43.46875 C 70.398438 -45.488281 78.34375 -53.742188 78.34375 -68.234375 C 78.34375 -73.347656 76.65625 -77.507812 73.28125 -80.71875 C 69.914062 -83.9375 64.707031 -85.546875 57.65625 -85.546875 C 49.675781 -85.546875 42.71875 -83.023438 36.78125 -77.984375 C 30.851562 -72.953125 26.28125 -65.960938 23.0625 -57.015625 C 19.851562 -48.066406 18.25 -37.859375 18.25 -26.390625 C 18.25 -21.578125 18.734375 -17.3125 19.703125 -13.59375 C 20.671875 -9.875 21.910156 -6.988281 23.421875 -4.9375 C 24.929688 -2.882812 26.382812 -1.859375 27.78125 -1.859375 C 29.71875 -1.859375 31.191406 -4.53125 32.203125 -9.875 L 36.03125 -31.84375 C 33.007812 -32.3125 31.691406 -32.503906 32.078125 -32.421875 C 29.753906 -32.816406 28.242188 -33.535156 27.546875 -34.578125 C 26.847656 -35.628906 26.5 -36.96875 26.5 -38.59375 C 26.5 -40.289062 26.984375 -41.644531 27.953125 -42.65625 C 28.921875 -43.664062 30.257812 -44.171875 31.96875 -44.171875 C 32.738281 -44.171875 33.316406 -44.128906 33.703125 -44.046875 C 35.566406 -43.742188 37.003906 -43.550781 38.015625 -43.46875 C 39.015625 -49.507812 40.445312 -57.609375 42.3125 -67.765625 C 42.769531 -70.398438 43.832031 -72.28125 45.5 -73.40625 C 47.164062 -74.53125 49.125 -75.09375 51.375 -75.09375 C 53.9375 -75.09375 55.773438 -74.609375 56.890625 -73.640625 C 58.015625 -72.671875 58.578125 -71.140625 58.578125 -69.046875 C 58.578125 -67.804688 58.5 -66.796875 58.34375 -66.015625 Z M 54.515625 -43.46875 "/></g></g><g style="fill:rgb(94.509888%,59.999084%,32.548523%);fill-opacity:0.302;"><g transform="translate(482.251912, 112.032139)"><path style="stroke:none;" d="M 20.8125 -61.84375 C 17.550781 -61.84375 15.109375 -62.597656 13.484375 -64.109375 C 11.859375 -65.617188 11.046875 -67.726562 11.046875 -70.4375 C 11.046875 -73.144531 12.109375 -75.410156 14.234375 -77.234375 C 16.367188 -79.054688 19.023438 -79.96875 22.203125 -79.96875 C 25.066406 -79.96875 27.390625 -79.269531 29.171875 -77.875 C 30.953125 -76.476562 31.84375 -74.503906 31.84375 -71.953125 C 31.84375 -68.847656 30.832031 -66.382812 28.8125 -64.5625 C 26.800781 -62.75 24.132812 -61.84375 20.8125 -61.84375 Z M 19.875 0.578125 C 14.84375 0.578125 11.179688 -1.203125 8.890625 -4.765625 C 6.609375 -8.328125 5.46875 -13.054688 5.46875 -18.953125 C 5.46875 -22.429688 5.910156 -26.898438 6.796875 -32.359375 C 7.691406 -37.828125 8.835938 -42.925781 10.234375 -47.65625 C 10.929688 -50.132812 11.859375 -51.835938 13.015625 -52.765625 C 14.179688 -53.703125 16.039062 -54.171875 18.59375 -54.171875 C 22.550781 -54.171875 24.53125 -52.851562 24.53125 -50.21875 C 24.53125 -48.28125 23.789062 -43.785156 22.3125 -36.734375 C 20.457031 -28.203125 19.53125 -22.425781 19.53125 -19.40625 C 19.53125 -17.082031 19.835938 -15.300781 20.453125 -14.0625 C 21.078125 -12.820312 22.125 -12.203125 23.59375 -12.203125 C 24.988281 -12.203125 26.734375 -13.171875 28.828125 -15.109375 C 30.921875 -17.046875 33.707031 -20.109375 37.1875 -24.296875 C 38.125 -25.378906 39.171875 -25.921875 40.328125 -25.921875 C 41.335938 -25.921875 42.132812 -25.453125 42.71875 -24.515625 C 43.300781 -23.585938 43.59375 -22.3125 43.59375 -20.6875 C 43.59375 -17.59375 42.851562 -15.191406 41.375 -13.484375 C 33.707031 -4.109375 26.539062 0.578125 19.875 0.578125 Z M 19.875 0.578125 "/></g></g><g style="fill:rgb(94.509888%,59.999084%,32.548523%);fill-opacity:0.302;"><g transform="translate(510.844597, 112.032139)"><path style="stroke:none;" d="M 65.09375 -25.6875 C 66.101562 -25.6875 66.894531 -25.203125 67.46875 -24.234375 C 68.050781 -23.265625 68.34375 -22.046875 68.34375 -20.578125 C 68.34375 -18.796875 68.070312 -17.398438 67.53125 -16.390625 C 66.988281 -15.378906 66.132812 -14.488281 64.96875 -13.71875 C 58.3125 -9.21875 53.429688 -5.882812 50.328125 -3.71875 L 42.890625 1.28125 C 39.941406 17.320312 36.082031 29.929688 31.3125 39.109375 C 26.550781 48.296875 20.492188 52.890625 13.140625 52.890625 C 9.179688 52.890625 5.960938 51.664062 3.484375 49.21875 C 1.003906 46.78125 -0.234375 43.585938 -0.234375 39.640625 C -0.234375 34.140625 1.929688 28.226562 6.265625 21.90625 C 10.609375 15.59375 18.75 7.828125 30.6875 -1.390625 L 31.390625 -5.921875 C 30.066406 -3.835938 28.335938 -2.234375 26.203125 -1.109375 C 24.078125 0.015625 21.96875 0.578125 19.875 0.578125 C 15.070312 0.578125 11.234375 -1.160156 8.359375 -4.640625 C 5.492188 -8.128906 4.0625 -12.703125 4.0625 -18.359375 C 4.0625 -24.554688 5.492188 -30.425781 8.359375 -35.96875 C 11.234375 -41.507812 15.050781 -45.960938 19.8125 -49.328125 C 24.582031 -52.703125 29.640625 -54.390625 34.984375 -54.390625 C 36.691406 -54.390625 37.832031 -54.0625 38.40625 -53.40625 C 38.988281 -52.75 39.476562 -51.566406 39.875 -49.859375 C 41.34375 -50.171875 43.046875 -50.328125 44.984375 -50.328125 C 46.921875 -50.328125 48.296875 -50.035156 49.109375 -49.453125 C 49.921875 -48.878906 50.328125 -47.738281 50.328125 -46.03125 C 50.328125 -45.101562 50.289062 -44.367188 50.21875 -43.828125 C 49.90625 -41.421875 48.9375 -35.335938 47.3125 -25.578125 C 47 -23.710938 46.664062 -21.675781 46.3125 -19.46875 C 45.96875 -17.257812 45.601562 -14.914062 45.21875 -12.4375 C 51.1875 -17.082031 56.921875 -21.191406 62.421875 -24.765625 C 63.421875 -25.378906 64.3125 -25.6875 65.09375 -25.6875 Z M 24.0625 -11.15625 C 25.84375 -11.15625 27.546875 -12.238281 29.171875 -14.40625 C 30.796875 -16.582031 31.957031 -19.6875 32.65625 -23.71875 L 36.375 -43.59375 C 33.195312 -43.507812 30.253906 -42.285156 27.546875 -39.921875 C 24.835938 -37.554688 22.664062 -34.4375 21.03125 -30.5625 C 19.40625 -26.695312 18.59375 -22.59375 18.59375 -18.25 C 18.59375 -15.84375 19.078125 -14.054688 20.046875 -12.890625 C 21.015625 -11.734375 22.351562 -11.15625 24.0625 -11.15625 Z M 14.40625 41.609375 C 16.34375 41.609375 18.53125 39.28125 20.96875 34.625 C 23.414062 29.976562 25.765625 22.582031 28.015625 12.4375 C 22.046875 17.550781 17.742188 22.160156 15.109375 26.265625 C 12.472656 30.367188 11.15625 33.972656 11.15625 37.078125 C 11.15625 38.398438 11.40625 39.484375 11.90625 40.328125 C 12.414062 41.179688 13.25 41.609375 14.40625 41.609375 Z M 14.40625 41.609375 "/></g></g><g style="fill:rgb(94.509888%,59.999084%,32.548523%);fill-opacity:0.302;"><g transform="translate(566.519015, 112.032139)"><path style="stroke:none;" d="M 19.875 0.578125 C 15.070312 0.578125 11.234375 -1.160156 8.359375 -4.640625 C 5.492188 -8.128906 4.0625 -12.703125 4.0625 -18.359375 C 4.0625 -24.554688 5.492188 -30.425781 8.359375 -35.96875 C 11.234375 -41.507812 15.050781 -45.960938 19.8125 -49.328125 C 24.582031 -52.703125 29.640625 -54.390625 34.984375 -54.390625 C 36.691406 -54.390625 37.832031 -54.0625 38.40625 -53.40625 C 38.988281 -52.75 39.476562 -51.566406 39.875 -49.859375 C 41.5 -50.171875 43.203125 -50.328125 44.984375 -50.328125 C 48.773438 -50.328125 50.671875 -48.972656 50.671875 -46.265625 C 50.671875 -44.640625 50.09375 -40.765625 48.9375 -34.640625 C 47.15625 -25.722656 46.265625 -19.523438 46.265625 -16.046875 C 46.265625 -14.878906 46.550781 -13.945312 47.125 -13.25 C 47.707031 -12.550781 48.46875 -12.203125 49.40625 -12.203125 C 50.875 -12.203125 52.65625 -13.148438 54.75 -15.046875 C 56.84375 -16.953125 59.671875 -20.035156 63.234375 -24.296875 C 64.160156 -25.378906 65.207031 -25.921875 66.375 -25.921875 C 67.375 -25.921875 68.164062 -25.453125 68.75 -24.515625 C 69.332031 -23.585938 69.625 -22.3125 69.625 -20.6875 C 69.625 -17.59375 68.890625 -15.191406 67.421875 -13.484375 C 64.242188 -9.535156 60.867188 -6.203125 57.296875 -3.484375 C 53.734375 -0.773438 50.285156 0.578125 46.953125 0.578125 C 44.398438 0.578125 42.054688 -0.289062 39.921875 -2.03125 C 37.796875 -3.78125 36.191406 -6.164062 35.109375 -9.1875 C 31.078125 -2.675781 26 0.578125 19.875 0.578125 Z M 24.0625 -11.15625 C 25.769531 -11.15625 27.394531 -12.160156 28.9375 -14.171875 C 30.488281 -16.191406 31.613281 -18.867188 32.3125 -22.203125 L 36.609375 -43.59375 C 33.359375 -43.507812 30.359375 -42.285156 27.609375 -39.921875 C 24.859375 -37.554688 22.664062 -34.4375 21.03125 -30.5625 C 19.40625 -26.695312 18.59375 -22.59375 18.59375 -18.25 C 18.59375 -15.84375 19.078125 -14.054688 20.046875 -12.890625 C 21.015625 -11.734375 22.351562 -11.15625 24.0625 -11.15625 Z M 24.0625 -11.15625 "/></g></g><g style="fill:rgb(94.509888%,59.999084%,32.548523%);fill-opacity:0.302;"><g transform="translate(621.14736, 112.032139)"><path style="stroke:none;" d="M 65.09375 -25.6875 C 66.101562 -25.6875 66.894531 -25.203125 67.46875 -24.234375 C 68.050781 -23.265625 68.34375 -22.046875 68.34375 -20.578125 C 68.34375 -18.796875 68.070312 -17.398438 67.53125 -16.390625 C 66.988281 -15.378906 66.132812 -14.488281 64.96875 -13.71875 C 58.3125 -9.21875 53.429688 -5.882812 50.328125 -3.71875 L 42.890625 1.28125 C 39.941406 17.320312 36.082031 29.929688 31.3125 39.109375 C 26.550781 48.296875 20.492188 52.890625 13.140625 52.890625 C 9.179688 52.890625 5.960938 51.664062 3.484375 49.21875 C 1.003906 46.78125 -0.234375 43.585938 -0.234375 39.640625 C -0.234375 34.140625 1.929688 28.226562 6.265625 21.90625 C 10.609375 15.59375 18.75 7.828125 30.6875 -1.390625 L 31.390625 -5.921875 C 30.066406 -3.835938 28.335938 -2.234375 26.203125 -1.109375 C 24.078125 0.015625 21.96875 0.578125 19.875 0.578125 C 15.070312 0.578125 11.234375 -1.160156 8.359375 -4.640625 C 5.492188 -8.128906 4.0625 -12.703125 4.0625 -18.359375 C 4.0625 -24.554688 5.492188 -30.425781 8.359375 -35.96875 C 11.234375 -41.507812 15.050781 -45.960938 19.8125 -49.328125 C 24.582031 -52.703125 29.640625 -54.390625 34.984375 -54.390625 C 36.691406 -54.390625 37.832031 -54.0625 38.40625 -53.40625 C 38.988281 -52.75 39.476562 -51.566406 39.875 -49.859375 C 41.34375 -50.171875 43.046875 -50.328125 44.984375 -50.328125 C 46.921875 -50.328125 48.296875 -50.035156 49.109375 -49.453125 C 49.921875 -48.878906 50.328125 -47.738281 50.328125 -46.03125 C 50.328125 -45.101562 50.289062 -44.367188 50.21875 -43.828125 C 49.90625 -41.421875 48.9375 -35.335938 47.3125 -25.578125 C 47 -23.710938 46.664062 -21.675781 46.3125 -19.46875 C 45.96875 -17.257812 45.601562 -14.914062 45.21875 -12.4375 C 51.1875 -17.082031 56.921875 -21.191406 62.421875 -24.765625 C 63.421875 -25.378906 64.3125 -25.6875 65.09375 -25.6875 Z M 24.0625 -11.15625 C 25.84375 -11.15625 27.546875 -12.238281 29.171875 -14.40625 C 30.796875 -16.582031 31.957031 -19.6875 32.65625 -23.71875 L 36.375 -43.59375 C 33.195312 -43.507812 30.253906 -42.285156 27.546875 -39.921875 C 24.835938 -37.554688 22.664062 -34.4375 21.03125 -30.5625 C 19.40625 -26.695312 18.59375 -22.59375 18.59375 -18.25 C 18.59375 -15.84375 19.078125 -14.054688 20.046875 -12.890625 C 21.015625 -11.734375 22.351562 -11.15625 24.0625 -11.15625 Z M 14.40625 41.609375 C 16.34375 41.609375 18.53125 39.28125 20.96875 34.625 C 23.414062 29.976562 25.765625 22.582031 28.015625 12.4375 C 22.046875 17.550781 17.742188 22.160156 15.109375 26.265625 C 12.472656 30.367188 11.15625 33.972656 11.15625 37.078125 C 11.15625 38.398438 11.40625 39.484375 11.90625 40.328125 C 12.414062 41.179688 13.25 41.609375 14.40625 41.609375 Z M 14.40625 41.609375 "/></g></g><g style="fill:rgb(94.509888%,59.999084%,32.548523%);fill-opacity:0.302;"><g transform="translate(676.821778, 112.032139)"><path style="stroke:none;" d="M 19.875 0.578125 C 15.070312 0.578125 11.234375 -1.160156 8.359375 -4.640625 C 5.492188 -8.128906 4.0625 -12.703125 4.0625 -18.359375 C 4.0625 -24.554688 5.492188 -30.425781 8.359375 -35.96875 C 11.234375 -41.507812 15.050781 -45.960938 19.8125 -49.328125 C 24.582031 -52.703125 29.640625 -54.390625 34.984375 -54.390625 C 36.691406 -54.390625 37.832031 -54.0625 38.40625 -53.40625 C 38.988281 -52.75 39.476562 -51.566406 39.875 -49.859375 C 41.5 -50.171875 43.203125 -50.328125 44.984375 -50.328125 C 48.773438 -50.328125 50.671875 -48.972656 50.671875 -46.265625 C 50.671875 -44.640625 50.09375 -40.765625 48.9375 -34.640625 C 47.15625 -25.722656 46.265625 -19.523438 46.265625 -16.046875 C 46.265625 -14.878906 46.550781 -13.945312 47.125 -13.25 C 47.707031 -12.550781 48.46875 -12.203125 49.40625 -12.203125 C 50.875 -12.203125 52.65625 -13.148438 54.75 -15.046875 C 56.84375 -16.953125 59.671875 -20.035156 63.234375 -24.296875 C 64.160156 -25.378906 65.207031 -25.921875 66.375 -25.921875 C 67.375 -25.921875 68.164062 -25.453125 68.75 -24.515625 C 69.332031 -23.585938 69.625 -22.3125 69.625 -20.6875 C 69.625 -17.59375 68.890625 -15.191406 67.421875 -13.484375 C 64.242188 -9.535156 60.867188 -6.203125 57.296875 -3.484375 C 53.734375 -0.773438 50.285156 0.578125 46.953125 0.578125 C 44.398438 0.578125 42.054688 -0.289062 39.921875 -2.03125 C 37.796875 -3.78125 36.191406 -6.164062 35.109375 -9.1875 C 31.078125 -2.675781 26 0.578125 19.875 0.578125 Z M 24.0625 -11.15625 C 25.769531 -11.15625 27.394531 -12.160156 28.9375 -14.171875 C 30.488281 -16.191406 31.613281 -18.867188 32.3125 -22.203125 L 36.609375 -43.59375 C 33.359375 -43.507812 30.359375 -42.285156 27.609375 -39.921875 C 24.859375 -37.554688 22.664062 -34.4375 21.03125 -30.5625 C 19.40625 -26.695312 18.59375 -22.59375 18.59375 -18.25 C 18.59375 -15.84375 19.078125 -14.054688 20.046875 -12.890625 C 21.015625 -11.734375 22.351562 -11.15625 24.0625 -11.15625 Z M 24.0625 -11.15625 "/></g></g><g style="fill:rgb(94.509888%,59.999084%,32.548523%);fill-opacity:0.502;"><g transform="translate(7.041368, 108.949994)"><path style="stroke:none;" d="M 26.96875 0.578125 C 24.101562 0.578125 22.050781 -0.0546875 20.8125 -1.328125 C 19.570312 -2.609375 18.953125 -5.03125 18.953125 -8.59375 C 18.953125 -11 19.203125 -14.082031 19.703125 -17.84375 C 20.203125 -21.601562 21.035156 -26.773438 22.203125 -33.359375 C 24.210938 -45.523438 25.800781 -56.0625 26.96875 -64.96875 C 27.664062 -70.550781 28.015625 -75.203125 28.015625 -78.921875 C 28.015625 -82.410156 26.734375 -84.15625 24.171875 -84.15625 C 22.160156 -84.15625 19.738281 -83.128906 16.90625 -81.078125 C 14.082031 -79.023438 10.96875 -75.75 7.5625 -71.25 C 6.46875 -69.78125 5.265625 -69.046875 3.953125 -69.046875 C 2.867188 -69.046875 1.921875 -69.566406 1.109375 -70.609375 C 0.296875 -71.660156 -0.109375 -72.84375 -0.109375 -74.15625 C -0.109375 -75.394531 0.140625 -76.65625 0.640625 -77.9375 C 1.140625 -79.21875 1.972656 -80.671875 3.140625 -82.296875 C 6.859375 -87.484375 11.003906 -91.488281 15.578125 -94.3125 C 20.148438 -97.144531 24.722656 -98.5625 29.296875 -98.5625 C 33.554688 -98.5625 36.828125 -97.207031 39.109375 -94.5 C 41.398438 -91.789062 42.546875 -87.835938 42.546875 -82.640625 C 42.546875 -80.546875 42.347656 -78.082031 41.953125 -75.25 C 41.566406 -72.425781 41.21875 -70.125 40.90625 -68.34375 C 40.601562 -66.5625 40.375 -65.320312 40.21875 -64.625 C 44.632812 -77.257812 49.59375 -86.070312 55.09375 -91.0625 C 60.59375 -96.0625 66.640625 -98.5625 73.234375 -98.5625 C 78.265625 -98.5625 82.234375 -96.78125 85.140625 -93.21875 C 88.046875 -89.65625 89.5 -84.617188 89.5 -78.109375 C 89.5 -75.554688 89.148438 -72.378906 88.453125 -68.578125 C 92.328125 -79.273438 96.859375 -86.945312 102.046875 -91.59375 C 107.242188 -96.238281 113.210938 -98.5625 119.953125 -98.5625 C 125.378906 -98.5625 129.546875 -96.816406 132.453125 -93.328125 C 135.359375 -89.847656 136.8125 -84.96875 136.8125 -78.6875 C 136.8125 -75.28125 136.304688 -71.132812 135.296875 -66.25 L 128.203125 -33.015625 C 127.429688 -29.140625 127.046875 -25.804688 127.046875 -23.015625 C 127.046875 -19.753906 127.800781 -17.3125 129.3125 -15.6875 C 130.820312 -14.0625 132.929688 -13.25 135.640625 -13.25 C 138.203125 -13.25 140.703125 -14.097656 143.140625 -15.796875 C 145.578125 -17.503906 148.460938 -20.335938 151.796875 -24.296875 C 152.734375 -25.378906 153.78125 -25.921875 154.9375 -25.921875 C 155.945312 -25.921875 156.738281 -25.453125 157.3125 -24.515625 C 157.894531 -23.585938 158.1875 -22.3125 158.1875 -20.6875 C 158.1875 -17.664062 157.453125 -15.265625 155.984375 -13.484375 C 151.953125 -8.597656 147.960938 -5.03125 144.015625 -2.78125 C 140.066406 -0.539062 135.921875 0.578125 131.578125 0.578125 C 124.992188 0.578125 119.835938 -1.375 116.109375 -5.28125 C 112.390625 -9.195312 110.53125 -14.445312 110.53125 -21.03125 C 110.53125 -25.601562 111.460938 -32.234375 113.328125 -40.921875 L 117.984375 -62.1875 C 118.128906 -62.882812 118.394531 -64.125 118.78125 -65.90625 C 119.175781 -67.6875 119.488281 -69.367188 119.71875 -70.953125 C 119.945312 -72.546875 120.0625 -74.117188 120.0625 -75.671875 C 120.0625 -78.378906 119.539062 -80.410156 118.5 -81.765625 C 117.457031 -83.128906 115.96875 -83.8125 114.03125 -83.8125 C 110.382812 -83.8125 106.566406 -81.460938 102.578125 -76.765625 C 98.585938 -72.078125 94.789062 -64.304688 91.1875 -53.453125 C 87.582031 -42.609375 84.65625 -28.507812 82.40625 -11.15625 C 81.863281 -6.507812 80.914062 -3.390625 79.5625 -1.796875 C 78.207031 -0.210938 76.019531 0.578125 73 0.578125 C 70.363281 0.578125 68.441406 -0.0390625 67.234375 -1.28125 C 66.035156 -2.519531 65.4375 -4.84375 65.4375 -8.25 C 65.4375 -11.425781 65.863281 -15.59375 66.71875 -20.75 C 67.570312 -25.90625 68.65625 -31.96875 69.96875 -38.9375 C 73.53125 -57.6875 75.3125 -69.773438 75.3125 -75.203125 C 75.3125 -78.148438 74.75 -80.320312 73.625 -81.71875 C 72.507812 -83.113281 70.828125 -83.8125 68.578125 -83.8125 C 64.773438 -83.8125 60.859375 -81.660156 56.828125 -77.359375 C 52.804688 -73.054688 48.875 -65.421875 45.03125 -54.453125 C 41.195312 -43.492188 38.003906 -28.675781 35.453125 -10 C 34.910156 -6.039062 34.113281 -3.285156 33.0625 -1.734375 C 32.019531 -0.191406 29.988281 0.578125 26.96875 0.578125 Z M 26.96875 0.578125 "/></g></g><g style="fill:rgb(94.509888%,59.999084%,32.548523%);fill-opacity:0.502;"><g transform="translate(150.237391, 108.949994)"><path style="stroke:none;" d="M 19.875 0.578125 C 15.070312 0.578125 11.234375 -1.160156 8.359375 -4.640625 C 5.492188 -8.128906 4.0625 -12.703125 4.0625 -18.359375 C 4.0625 -24.554688 5.492188 -30.425781 8.359375 -35.96875 C 11.234375 -41.507812 15.050781 -45.960938 19.8125 -49.328125 C 24.582031 -52.703125 29.640625 -54.390625 34.984375 -54.390625 C 36.691406 -54.390625 37.832031 -54.0625 38.40625 -53.40625 C 38.988281 -52.75 39.476562 -51.566406 39.875 -49.859375 C 41.5 -50.171875 43.203125 -50.328125 44.984375 -50.328125 C 48.773438 -50.328125 50.671875 -48.972656 50.671875 -46.265625 C 50.671875 -44.640625 50.09375 -40.765625 48.9375 -34.640625 C 47.15625 -25.722656 46.265625 -19.523438 46.265625 -16.046875 C 46.265625 -14.878906 46.550781 -13.945312 47.125 -13.25 C 47.707031 -12.550781 48.46875 -12.203125 49.40625 -12.203125 C 50.875 -12.203125 52.65625 -13.148438 54.75 -15.046875 C 56.84375 -16.953125 59.671875 -20.035156 63.234375 -24.296875 C 64.160156 -25.378906 65.207031 -25.921875 66.375 -25.921875 C 67.375 -25.921875 68.164062 -25.453125 68.75 -24.515625 C 69.332031 -23.585938 69.625 -22.3125 69.625 -20.6875 C 69.625 -17.59375 68.890625 -15.191406 67.421875 -13.484375 C 64.242188 -9.535156 60.867188 -6.203125 57.296875 -3.484375 C 53.734375 -0.773438 50.285156 0.578125 46.953125 0.578125 C 44.398438 0.578125 42.054688 -0.289062 39.921875 -2.03125 C 37.796875 -3.78125 36.191406 -6.164062 35.109375 -9.1875 C 31.078125 -2.675781 26 0.578125 19.875 0.578125 Z M 24.0625 -11.15625 C 25.769531 -11.15625 27.394531 -12.160156 28.9375 -14.171875 C 30.488281 -16.191406 31.613281 -18.867188 32.3125 -22.203125 L 36.609375 -43.59375 C 33.359375 -43.507812 30.359375 -42.285156 27.609375 -39.921875 C 24.859375 -37.554688 22.664062 -34.4375 21.03125 -30.5625 C 19.40625 -26.695312 18.59375 -22.59375 18.59375 -18.25 C 18.59375 -15.84375 19.078125 -14.054688 20.046875 -12.890625 C 21.015625 -11.734375 22.351562 -11.15625 24.0625 -11.15625 Z M 24.0625 -11.15625 "/></g></g><g style="fill:rgb(94.509888%,59.999084%,32.548523%);fill-opacity:0.502;"><g transform="translate(204.86575, 108.949994)"><path style="stroke:none;" d="M 57.421875 -25.921875 C 58.429688 -25.921875 59.222656 -25.453125 59.796875 -24.515625 C 60.378906 -23.585938 60.671875 -22.3125 60.671875 -20.6875 C 60.671875 -17.59375 59.9375 -15.191406 58.46875 -13.484375 C 55.132812 -9.378906 51.488281 -6.007812 47.53125 -3.375 C 43.582031 -0.738281 39.050781 0.578125 33.9375 0.578125 C 18.132812 0.578125 10.234375 -10.539062 10.234375 -32.78125 C 10.234375 -36.1875 10.347656 -39.632812 10.578125 -43.125 L 6.046875 -43.125 C 3.722656 -43.125 2.148438 -43.550781 1.328125 -44.40625 C 0.515625 -45.257812 0.109375 -46.613281 0.109375 -48.46875 C 0.109375 -52.8125 1.851562 -54.984375 5.34375 -54.984375 L 11.96875 -54.984375 C 13.289062 -63.503906 15.304688 -71.289062 18.015625 -78.34375 C 20.722656 -85.394531 23.992188 -91.007812 27.828125 -95.1875 C 31.671875 -99.375 35.800781 -101.46875 40.21875 -101.46875 C 43.46875 -101.46875 46.019531 -100.035156 47.875 -97.171875 C 49.738281 -94.304688 50.671875 -90.703125 50.671875 -86.359375 C 50.671875 -74.347656 45.632812 -63.890625 35.5625 -54.984375 L 48.59375 -54.984375 C 49.832031 -54.984375 50.722656 -54.707031 51.265625 -54.15625 C 51.804688 -53.613281 52.078125 -52.609375 52.078125 -51.140625 C 52.078125 -45.796875 47.695312 -43.125 38.9375 -43.125 L 24.765625 -43.125 C 24.609375 -39.25 24.53125 -36.226562 24.53125 -34.0625 C 24.53125 -26 25.476562 -20.335938 27.375 -17.078125 C 29.269531 -13.828125 32.269531 -12.203125 36.375 -12.203125 C 39.707031 -12.203125 42.648438 -13.207031 45.203125 -15.21875 C 47.765625 -17.238281 50.789062 -20.265625 54.28125 -24.296875 C 55.207031 -25.378906 56.253906 -25.921875 57.421875 -25.921875 Z M 37.078125 -90.3125 C 35.910156 -90.3125 34.609375 -88.859375 33.171875 -85.953125 C 31.742188 -83.046875 30.390625 -79.015625 29.109375 -73.859375 C 27.835938 -68.710938 26.773438 -63 25.921875 -56.71875 C 30.492188 -60.675781 33.921875 -65.113281 36.203125 -70.03125 C 38.492188 -74.945312 39.640625 -79.421875 39.640625 -83.453125 C 39.640625 -88.023438 38.785156 -90.3125 37.078125 -90.3125 Z M 37.078125 -90.3125 "/></g></g><g style="fill:rgb(94.509888%,59.999084%,32.548523%);fill-opacity:0.502;"><g transform="translate(250.544335, 108.949994)"><path style="stroke:none;" d="M 19.875 0.578125 C 15.070312 0.578125 11.234375 -1.160156 8.359375 -4.640625 C 5.492188 -8.128906 4.0625 -12.703125 4.0625 -18.359375 C 4.0625 -24.554688 5.492188 -30.425781 8.359375 -35.96875 C 11.234375 -41.507812 15.050781 -45.960938 19.8125 -49.328125 C 24.582031 -52.703125 29.640625 -54.390625 34.984375 -54.390625 C 36.691406 -54.390625 37.832031 -54.0625 38.40625 -53.40625 C 38.988281 -52.75 39.476562 -51.566406 39.875 -49.859375 C 41.5 -50.171875 43.203125 -50.328125 44.984375 -50.328125 C 48.773438 -50.328125 50.671875 -48.972656 50.671875 -46.265625 C 50.671875 -44.640625 50.09375 -40.765625 48.9375 -34.640625 C 47.15625 -25.722656 46.265625 -19.523438 46.265625 -16.046875 C 46.265625 -14.878906 46.550781 -13.945312 47.125 -13.25 C 47.707031 -12.550781 48.46875 -12.203125 49.40625 -12.203125 C 50.875 -12.203125 52.65625 -13.148438 54.75 -15.046875 C 56.84375 -16.953125 59.671875 -20.035156 63.234375 -24.296875 C 64.160156 -25.378906 65.207031 -25.921875 66.375 -25.921875 C 67.375 -25.921875 68.164062 -25.453125 68.75 -24.515625 C 69.332031 -23.585938 69.625 -22.3125 69.625 -20.6875 C 69.625 -17.59375 68.890625 -15.191406 67.421875 -13.484375 C 64.242188 -9.535156 60.867188 -6.203125 57.296875 -3.484375 C 53.734375 -0.773438 50.285156 0.578125 46.953125 0.578125 C 44.398438 0.578125 42.054688 -0.289062 39.921875 -2.03125 C 37.796875 -3.78125 36.191406 -6.164062 35.109375 -9.1875 C 31.078125 -2.675781 26 0.578125 19.875 0.578125 Z M 24.0625 -11.15625 C 25.769531 -11.15625 27.394531 -12.160156 28.9375 -14.171875 C 30.488281 -16.191406 31.613281 -18.867188 32.3125 -22.203125 L 36.609375 -43.59375 C 33.359375 -43.507812 30.359375 -42.285156 27.609375 -39.921875 C 24.859375 -37.554688 22.664062 -34.4375 21.03125 -30.5625 C 19.40625 -26.695312 18.59375 -22.59375 18.59375 -18.25 C 18.59375 -15.84375 19.078125 -14.054688 20.046875 -12.890625 C 21.015625 -11.734375 22.351562 -11.15625 24.0625 -11.15625 Z M 24.0625 -11.15625 "/></g></g><g style="fill:rgb(94.509888%,59.999084%,32.548523%);fill-opacity:0.502;"><g transform="translate(305.17268, 108.949994)"><path style="stroke:none;" d="M 27.203125 3.140625 C 23.171875 3.140625 20.085938 2.207031 17.953125 0.34375 C 15.828125 -1.507812 14.765625 -3.597656 14.765625 -5.921875 C 14.765625 -7.941406 15.5 -9.6875 16.96875 -11.15625 C 18.4375 -12.625 20.609375 -13.359375 23.484375 -13.359375 C 24.484375 -13.359375 25.660156 -13.257812 27.015625 -13.0625 C 28.378906 -12.875 29.410156 -12.742188 30.109375 -12.671875 C 30.023438 -14.679688 29.578125 -16.578125 28.765625 -18.359375 C 27.953125 -20.140625 26.925781 -21.863281 25.6875 -23.53125 C 24.445312 -25.195312 23.285156 -26.648438 22.203125 -27.890625 C 19.796875 -23.316406 17.410156 -19.519531 15.046875 -16.5 C 12.679688 -13.476562 10.109375 -10.613281 7.328125 -7.90625 C 5.929688 -6.507812 4.457031 -5.8125 2.90625 -5.8125 C 1.664062 -5.8125 0.660156 -6.253906 -0.109375 -7.140625 C -0.890625 -8.035156 -1.28125 -9.144531 -1.28125 -10.46875 C -1.28125 -12.007812 -0.738281 -13.441406 0.34375 -14.765625 L 1.859375 -16.625 C 6.117188 -21.894531 9.332031 -26.234375 11.5 -29.640625 C 12.820312 -31.890625 14.375 -34.890625 16.15625 -38.640625 C 17.9375 -42.398438 19.679688 -46.296875 21.390625 -50.328125 C 22.859375 -53.734375 25.914062 -55.4375 30.5625 -55.4375 C 32.738281 -55.4375 34.25 -55.242188 35.09375 -54.859375 C 35.945312 -54.472656 36.375 -53.851562 36.375 -53 C 36.375 -52.539062 36.21875 -51.804688 35.90625 -50.796875 C 35.601562 -49.785156 35.179688 -48.773438 34.640625 -47.765625 C 33.242188 -44.984375 32.546875 -42.625 32.546875 -40.6875 C 32.546875 -39.519531 32.953125 -38.238281 33.765625 -36.84375 C 34.578125 -35.445312 35.835938 -33.703125 37.546875 -31.609375 C 40.023438 -28.359375 41.898438 -25.585938 43.171875 -23.296875 C 44.453125 -21.015625 45.09375 -18.519531 45.09375 -15.8125 C 45.09375 -15.03125 45.015625 -13.941406 44.859375 -12.546875 C 48.660156 -14.023438 53.117188 -17.941406 58.234375 -24.296875 C 59.160156 -25.378906 60.207031 -25.921875 61.375 -25.921875 C 62.375 -25.921875 63.164062 -25.453125 63.75 -24.515625 C 64.332031 -23.585938 64.625 -22.3125 64.625 -20.6875 C 64.625 -17.738281 63.890625 -15.335938 62.421875 -13.484375 C 58.546875 -8.679688 54.84375 -5.40625 51.3125 -3.65625 C 47.789062 -1.914062 43.429688 -0.96875 38.234375 -0.8125 C 35.140625 1.820312 31.460938 3.140625 27.203125 3.140625 Z M 27.203125 3.140625 "/></g></g><g style="fill:rgb(94.509888%,59.999084%,32.548523%);fill-opacity:0.502;"><g transform="translate(354.803129, 108.949994)"><path style="stroke:none;" d=""/></g></g><g style="fill:rgb(94.509888%,59.999084%,32.548523%);fill-opacity:0.502;"><g transform="translate(385.604218, 108.949994)"><path style="stroke:none;" d="M 95.65625 -69.28125 C 95.65625 -62.6875 93.953125 -56.640625 90.546875 -51.140625 C 87.140625 -45.640625 82.179688 -41.144531 75.671875 -37.65625 C 69.160156 -34.164062 61.410156 -32.113281 52.421875 -31.5 L 47.421875 -3.484375 C 45.484375 7.285156 40.210938 12.671875 31.609375 12.671875 C 26.890625 12.671875 22.53125 11.273438 18.53125 8.484375 C 14.539062 5.691406 11.34375 1.429688 8.9375 -4.296875 C 6.539062 -10.035156 5.34375 -17.085938 5.34375 -25.453125 C 5.34375 -41.179688 7.878906 -54.523438 12.953125 -65.484375 C 18.035156 -76.453125 24.859375 -84.664062 33.421875 -90.125 C 41.984375 -95.59375 51.414062 -98.328125 61.71875 -98.328125 C 69 -98.328125 75.175781 -97.046875 80.25 -94.484375 C 85.332031 -91.929688 89.171875 -88.46875 91.765625 -84.09375 C 94.359375 -79.71875 95.65625 -74.78125 95.65625 -69.28125 Z M 54.515625 -43.46875 C 70.398438 -45.488281 78.34375 -53.742188 78.34375 -68.234375 C 78.34375 -73.347656 76.65625 -77.507812 73.28125 -80.71875 C 69.914062 -83.9375 64.707031 -85.546875 57.65625 -85.546875 C 49.675781 -85.546875 42.71875 -83.023438 36.78125 -77.984375 C 30.851562 -72.953125 26.28125 -65.960938 23.0625 -57.015625 C 19.851562 -48.066406 18.25 -37.859375 18.25 -26.390625 C 18.25 -21.578125 18.734375 -17.3125 19.703125 -13.59375 C 20.671875 -9.875 21.910156 -6.988281 23.421875 -4.9375 C 24.929688 -2.882812 26.382812 -1.859375 27.78125 -1.859375 C 29.71875 -1.859375 31.191406 -4.53125 32.203125 -9.875 L 36.03125 -31.84375 C 33.007812 -32.3125 31.691406 -32.503906 32.078125 -32.421875 C 29.753906 -32.816406 28.242188 -33.535156 27.546875 -34.578125 C 26.847656 -35.628906 26.5 -36.96875 26.5 -38.59375 C 26.5 -40.289062 26.984375 -41.644531 27.953125 -42.65625 C 28.921875 -43.664062 30.257812 -44.171875 31.96875 -44.171875 C 32.738281 -44.171875 33.316406 -44.128906 33.703125 -44.046875 C 35.566406 -43.742188 37.003906 -43.550781 38.015625 -43.46875 C 39.015625 -49.507812 40.445312 -57.609375 42.3125 -67.765625 C 42.769531 -70.398438 43.832031 -72.28125 45.5 -73.40625 C 47.164062 -74.53125 49.125 -75.09375 51.375 -75.09375 C 53.9375 -75.09375 55.773438 -74.609375 56.890625 -73.640625 C 58.015625 -72.671875 58.578125 -71.140625 58.578125 -69.046875 C 58.578125 -67.804688 58.5 -66.796875 58.34375 -66.015625 Z M 54.515625 -43.46875 "/></g></g><g style="fill:rgb(94.509888%,59.999084%,32.548523%);fill-opacity:0.502;"><g transform="translate(479.169767, 108.949994)"><path style="stroke:none;" d="M 20.8125 -61.84375 C 17.550781 -61.84375 15.109375 -62.597656 13.484375 -64.109375 C 11.859375 -65.617188 11.046875 -67.726562 11.046875 -70.4375 C 11.046875 -73.144531 12.109375 -75.410156 14.234375 -77.234375 C 16.367188 -79.054688 19.023438 -79.96875 22.203125 -79.96875 C 25.066406 -79.96875 27.390625 -79.269531 29.171875 -77.875 C 30.953125 -76.476562 31.84375 -74.503906 31.84375 -71.953125 C 31.84375 -68.847656 30.832031 -66.382812 28.8125 -64.5625 C 26.800781 -62.75 24.132812 -61.84375 20.8125 -61.84375 Z M 19.875 0.578125 C 14.84375 0.578125 11.179688 -1.203125 8.890625 -4.765625 C 6.609375 -8.328125 5.46875 -13.054688 5.46875 -18.953125 C 5.46875 -22.429688 5.910156 -26.898438 6.796875 -32.359375 C 7.691406 -37.828125 8.835938 -42.925781 10.234375 -47.65625 C 10.929688 -50.132812 11.859375 -51.835938 13.015625 -52.765625 C 14.179688 -53.703125 16.039062 -54.171875 18.59375 -54.171875 C 22.550781 -54.171875 24.53125 -52.851562 24.53125 -50.21875 C 24.53125 -48.28125 23.789062 -43.785156 22.3125 -36.734375 C 20.457031 -28.203125 19.53125 -22.425781 19.53125 -19.40625 C 19.53125 -17.082031 19.835938 -15.300781 20.453125 -14.0625 C 21.078125 -12.820312 22.125 -12.203125 23.59375 -12.203125 C 24.988281 -12.203125 26.734375 -13.171875 28.828125 -15.109375 C 30.921875 -17.046875 33.707031 -20.109375 37.1875 -24.296875 C 38.125 -25.378906 39.171875 -25.921875 40.328125 -25.921875 C 41.335938 -25.921875 42.132812 -25.453125 42.71875 -24.515625 C 43.300781 -23.585938 43.59375 -22.3125 43.59375 -20.6875 C 43.59375 -17.59375 42.851562 -15.191406 41.375 -13.484375 C 33.707031 -4.109375 26.539062 0.578125 19.875 0.578125 Z M 19.875 0.578125 "/></g></g><g style="fill:rgb(94.509888%,59.999084%,32.548523%);fill-opacity:0.502;"><g transform="translate(507.762452, 108.949994)"><path style="stroke:none;" d="M 65.09375 -25.6875 C 66.101562 -25.6875 66.894531 -25.203125 67.46875 -24.234375 C 68.050781 -23.265625 68.34375 -22.046875 68.34375 -20.578125 C 68.34375 -18.796875 68.070312 -17.398438 67.53125 -16.390625 C 66.988281 -15.378906 66.132812 -14.488281 64.96875 -13.71875 C 58.3125 -9.21875 53.429688 -5.882812 50.328125 -3.71875 L 42.890625 1.28125 C 39.941406 17.320312 36.082031 29.929688 31.3125 39.109375 C 26.550781 48.296875 20.492188 52.890625 13.140625 52.890625 C 9.179688 52.890625 5.960938 51.664062 3.484375 49.21875 C 1.003906 46.78125 -0.234375 43.585938 -0.234375 39.640625 C -0.234375 34.140625 1.929688 28.226562 6.265625 21.90625 C 10.609375 15.59375 18.75 7.828125 30.6875 -1.390625 L 31.390625 -5.921875 C 30.066406 -3.835938 28.335938 -2.234375 26.203125 -1.109375 C 24.078125 0.015625 21.96875 0.578125 19.875 0.578125 C 15.070312 0.578125 11.234375 -1.160156 8.359375 -4.640625 C 5.492188 -8.128906 4.0625 -12.703125 4.0625 -18.359375 C 4.0625 -24.554688 5.492188 -30.425781 8.359375 -35.96875 C 11.234375 -41.507812 15.050781 -45.960938 19.8125 -49.328125 C 24.582031 -52.703125 29.640625 -54.390625 34.984375 -54.390625 C 36.691406 -54.390625 37.832031 -54.0625 38.40625 -53.40625 C 38.988281 -52.75 39.476562 -51.566406 39.875 -49.859375 C 41.34375 -50.171875 43.046875 -50.328125 44.984375 -50.328125 C 46.921875 -50.328125 48.296875 -50.035156 49.109375 -49.453125 C 49.921875 -48.878906 50.328125 -47.738281 50.328125 -46.03125 C 50.328125 -45.101562 50.289062 -44.367188 50.21875 -43.828125 C 49.90625 -41.421875 48.9375 -35.335938 47.3125 -25.578125 C 47 -23.710938 46.664062 -21.675781 46.3125 -19.46875 C 45.96875 -17.257812 45.601562 -14.914062 45.21875 -12.4375 C 51.1875 -17.082031 56.921875 -21.191406 62.421875 -24.765625 C 63.421875 -25.378906 64.3125 -25.6875 65.09375 -25.6875 Z M 24.0625 -11.15625 C 25.84375 -11.15625 27.546875 -12.238281 29.171875 -14.40625 C 30.796875 -16.582031 31.957031 -19.6875 32.65625 -23.71875 L 36.375 -43.59375 C 33.195312 -43.507812 30.253906 -42.285156 27.546875 -39.921875 C 24.835938 -37.554688 22.664062 -34.4375 21.03125 -30.5625 C 19.40625 -26.695312 18.59375 -22.59375 18.59375 -18.25 C 18.59375 -15.84375 19.078125 -14.054688 20.046875 -12.890625 C 21.015625 -11.734375 22.351562 -11.15625 24.0625 -11.15625 Z M 14.40625 41.609375 C 16.34375 41.609375 18.53125 39.28125 20.96875 34.625 C 23.414062 29.976562 25.765625 22.582031 28.015625 12.4375 C 22.046875 17.550781 17.742188 22.160156 15.109375 26.265625 C 12.472656 30.367188 11.15625 33.972656 11.15625 37.078125 C 11.15625 38.398438 11.40625 39.484375 11.90625 40.328125 C 12.414062 41.179688 13.25 41.609375 14.40625 41.609375 Z M 14.40625 41.609375 "/></g></g><g style="fill:rgb(94.509888%,59.999084%,32.548523%);fill-opacity:0.502;"><g transform="translate(563.43687, 108.949994)"><path style="stroke:none;" d="M 19.875 0.578125 C 15.070312 0.578125 11.234375 -1.160156 8.359375 -4.640625 C 5.492188 -8.128906 4.0625 -12.703125 4.0625 -18.359375 C 4.0625 -24.554688 5.492188 -30.425781 8.359375 -35.96875 C 11.234375 -41.507812 15.050781 -45.960938 19.8125 -49.328125 C 24.582031 -52.703125 29.640625 -54.390625 34.984375 -54.390625 C 36.691406 -54.390625 37.832031 -54.0625 38.40625 -53.40625 C 38.988281 -52.75 39.476562 -51.566406 39.875 -49.859375 C 41.5 -50.171875 43.203125 -50.328125 44.984375 -50.328125 C 48.773438 -50.328125 50.671875 -48.972656 50.671875 -46.265625 C 50.671875 -44.640625 50.09375 -40.765625 48.9375 -34.640625 C 47.15625 -25.722656 46.265625 -19.523438 46.265625 -16.046875 C 46.265625 -14.878906 46.550781 -13.945312 47.125 -13.25 C 47.707031 -12.550781 48.46875 -12.203125 49.40625 -12.203125 C 50.875 -12.203125 52.65625 -13.148438 54.75 -15.046875 C 56.84375 -16.953125 59.671875 -20.035156 63.234375 -24.296875 C 64.160156 -25.378906 65.207031 -25.921875 66.375 -25.921875 C 67.375 -25.921875 68.164062 -25.453125 68.75 -24.515625 C 69.332031 -23.585938 69.625 -22.3125 69.625 -20.6875 C 69.625 -17.59375 68.890625 -15.191406 67.421875 -13.484375 C 64.242188 -9.535156 60.867188 -6.203125 57.296875 -3.484375 C 53.734375 -0.773438 50.285156 0.578125 46.953125 0.578125 C 44.398438 0.578125 42.054688 -0.289062 39.921875 -2.03125 C 37.796875 -3.78125 36.191406 -6.164062 35.109375 -9.1875 C 31.078125 -2.675781 26 0.578125 19.875 0.578125 Z M 24.0625 -11.15625 C 25.769531 -11.15625 27.394531 -12.160156 28.9375 -14.171875 C 30.488281 -16.191406 31.613281 -18.867188 32.3125 -22.203125 L 36.609375 -43.59375 C 33.359375 -43.507812 30.359375 -42.285156 27.609375 -39.921875 C 24.859375 -37.554688 22.664062 -34.4375 21.03125 -30.5625 C 19.40625 -26.695312 18.59375 -22.59375 18.59375 -18.25 C 18.59375 -15.84375 19.078125 -14.054688 20.046875 -12.890625 C 21.015625 -11.734375 22.351562 -11.15625 24.0625 -11.15625 Z M 24.0625 -11.15625 "/></g></g><g style="fill:rgb(94.509888%,59.999084%,32.548523%);fill-opacity:0.502;"><g transform="translate(618.065215, 108.949994)"><path style="stroke:none;" d="M 65.09375 -25.6875 C 66.101562 -25.6875 66.894531 -25.203125 67.46875 -24.234375 C 68.050781 -23.265625 68.34375 -22.046875 68.34375 -20.578125 C 68.34375 -18.796875 68.070312 -17.398438 67.53125 -16.390625 C 66.988281 -15.378906 66.132812 -14.488281 64.96875 -13.71875 C 58.3125 -9.21875 53.429688 -5.882812 50.328125 -3.71875 L 42.890625 1.28125 C 39.941406 17.320312 36.082031 29.929688 31.3125 39.109375 C 26.550781 48.296875 20.492188 52.890625 13.140625 52.890625 C 9.179688 52.890625 5.960938 51.664062 3.484375 49.21875 C 1.003906 46.78125 -0.234375 43.585938 -0.234375 39.640625 C -0.234375 34.140625 1.929688 28.226562 6.265625 21.90625 C 10.609375 15.59375 18.75 7.828125 30.6875 -1.390625 L 31.390625 -5.921875 C 30.066406 -3.835938 28.335938 -2.234375 26.203125 -1.109375 C 24.078125 0.015625 21.96875 0.578125 19.875 0.578125 C 15.070312 0.578125 11.234375 -1.160156 8.359375 -4.640625 C 5.492188 -8.128906 4.0625 -12.703125 4.0625 -18.359375 C 4.0625 -24.554688 5.492188 -30.425781 8.359375 -35.96875 C 11.234375 -41.507812 15.050781 -45.960938 19.8125 -49.328125 C 24.582031 -52.703125 29.640625 -54.390625 34.984375 -54.390625 C 36.691406 -54.390625 37.832031 -54.0625 38.40625 -53.40625 C 38.988281 -52.75 39.476562 -51.566406 39.875 -49.859375 C 41.34375 -50.171875 43.046875 -50.328125 44.984375 -50.328125 C 46.921875 -50.328125 48.296875 -50.035156 49.109375 -49.453125 C 49.921875 -48.878906 50.328125 -47.738281 50.328125 -46.03125 C 50.328125 -45.101562 50.289062 -44.367188 50.21875 -43.828125 C 49.90625 -41.421875 48.9375 -35.335938 47.3125 -25.578125 C 47 -23.710938 46.664062 -21.675781 46.3125 -19.46875 C 45.96875 -17.257812 45.601562 -14.914062 45.21875 -12.4375 C 51.1875 -17.082031 56.921875 -21.191406 62.421875 -24.765625 C 63.421875 -25.378906 64.3125 -25.6875 65.09375 -25.6875 Z M 24.0625 -11.15625 C 25.84375 -11.15625 27.546875 -12.238281 29.171875 -14.40625 C 30.796875 -16.582031 31.957031 -19.6875 32.65625 -23.71875 L 36.375 -43.59375 C 33.195312 -43.507812 30.253906 -42.285156 27.546875 -39.921875 C 24.835938 -37.554688 22.664062 -34.4375 21.03125 -30.5625 C 19.40625 -26.695312 18.59375 -22.59375 18.59375 -18.25 C 18.59375 -15.84375 19.078125 -14.054688 20.046875 -12.890625 C 21.015625 -11.734375 22.351562 -11.15625 24.0625 -11.15625 Z M 14.40625 41.609375 C 16.34375 41.609375 18.53125 39.28125 20.96875 34.625 C 23.414062 29.976562 25.765625 22.582031 28.015625 12.4375 C 22.046875 17.550781 17.742188 22.160156 15.109375 26.265625 C 12.472656 30.367188 11.15625 33.972656 11.15625 37.078125 C 11.15625 38.398438 11.40625 39.484375 11.90625 40.328125 C 12.414062 41.179688 13.25 41.609375 14.40625 41.609375 Z M 14.40625 41.609375 "/></g></g><g style="fill:rgb(94.509888%,59.999084%,32.548523%);fill-opacity:0.502;"><g transform="translate(673.739633, 108.949994)"><path style="stroke:none;" d="M 19.875 0.578125 C 15.070312 0.578125 11.234375 -1.160156 8.359375 -4.640625 C 5.492188 -8.128906 4.0625 -12.703125 4.0625 -18.359375 C 4.0625 -24.554688 5.492188 -30.425781 8.359375 -35.96875 C 11.234375 -41.507812 15.050781 -45.960938 19.8125 -49.328125 C 24.582031 -52.703125 29.640625 -54.390625 34.984375 -54.390625 C 36.691406 -54.390625 37.832031 -54.0625 38.40625 -53.40625 C 38.988281 -52.75 39.476562 -51.566406 39.875 -49.859375 C 41.5 -50.171875 43.203125 -50.328125 44.984375 -50.328125 C 48.773438 -50.328125 50.671875 -48.972656 50.671875 -46.265625 C 50.671875 -44.640625 50.09375 -40.765625 48.9375 -34.640625 C 47.15625 -25.722656 46.265625 -19.523438 46.265625 -16.046875 C 46.265625 -14.878906 46.550781 -13.945312 47.125 -13.25 C 47.707031 -12.550781 48.46875 -12.203125 49.40625 -12.203125 C 50.875 -12.203125 52.65625 -13.148438 54.75 -15.046875 C 56.84375 -16.953125 59.671875 -20.035156 63.234375 -24.296875 C 64.160156 -25.378906 65.207031 -25.921875 66.375 -25.921875 C 67.375 -25.921875 68.164062 -25.453125 68.75 -24.515625 C 69.332031 -23.585938 69.625 -22.3125 69.625 -20.6875 C 69.625 -17.59375 68.890625 -15.191406 67.421875 -13.484375 C 64.242188 -9.535156 60.867188 -6.203125 57.296875 -3.484375 C 53.734375 -0.773438 50.285156 0.578125 46.953125 0.578125 C 44.398438 0.578125 42.054688 -0.289062 39.921875 -2.03125 C 37.796875 -3.78125 36.191406 -6.164062 35.109375 -9.1875 C 31.078125 -2.675781 26 0.578125 19.875 0.578125 Z M 24.0625 -11.15625 C 25.769531 -11.15625 27.394531 -12.160156 28.9375 -14.171875 C 30.488281 -16.191406 31.613281 -18.867188 32.3125 -22.203125 L 36.609375 -43.59375 C 33.359375 -43.507812 30.359375 -42.285156 27.609375 -39.921875 C 24.859375 -37.554688 22.664062 -34.4375 21.03125 -30.5625 C 19.40625 -26.695312 18.59375 -22.59375 18.59375 -18.25 C 18.59375 -15.84375 19.078125 -14.054688 20.046875 -12.890625 C 21.015625 -11.734375 22.351562 -11.15625 24.0625 -11.15625 Z M 24.0625 -11.15625 "/></g></g><g style="fill:rgb(92.939758%,96.859741%,96.469116%);fill-opacity:1;"><g transform="translate(3.959222, 105.867848)"><path style="stroke:none;" d="M 26.96875 0.578125 C 24.101562 0.578125 22.050781 -0.0546875 20.8125 -1.328125 C 19.570312 -2.609375 18.953125 -5.03125 18.953125 -8.59375 C 18.953125 -11 19.203125 -14.082031 19.703125 -17.84375 C 20.203125 -21.601562 21.035156 -26.773438 22.203125 -33.359375 C 24.210938 -45.523438 25.800781 -56.0625 26.96875 -64.96875 C 27.664062 -70.550781 28.015625 -75.203125 28.015625 -78.921875 C 28.015625 -82.410156 26.734375 -84.15625 24.171875 -84.15625 C 22.160156 -84.15625 19.738281 -83.128906 16.90625 -81.078125 C 14.082031 -79.023438 10.96875 -75.75 7.5625 -71.25 C 6.46875 -69.78125 5.265625 -69.046875 3.953125 -69.046875 C 2.867188 -69.046875 1.921875 -69.566406 1.109375 -70.609375 C 0.296875 -71.660156 -0.109375 -72.84375 -0.109375 -74.15625 C -0.109375 -75.394531 0.140625 -76.65625 0.640625 -77.9375 C 1.140625 -79.21875 1.972656 -80.671875 3.140625 -82.296875 C 6.859375 -87.484375 11.003906 -91.488281 15.578125 -94.3125 C 20.148438 -97.144531 24.722656 -98.5625 29.296875 -98.5625 C 33.554688 -98.5625 36.828125 -97.207031 39.109375 -94.5 C 41.398438 -91.789062 42.546875 -87.835938 42.546875 -82.640625 C 42.546875 -80.546875 42.347656 -78.082031 41.953125 -75.25 C 41.566406 -72.425781 41.21875 -70.125 40.90625 -68.34375 C 40.601562 -66.5625 40.375 -65.320312 40.21875 -64.625 C 44.632812 -77.257812 49.59375 -86.070312 55.09375 -91.0625 C 60.59375 -96.0625 66.640625 -98.5625 73.234375 -98.5625 C 78.265625 -98.5625 82.234375 -96.78125 85.140625 -93.21875 C 88.046875 -89.65625 89.5 -84.617188 89.5 -78.109375 C 89.5 -75.554688 89.148438 -72.378906 88.453125 -68.578125 C 92.328125 -79.273438 96.859375 -86.945312 102.046875 -91.59375 C 107.242188 -96.238281 113.210938 -98.5625 119.953125 -98.5625 C 125.378906 -98.5625 129.546875 -96.816406 132.453125 -93.328125 C 135.359375 -89.847656 136.8125 -84.96875 136.8125 -78.6875 C 136.8125 -75.28125 136.304688 -71.132812 135.296875 -66.25 L 128.203125 -33.015625 C 127.429688 -29.140625 127.046875 -25.804688 127.046875 -23.015625 C 127.046875 -19.753906 127.800781 -17.3125 129.3125 -15.6875 C 130.820312 -14.0625 132.929688 -13.25 135.640625 -13.25 C 138.203125 -13.25 140.703125 -14.097656 143.140625 -15.796875 C 145.578125 -17.503906 148.460938 -20.335938 151.796875 -24.296875 C 152.734375 -25.378906 153.78125 -25.921875 154.9375 -25.921875 C 155.945312 -25.921875 156.738281 -25.453125 157.3125 -24.515625 C 157.894531 -23.585938 158.1875 -22.3125 158.1875 -20.6875 C 158.1875 -17.664062 157.453125 -15.265625 155.984375 -13.484375 C 151.953125 -8.597656 147.960938 -5.03125 144.015625 -2.78125 C 140.066406 -0.539062 135.921875 0.578125 131.578125 0.578125 C 124.992188 0.578125 119.835938 -1.375 116.109375 -5.28125 C 112.390625 -9.195312 110.53125 -14.445312 110.53125 -21.03125 C 110.53125 -25.601562 111.460938 -32.234375 113.328125 -40.921875 L 117.984375 -62.1875 C 118.128906 -62.882812 118.394531 -64.125 118.78125 -65.90625 C 119.175781 -67.6875 119.488281 -69.367188 119.71875 -70.953125 C 119.945312 -72.546875 120.0625 -74.117188 120.0625 -75.671875 C 120.0625 -78.378906 119.539062 -80.410156 118.5 -81.765625 C 117.457031 -83.128906 115.96875 -83.8125 114.03125 -83.8125 C 110.382812 -83.8125 106.566406 -81.460938 102.578125 -76.765625 C 98.585938 -72.078125 94.789062 -64.304688 91.1875 -53.453125 C 87.582031 -42.609375 84.65625 -28.507812 82.40625 -11.15625 C 81.863281 -6.507812 80.914062 -3.390625 79.5625 -1.796875 C 78.207031 -0.210938 76.019531 0.578125 73 0.578125 C 70.363281 0.578125 68.441406 -0.0390625 67.234375 -1.28125 C 66.035156 -2.519531 65.4375 -4.84375 65.4375 -8.25 C 65.4375 -11.425781 65.863281 -15.59375 66.71875 -20.75 C 67.570312 -25.90625 68.65625 -31.96875 69.96875 -38.9375 C 73.53125 -57.6875 75.3125 -69.773438 75.3125 -75.203125 C 75.3125 -78.148438 74.75 -80.320312 73.625 -81.71875 C 72.507812 -83.113281 70.828125 -83.8125 68.578125 -83.8125 C 64.773438 -83.8125 60.859375 -81.660156 56.828125 -77.359375 C 52.804688 -73.054688 48.875 -65.421875 45.03125 -54.453125 C 41.195312 -43.492188 38.003906 -28.675781 35.453125 -10 C 34.910156 -6.039062 34.113281 -3.285156 33.0625 -1.734375 C 32.019531 -0.191406 29.988281 0.578125 26.96875 0.578125 Z M 26.96875 0.578125 "/></g></g><g style="fill:rgb(92.939758%,96.859741%,96.469116%);fill-opacity:1;"><g transform="translate(147.155246, 105.867848)"><path style="stroke:none;" d="M 19.875 0.578125 C 15.070312 0.578125 11.234375 -1.160156 8.359375 -4.640625 C 5.492188 -8.128906 4.0625 -12.703125 4.0625 -18.359375 C 4.0625 -24.554688 5.492188 -30.425781 8.359375 -35.96875 C 11.234375 -41.507812 15.050781 -45.960938 19.8125 -49.328125 C 24.582031 -52.703125 29.640625 -54.390625 34.984375 -54.390625 C 36.691406 -54.390625 37.832031 -54.0625 38.40625 -53.40625 C 38.988281 -52.75 39.476562 -51.566406 39.875 -49.859375 C 41.5 -50.171875 43.203125 -50.328125 44.984375 -50.328125 C 48.773438 -50.328125 50.671875 -48.972656 50.671875 -46.265625 C 50.671875 -44.640625 50.09375 -40.765625 48.9375 -34.640625 C 47.15625 -25.722656 46.265625 -19.523438 46.265625 -16.046875 C 46.265625 -14.878906 46.550781 -13.945312 47.125 -13.25 C 47.707031 -12.550781 48.46875 -12.203125 49.40625 -12.203125 C 50.875 -12.203125 52.65625 -13.148438 54.75 -15.046875 C 56.84375 -16.953125 59.671875 -20.035156 63.234375 -24.296875 C 64.160156 -25.378906 65.207031 -25.921875 66.375 -25.921875 C 67.375 -25.921875 68.164062 -25.453125 68.75 -24.515625 C 69.332031 -23.585938 69.625 -22.3125 69.625 -20.6875 C 69.625 -17.59375 68.890625 -15.191406 67.421875 -13.484375 C 64.242188 -9.535156 60.867188 -6.203125 57.296875 -3.484375 C 53.734375 -0.773438 50.285156 0.578125 46.953125 0.578125 C 44.398438 0.578125 42.054688 -0.289062 39.921875 -2.03125 C 37.796875 -3.78125 36.191406 -6.164062 35.109375 -9.1875 C 31.078125 -2.675781 26 0.578125 19.875 0.578125 Z M 24.0625 -11.15625 C 25.769531 -11.15625 27.394531 -12.160156 28.9375 -14.171875 C 30.488281 -16.191406 31.613281 -18.867188 32.3125 -22.203125 L 36.609375 -43.59375 C 33.359375 -43.507812 30.359375 -42.285156 27.609375 -39.921875 C 24.859375 -37.554688 22.664062 -34.4375 21.03125 -30.5625 C 19.40625 -26.695312 18.59375 -22.59375 18.59375 -18.25 C 18.59375 -15.84375 19.078125 -14.054688 20.046875 -12.890625 C 21.015625 -11.734375 22.351562 -11.15625 24.0625 -11.15625 Z M 24.0625 -11.15625 "/></g></g><g style="fill:rgb(92.939758%,96.859741%,96.469116%);fill-opacity:1;"><g transform="translate(201.783605, 105.867848)"><path style="stroke:none;" d="M 57.421875 -25.921875 C 58.429688 -25.921875 59.222656 -25.453125 59.796875 -24.515625 C 60.378906 -23.585938 60.671875 -22.3125 60.671875 -20.6875 C 60.671875 -17.59375 59.9375 -15.191406 58.46875 -13.484375 C 55.132812 -9.378906 51.488281 -6.007812 47.53125 -3.375 C 43.582031 -0.738281 39.050781 0.578125 33.9375 0.578125 C 18.132812 0.578125 10.234375 -10.539062 10.234375 -32.78125 C 10.234375 -36.1875 10.347656 -39.632812 10.578125 -43.125 L 6.046875 -43.125 C 3.722656 -43.125 2.148438 -43.550781 1.328125 -44.40625 C 0.515625 -45.257812 0.109375 -46.613281 0.109375 -48.46875 C 0.109375 -52.8125 1.851562 -54.984375 5.34375 -54.984375 L 11.96875 -54.984375 C 13.289062 -63.503906 15.304688 -71.289062 18.015625 -78.34375 C 20.722656 -85.394531 23.992188 -91.007812 27.828125 -95.1875 C 31.671875 -99.375 35.800781 -101.46875 40.21875 -101.46875 C 43.46875 -101.46875 46.019531 -100.035156 47.875 -97.171875 C 49.738281 -94.304688 50.671875 -90.703125 50.671875 -86.359375 C 50.671875 -74.347656 45.632812 -63.890625 35.5625 -54.984375 L 48.59375 -54.984375 C 49.832031 -54.984375 50.722656 -54.707031 51.265625 -54.15625 C 51.804688 -53.613281 52.078125 -52.609375 52.078125 -51.140625 C 52.078125 -45.796875 47.695312 -43.125 38.9375 -43.125 L 24.765625 -43.125 C 24.609375 -39.25 24.53125 -36.226562 24.53125 -34.0625 C 24.53125 -26 25.476562 -20.335938 27.375 -17.078125 C 29.269531 -13.828125 32.269531 -12.203125 36.375 -12.203125 C 39.707031 -12.203125 42.648438 -13.207031 45.203125 -15.21875 C 47.765625 -17.238281 50.789062 -20.265625 54.28125 -24.296875 C 55.207031 -25.378906 56.253906 -25.921875 57.421875 -25.921875 Z M 37.078125 -90.3125 C 35.910156 -90.3125 34.609375 -88.859375 33.171875 -85.953125 C 31.742188 -83.046875 30.390625 -79.015625 29.109375 -73.859375 C 27.835938 -68.710938 26.773438 -63 25.921875 -56.71875 C 30.492188 -60.675781 33.921875 -65.113281 36.203125 -70.03125 C 38.492188 -74.945312 39.640625 -79.421875 39.640625 -83.453125 C 39.640625 -88.023438 38.785156 -90.3125 37.078125 -90.3125 Z M 37.078125 -90.3125 "/></g></g><g style="fill:rgb(92.939758%,96.859741%,96.469116%);fill-opacity:1;"><g transform="translate(247.462189, 105.867848)"><path style="stroke:none;" d="M 19.875 0.578125 C 15.070312 0.578125 11.234375 -1.160156 8.359375 -4.640625 C 5.492188 -8.128906 4.0625 -12.703125 4.0625 -18.359375 C 4.0625 -24.554688 5.492188 -30.425781 8.359375 -35.96875 C 11.234375 -41.507812 15.050781 -45.960938 19.8125 -49.328125 C 24.582031 -52.703125 29.640625 -54.390625 34.984375 -54.390625 C 36.691406 -54.390625 37.832031 -54.0625 38.40625 -53.40625 C 38.988281 -52.75 39.476562 -51.566406 39.875 -49.859375 C 41.5 -50.171875 43.203125 -50.328125 44.984375 -50.328125 C 48.773438 -50.328125 50.671875 -48.972656 50.671875 -46.265625 C 50.671875 -44.640625 50.09375 -40.765625 48.9375 -34.640625 C 47.15625 -25.722656 46.265625 -19.523438 46.265625 -16.046875 C 46.265625 -14.878906 46.550781 -13.945312 47.125 -13.25 C 47.707031 -12.550781 48.46875 -12.203125 49.40625 -12.203125 C 50.875 -12.203125 52.65625 -13.148438 54.75 -15.046875 C 56.84375 -16.953125 59.671875 -20.035156 63.234375 -24.296875 C 64.160156 -25.378906 65.207031 -25.921875 66.375 -25.921875 C 67.375 -25.921875 68.164062 -25.453125 68.75 -24.515625 C 69.332031 -23.585938 69.625 -22.3125 69.625 -20.6875 C 69.625 -17.59375 68.890625 -15.191406 67.421875 -13.484375 C 64.242188 -9.535156 60.867188 -6.203125 57.296875 -3.484375 C 53.734375 -0.773438 50.285156 0.578125 46.953125 0.578125 C 44.398438 0.578125 42.054688 -0.289062 39.921875 -2.03125 C 37.796875 -3.78125 36.191406 -6.164062 35.109375 -9.1875 C 31.078125 -2.675781 26 0.578125 19.875 0.578125 Z M 24.0625 -11.15625 C 25.769531 -11.15625 27.394531 -12.160156 28.9375 -14.171875 C 30.488281 -16.191406 31.613281 -18.867188 32.3125 -22.203125 L 36.609375 -43.59375 C 33.359375 -43.507812 30.359375 -42.285156 27.609375 -39.921875 C 24.859375 -37.554688 22.664062 -34.4375 21.03125 -30.5625 C 19.40625 -26.695312 18.59375 -22.59375 18.59375 -18.25 C 18.59375 -15.84375 19.078125 -14.054688 20.046875 -12.890625 C 21.015625 -11.734375 22.351562 -11.15625 24.0625 -11.15625 Z M 24.0625 -11.15625 "/></g></g><g style="fill:rgb(92.939758%,96.859741%,96.469116%);fill-opacity:1;"><g transform="translate(302.090535, 105.867848)"><path style="stroke:none;" d="M 27.203125 3.140625 C 23.171875 3.140625 20.085938 2.207031 17.953125 0.34375 C 15.828125 -1.507812 14.765625 -3.597656 14.765625 -5.921875 C 14.765625 -7.941406 15.5 -9.6875 16.96875 -11.15625 C 18.4375 -12.625 20.609375 -13.359375 23.484375 -13.359375 C 24.484375 -13.359375 25.660156 -13.257812 27.015625 -13.0625 C 28.378906 -12.875 29.410156 -12.742188 30.109375 -12.671875 C 30.023438 -14.679688 29.578125 -16.578125 28.765625 -18.359375 C 27.953125 -20.140625 26.925781 -21.863281 25.6875 -23.53125 C 24.445312 -25.195312 23.285156 -26.648438 22.203125 -27.890625 C 19.796875 -23.316406 17.410156 -19.519531 15.046875 -16.5 C 12.679688 -13.476562 10.109375 -10.613281 7.328125 -7.90625 C 5.929688 -6.507812 4.457031 -5.8125 2.90625 -5.8125 C 1.664062 -5.8125 0.660156 -6.253906 -0.109375 -7.140625 C -0.890625 -8.035156 -1.28125 -9.144531 -1.28125 -10.46875 C -1.28125 -12.007812 -0.738281 -13.441406 0.34375 -14.765625 L 1.859375 -16.625 C 6.117188 -21.894531 9.332031 -26.234375 11.5 -29.640625 C 12.820312 -31.890625 14.375 -34.890625 16.15625 -38.640625 C 17.9375 -42.398438 19.679688 -46.296875 21.390625 -50.328125 C 22.859375 -53.734375 25.914062 -55.4375 30.5625 -55.4375 C 32.738281 -55.4375 34.25 -55.242188 35.09375 -54.859375 C 35.945312 -54.472656 36.375 -53.851562 36.375 -53 C 36.375 -52.539062 36.21875 -51.804688 35.90625 -50.796875 C 35.601562 -49.785156 35.179688 -48.773438 34.640625 -47.765625 C 33.242188 -44.984375 32.546875 -42.625 32.546875 -40.6875 C 32.546875 -39.519531 32.953125 -38.238281 33.765625 -36.84375 C 34.578125 -35.445312 35.835938 -33.703125 37.546875 -31.609375 C 40.023438 -28.359375 41.898438 -25.585938 43.171875 -23.296875 C 44.453125 -21.015625 45.09375 -18.519531 45.09375 -15.8125 C 45.09375 -15.03125 45.015625 -13.941406 44.859375 -12.546875 C 48.660156 -14.023438 53.117188 -17.941406 58.234375 -24.296875 C 59.160156 -25.378906 60.207031 -25.921875 61.375 -25.921875 C 62.375 -25.921875 63.164062 -25.453125 63.75 -24.515625 C 64.332031 -23.585938 64.625 -22.3125 64.625 -20.6875 C 64.625 -17.738281 63.890625 -15.335938 62.421875 -13.484375 C 58.546875 -8.679688 54.84375 -5.40625 51.3125 -3.65625 C 47.789062 -1.914062 43.429688 -0.96875 38.234375 -0.8125 C 35.140625 1.820312 31.460938 3.140625 27.203125 3.140625 Z M 27.203125 3.140625 "/></g></g><g style="fill:rgb(92.939758%,96.859741%,96.469116%);fill-opacity:1;"><g transform="translate(351.720983, 105.867848)"><path style="stroke:none;" d=""/></g></g><g style="fill:rgb(92.939758%,96.859741%,96.469116%);fill-opacity:1;"><g transform="translate(382.522073, 105.867848)"><path style="stroke:none;" d="M 95.65625 -69.28125 C 95.65625 -62.6875 93.953125 -56.640625 90.546875 -51.140625 C 87.140625 -45.640625 82.179688 -41.144531 75.671875 -37.65625 C 69.160156 -34.164062 61.410156 -32.113281 52.421875 -31.5 L 47.421875 -3.484375 C 45.484375 7.285156 40.210938 12.671875 31.609375 12.671875 C 26.890625 12.671875 22.53125 11.273438 18.53125 8.484375 C 14.539062 5.691406 11.34375 1.429688 8.9375 -4.296875 C 6.539062 -10.035156 5.34375 -17.085938 5.34375 -25.453125 C 5.34375 -41.179688 7.878906 -54.523438 12.953125 -65.484375 C 18.035156 -76.453125 24.859375 -84.664062 33.421875 -90.125 C 41.984375 -95.59375 51.414062 -98.328125 61.71875 -98.328125 C 69 -98.328125 75.175781 -97.046875 80.25 -94.484375 C 85.332031 -91.929688 89.171875 -88.46875 91.765625 -84.09375 C 94.359375 -79.71875 95.65625 -74.78125 95.65625 -69.28125 Z M 54.515625 -43.46875 C 70.398438 -45.488281 78.34375 -53.742188 78.34375 -68.234375 C 78.34375 -73.347656 76.65625 -77.507812 73.28125 -80.71875 C 69.914062 -83.9375 64.707031 -85.546875 57.65625 -85.546875 C 49.675781 -85.546875 42.71875 -83.023438 36.78125 -77.984375 C 30.851562 -72.953125 26.28125 -65.960938 23.0625 -57.015625 C 19.851562 -48.066406 18.25 -37.859375 18.25 -26.390625 C 18.25 -21.578125 18.734375 -17.3125 19.703125 -13.59375 C 20.671875 -9.875 21.910156 -6.988281 23.421875 -4.9375 C 24.929688 -2.882812 26.382812 -1.859375 27.78125 -1.859375 C 29.71875 -1.859375 31.191406 -4.53125 32.203125 -9.875 L 36.03125 -31.84375 C 33.007812 -32.3125 31.691406 -32.503906 32.078125 -32.421875 C 29.753906 -32.816406 28.242188 -33.535156 27.546875 -34.578125 C 26.847656 -35.628906 26.5 -36.96875 26.5 -38.59375 C 26.5 -40.289062 26.984375 -41.644531 27.953125 -42.65625 C 28.921875 -43.664062 30.257812 -44.171875 31.96875 -44.171875 C 32.738281 -44.171875 33.316406 -44.128906 33.703125 -44.046875 C 35.566406 -43.742188 37.003906 -43.550781 38.015625 -43.46875 C 39.015625 -49.507812 40.445312 -57.609375 42.3125 -67.765625 C 42.769531 -70.398438 43.832031 -72.28125 45.5 -73.40625 C 47.164062 -74.53125 49.125 -75.09375 51.375 -75.09375 C 53.9375 -75.09375 55.773438 -74.609375 56.890625 -73.640625 C 58.015625 -72.671875 58.578125 -71.140625 58.578125 -69.046875 C 58.578125 -67.804688 58.5 -66.796875 58.34375 -66.015625 Z M 54.515625 -43.46875 "/></g></g><g style="fill:rgb(92.939758%,96.859741%,96.469116%);fill-opacity:1;"><g transform="translate(476.087622, 105.867848)"><path style="stroke:none;" d="M 20.8125 -61.84375 C 17.550781 -61.84375 15.109375 -62.597656 13.484375 -64.109375 C 11.859375 -65.617188 11.046875 -67.726562 11.046875 -70.4375 C 11.046875 -73.144531 12.109375 -75.410156 14.234375 -77.234375 C 16.367188 -79.054688 19.023438 -79.96875 22.203125 -79.96875 C 25.066406 -79.96875 27.390625 -79.269531 29.171875 -77.875 C 30.953125 -76.476562 31.84375 -74.503906 31.84375 -71.953125 C 31.84375 -68.847656 30.832031 -66.382812 28.8125 -64.5625 C 26.800781 -62.75 24.132812 -61.84375 20.8125 -61.84375 Z M 19.875 0.578125 C 14.84375 0.578125 11.179688 -1.203125 8.890625 -4.765625 C 6.609375 -8.328125 5.46875 -13.054688 5.46875 -18.953125 C 5.46875 -22.429688 5.910156 -26.898438 6.796875 -32.359375 C 7.691406 -37.828125 8.835938 -42.925781 10.234375 -47.65625 C 10.929688 -50.132812 11.859375 -51.835938 13.015625 -52.765625 C 14.179688 -53.703125 16.039062 -54.171875 18.59375 -54.171875 C 22.550781 -54.171875 24.53125 -52.851562 24.53125 -50.21875 C 24.53125 -48.28125 23.789062 -43.785156 22.3125 -36.734375 C 20.457031 -28.203125 19.53125 -22.425781 19.53125 -19.40625 C 19.53125 -17.082031 19.835938 -15.300781 20.453125 -14.0625 C 21.078125 -12.820312 22.125 -12.203125 23.59375 -12.203125 C 24.988281 -12.203125 26.734375 -13.171875 28.828125 -15.109375 C 30.921875 -17.046875 33.707031 -20.109375 37.1875 -24.296875 C 38.125 -25.378906 39.171875 -25.921875 40.328125 -25.921875 C 41.335938 -25.921875 42.132812 -25.453125 42.71875 -24.515625 C 43.300781 -23.585938 43.59375 -22.3125 43.59375 -20.6875 C 43.59375 -17.59375 42.851562 -15.191406 41.375 -13.484375 C 33.707031 -4.109375 26.539062 0.578125 19.875 0.578125 Z M 19.875 0.578125 "/></g></g><g style="fill:rgb(92.939758%,96.859741%,96.469116%);fill-opacity:1;"><g transform="translate(504.680307, 105.867848)"><path style="stroke:none;" d="M 65.09375 -25.6875 C 66.101562 -25.6875 66.894531 -25.203125 67.46875 -24.234375 C 68.050781 -23.265625 68.34375 -22.046875 68.34375 -20.578125 C 68.34375 -18.796875 68.070312 -17.398438 67.53125 -16.390625 C 66.988281 -15.378906 66.132812 -14.488281 64.96875 -13.71875 C 58.3125 -9.21875 53.429688 -5.882812 50.328125 -3.71875 L 42.890625 1.28125 C 39.941406 17.320312 36.082031 29.929688 31.3125 39.109375 C 26.550781 48.296875 20.492188 52.890625 13.140625 52.890625 C 9.179688 52.890625 5.960938 51.664062 3.484375 49.21875 C 1.003906 46.78125 -0.234375 43.585938 -0.234375 39.640625 C -0.234375 34.140625 1.929688 28.226562 6.265625 21.90625 C 10.609375 15.59375 18.75 7.828125 30.6875 -1.390625 L 31.390625 -5.921875 C 30.066406 -3.835938 28.335938 -2.234375 26.203125 -1.109375 C 24.078125 0.015625 21.96875 0.578125 19.875 0.578125 C 15.070312 0.578125 11.234375 -1.160156 8.359375 -4.640625 C 5.492188 -8.128906 4.0625 -12.703125 4.0625 -18.359375 C 4.0625 -24.554688 5.492188 -30.425781 8.359375 -35.96875 C 11.234375 -41.507812 15.050781 -45.960938 19.8125 -49.328125 C 24.582031 -52.703125 29.640625 -54.390625 34.984375 -54.390625 C 36.691406 -54.390625 37.832031 -54.0625 38.40625 -53.40625 C 38.988281 -52.75 39.476562 -51.566406 39.875 -49.859375 C 41.34375 -50.171875 43.046875 -50.328125 44.984375 -50.328125 C 46.921875 -50.328125 48.296875 -50.035156 49.109375 -49.453125 C 49.921875 -48.878906 50.328125 -47.738281 50.328125 -46.03125 C 50.328125 -45.101562 50.289062 -44.367188 50.21875 -43.828125 C 49.90625 -41.421875 48.9375 -35.335938 47.3125 -25.578125 C 47 -23.710938 46.664062 -21.675781 46.3125 -19.46875 C 45.96875 -17.257812 45.601562 -14.914062 45.21875 -12.4375 C 51.1875 -17.082031 56.921875 -21.191406 62.421875 -24.765625 C 63.421875 -25.378906 64.3125 -25.6875 65.09375 -25.6875 Z M 24.0625 -11.15625 C 25.84375 -11.15625 27.546875 -12.238281 29.171875 -14.40625 C 30.796875 -16.582031 31.957031 -19.6875 32.65625 -23.71875 L 36.375 -43.59375 C 33.195312 -43.507812 30.253906 -42.285156 27.546875 -39.921875 C 24.835938 -37.554688 22.664062 -34.4375 21.03125 -30.5625 C 19.40625 -26.695312 18.59375 -22.59375 18.59375 -18.25 C 18.59375 -15.84375 19.078125 -14.054688 20.046875 -12.890625 C 21.015625 -11.734375 22.351562 -11.15625 24.0625 -11.15625 Z M 14.40625 41.609375 C 16.34375 41.609375 18.53125 39.28125 20.96875 34.625 C 23.414062 29.976562 25.765625 22.582031 28.015625 12.4375 C 22.046875 17.550781 17.742188 22.160156 15.109375 26.265625 C 12.472656 30.367188 11.15625 33.972656 11.15625 37.078125 C 11.15625 38.398438 11.40625 39.484375 11.90625 40.328125 C 12.414062 41.179688 13.25 41.609375 14.40625 41.609375 Z M 14.40625 41.609375 "/></g></g><g style="fill:rgb(92.939758%,96.859741%,96.469116%);fill-opacity:1;"><g transform="translate(560.354725, 105.867848)"><path style="stroke:none;" d="M 19.875 0.578125 C 15.070312 0.578125 11.234375 -1.160156 8.359375 -4.640625 C 5.492188 -8.128906 4.0625 -12.703125 4.0625 -18.359375 C 4.0625 -24.554688 5.492188 -30.425781 8.359375 -35.96875 C 11.234375 -41.507812 15.050781 -45.960938 19.8125 -49.328125 C 24.582031 -52.703125 29.640625 -54.390625 34.984375 -54.390625 C 36.691406 -54.390625 37.832031 -54.0625 38.40625 -53.40625 C 38.988281 -52.75 39.476562 -51.566406 39.875 -49.859375 C 41.5 -50.171875 43.203125 -50.328125 44.984375 -50.328125 C 48.773438 -50.328125 50.671875 -48.972656 50.671875 -46.265625 C 50.671875 -44.640625 50.09375 -40.765625 48.9375 -34.640625 C 47.15625 -25.722656 46.265625 -19.523438 46.265625 -16.046875 C 46.265625 -14.878906 46.550781 -13.945312 47.125 -13.25 C 47.707031 -12.550781 48.46875 -12.203125 49.40625 -12.203125 C 50.875 -12.203125 52.65625 -13.148438 54.75 -15.046875 C 56.84375 -16.953125 59.671875 -20.035156 63.234375 -24.296875 C 64.160156 -25.378906 65.207031 -25.921875 66.375 -25.921875 C 67.375 -25.921875 68.164062 -25.453125 68.75 -24.515625 C 69.332031 -23.585938 69.625 -22.3125 69.625 -20.6875 C 69.625 -17.59375 68.890625 -15.191406 67.421875 -13.484375 C 64.242188 -9.535156 60.867188 -6.203125 57.296875 -3.484375 C 53.734375 -0.773438 50.285156 0.578125 46.953125 0.578125 C 44.398438 0.578125 42.054688 -0.289062 39.921875 -2.03125 C 37.796875 -3.78125 36.191406 -6.164062 35.109375 -9.1875 C 31.078125 -2.675781 26 0.578125 19.875 0.578125 Z M 24.0625 -11.15625 C 25.769531 -11.15625 27.394531 -12.160156 28.9375 -14.171875 C 30.488281 -16.191406 31.613281 -18.867188 32.3125 -22.203125 L 36.609375 -43.59375 C 33.359375 -43.507812 30.359375 -42.285156 27.609375 -39.921875 C 24.859375 -37.554688 22.664062 -34.4375 21.03125 -30.5625 C 19.40625 -26.695312 18.59375 -22.59375 18.59375 -18.25 C 18.59375 -15.84375 19.078125 -14.054688 20.046875 -12.890625 C 21.015625 -11.734375 22.351562 -11.15625 24.0625 -11.15625 Z M 24.0625 -11.15625 "/></g></g><g style="fill:rgb(92.939758%,96.859741%,96.469116%);fill-opacity:1;"><g transform="translate(614.98307, 105.867848)"><path style="stroke:none;" d="M 65.09375 -25.6875 C 66.101562 -25.6875 66.894531 -25.203125 67.46875 -24.234375 C 68.050781 -23.265625 68.34375 -22.046875 68.34375 -20.578125 C 68.34375 -18.796875 68.070312 -17.398438 67.53125 -16.390625 C 66.988281 -15.378906 66.132812 -14.488281 64.96875 -13.71875 C 58.3125 -9.21875 53.429688 -5.882812 50.328125 -3.71875 L 42.890625 1.28125 C 39.941406 17.320312 36.082031 29.929688 31.3125 39.109375 C 26.550781 48.296875 20.492188 52.890625 13.140625 52.890625 C 9.179688 52.890625 5.960938 51.664062 3.484375 49.21875 C 1.003906 46.78125 -0.234375 43.585938 -0.234375 39.640625 C -0.234375 34.140625 1.929688 28.226562 6.265625 21.90625 C 10.609375 15.59375 18.75 7.828125 30.6875 -1.390625 L 31.390625 -5.921875 C 30.066406 -3.835938 28.335938 -2.234375 26.203125 -1.109375 C 24.078125 0.015625 21.96875 0.578125 19.875 0.578125 C 15.070312 0.578125 11.234375 -1.160156 8.359375 -4.640625 C 5.492188 -8.128906 4.0625 -12.703125 4.0625 -18.359375 C 4.0625 -24.554688 5.492188 -30.425781 8.359375 -35.96875 C 11.234375 -41.507812 15.050781 -45.960938 19.8125 -49.328125 C 24.582031 -52.703125 29.640625 -54.390625 34.984375 -54.390625 C 36.691406 -54.390625 37.832031 -54.0625 38.40625 -53.40625 C 38.988281 -52.75 39.476562 -51.566406 39.875 -49.859375 C 41.34375 -50.171875 43.046875 -50.328125 44.984375 -50.328125 C 46.921875 -50.328125 48.296875 -50.035156 49.109375 -49.453125 C 49.921875 -48.878906 50.328125 -47.738281 50.328125 -46.03125 C 50.328125 -45.101562 50.289062 -44.367188 50.21875 -43.828125 C 49.90625 -41.421875 48.9375 -35.335938 47.3125 -25.578125 C 47 -23.710938 46.664062 -21.675781 46.3125 -19.46875 C 45.96875 -17.257812 45.601562 -14.914062 45.21875 -12.4375 C 51.1875 -17.082031 56.921875 -21.191406 62.421875 -24.765625 C 63.421875 -25.378906 64.3125 -25.6875 65.09375 -25.6875 Z M 24.0625 -11.15625 C 25.84375 -11.15625 27.546875 -12.238281 29.171875 -14.40625 C 30.796875 -16.582031 31.957031 -19.6875 32.65625 -23.71875 L 36.375 -43.59375 C 33.195312 -43.507812 30.253906 -42.285156 27.546875 -39.921875 C 24.835938 -37.554688 22.664062 -34.4375 21.03125 -30.5625 C 19.40625 -26.695312 18.59375 -22.59375 18.59375 -18.25 C 18.59375 -15.84375 19.078125 -14.054688 20.046875 -12.890625 C 21.015625 -11.734375 22.351562 -11.15625 24.0625 -11.15625 Z M 14.40625 41.609375 C 16.34375 41.609375 18.53125 39.28125 20.96875 34.625 C 23.414062 29.976562 25.765625 22.582031 28.015625 12.4375 C 22.046875 17.550781 17.742188 22.160156 15.109375 26.265625 C 12.472656 30.367188 11.15625 33.972656 11.15625 37.078125 C 11.15625 38.398438 11.40625 39.484375 11.90625 40.328125 C 12.414062 41.179688 13.25 41.609375 14.40625 41.609375 Z M 14.40625 41.609375 "/></g></g><g style="fill:rgb(92.939758%,96.859741%,96.469116%);fill-opacity:1;"><g transform="translate(670.657488, 105.867848)"><path style="stroke:none;" d="M 19.875 0.578125 C 15.070312 0.578125 11.234375 -1.160156 8.359375 -4.640625 C 5.492188 -8.128906 4.0625 -12.703125 4.0625 -18.359375 C 4.0625 -24.554688 5.492188 -30.425781 8.359375 -35.96875 C 11.234375 -41.507812 15.050781 -45.960938 19.8125 -49.328125 C 24.582031 -52.703125 29.640625 -54.390625 34.984375 -54.390625 C 36.691406 -54.390625 37.832031 -54.0625 38.40625 -53.40625 C 38.988281 -52.75 39.476562 -51.566406 39.875 -49.859375 C 41.5 -50.171875 43.203125 -50.328125 44.984375 -50.328125 C 48.773438 -50.328125 50.671875 -48.972656 50.671875 -46.265625 C 50.671875 -44.640625 50.09375 -40.765625 48.9375 -34.640625 C 47.15625 -25.722656 46.265625 -19.523438 46.265625 -16.046875 C 46.265625 -14.878906 46.550781 -13.945312 47.125 -13.25 C 47.707031 -12.550781 48.46875 -12.203125 49.40625 -12.203125 C 50.875 -12.203125 52.65625 -13.148438 54.75 -15.046875 C 56.84375 -16.953125 59.671875 -20.035156 63.234375 -24.296875 C 64.160156 -25.378906 65.207031 -25.921875 66.375 -25.921875 C 67.375 -25.921875 68.164062 -25.453125 68.75 -24.515625 C 69.332031 -23.585938 69.625 -22.3125 69.625 -20.6875 C 69.625 -17.59375 68.890625 -15.191406 67.421875 -13.484375 C 64.242188 -9.535156 60.867188 -6.203125 57.296875 -3.484375 C 53.734375 -0.773438 50.285156 0.578125 46.953125 0.578125 C 44.398438 0.578125 42.054688 -0.289062 39.921875 -2.03125 C 37.796875 -3.78125 36.191406 -6.164062 35.109375 -9.1875 C 31.078125 -2.675781 26 0.578125 19.875 0.578125 Z M 24.0625 -11.15625 C 25.769531 -11.15625 27.394531 -12.160156 28.9375 -14.171875 C 30.488281 -16.191406 31.613281 -18.867188 32.3125 -22.203125 L 36.609375 -43.59375 C 33.359375 -43.507812 30.359375 -42.285156 27.609375 -39.921875 C 24.859375 -37.554688 22.664062 -34.4375 21.03125 -30.5625 C 19.40625 -26.695312 18.59375 -22.59375 18.59375 -18.25 C 18.59375 -15.84375 19.078125 -14.054688 20.046875 -12.890625 C 21.015625 -11.734375 22.351562 -11.15625 24.0625 -11.15625 Z M 24.0625 -11.15625 "/></g></g></g></svg>