<?xml version="1.0" encoding="UTF-8"?><svg xmlns="http://www.w3.org/2000/svg" xmlns:xlink="http://www.w3.org/1999/xlink" contentScriptType="text/ecmascript" width="750pt" zoomAndPan="magnify" contentStyleType="text/css" viewBox="0 0 750 525.000007" height="525.000007pt" preserveAspectRatio="xMidYMid meet" version="1.2"><defs><g/></defs><g xml:id="surface1" id="surface1"><g style="fill:rgb(94.509888%,59.999084%,32.548523%);fill-opacity:0.302;"><g transform="translate(29.554703, 216.050414)"><path style="stroke:none;" d="M 201.1875 -62.949219 C 192.039062 -38.066406 180.558594 -27.007812 170.5625 -27.007812 C 166.308594 -27.007812 163.542969 -29.773438 163.542969 -34.027344 C 163.542969 -35.941406 164.179688 -38.28125 165.03125 -40.832031 L 199.273438 -134.40625 C 200.972656 -138.875 202.035156 -143.765625 202.035156 -149.71875 C 202.035156 -169.710938 187.363281 -184.597656 165.667969 -184.597656 C 152.910156 -184.597656 137.597656 -179.492188 127.601562 -169.074219 C 121.007812 -179.066406 114.628906 -184.597656 100.167969 -184.597656 C 86.554688 -184.597656 77.625 -176.089844 76.773438 -175.027344 C 75.074219 -180.34375 69.117188 -184.597656 61.035156 -184.597656 C 54.867188 -184.597656 46.363281 -182.046875 43.382812 -173.75 L -11.273438 -20.628906 C -12.121094 -18.503906 -12.121094 -16.589844 -12.121094 -14.675781 C -12.121094 -5.316406 -4.679688 0 3.617188 0 C 10.847656 0 18.714844 -4.253906 22.117188 -13.609375 L 63.164062 -128.027344 C 68.265625 -142.277344 76.136719 -149.71875 85.707031 -149.71875 C 96.765625 -149.71875 99.742188 -141.210938 93.789062 -124.625 L 56.570312 -22.332031 C 55.507812 -19.351562 54.867188 -16.589844 54.867188 -14.25 C 54.867188 -5.105469 62.3125 0 70.394531 0 C 77.835938 0 85.707031 -4.253906 89.109375 -13.824219 L 128.878906 -125.261719 C 133.980469 -139.722656 142.488281 -149.507812 152.910156 -149.507812 C 161.203125 -149.507812 166.734375 -142.277344 162.90625 -131.855469 L 133.132812 -49.550781 C 131.21875 -44.023438 130.152344 -38.066406 130.152344 -33.175781 C 130.152344 -12.121094 146.953125 0 167.582031 0 C 190.976562 0 213.308594 -15.3125 226.492188 -56.78125 C 226.917969 -58.484375 227.34375 -59.972656 227.34375 -61.460938 C 227.34375 -68.90625 220.964844 -73.160156 214.582031 -73.160156 C 209.054688 -73.160156 203.738281 -69.96875 201.1875 -62.949219 Z M 201.1875 -62.949219 "/></g></g><g style="fill:rgb(94.509888%,59.999084%,32.548523%);fill-opacity:0.302;"><g transform="translate(223.29651, 216.050414)"><path style="stroke:none;" d="M 133.34375 -71.882812 C 127.390625 -71.882812 120.796875 -68.265625 118.246094 -60.1875 C 109.949219 -34.027344 96.550781 -25.308594 86.980469 -25.308594 C 83.367188 -25.308594 81.238281 -27.222656 81.238281 -30.625 C 81.238281 -32.324219 81.664062 -34.453125 82.304688 -36.792969 L 106.121094 -105.695312 C 106.972656 -108.25 107.398438 -110.589844 107.398438 -112.714844 C 107.398438 -122.074219 99.742188 -126.964844 91.875 -126.964844 C 85.917969 -126.964844 79.75 -124.199219 76.347656 -118.882812 C 71.882812 -121.648438 63.589844 -124.835938 52.742188 -124.835938 C 38.707031 -124.835938 23.394531 -117.179688 17.652344 -100.804688 L -2.339844 -43.597656 C -3.617188 -39.769531 -4.464844 -35.941406 -4.464844 -32.113281 C -4.464844 -14.460938 9.78125 0 28.496094 0 C 38.492188 0 48.703125 -4.464844 56.570312 -11.484375 C 63.375 -1.703125 78.476562 0 84.855469 0 C 102.507812 0 126.113281 -8.933594 139.722656 -43.382812 C 142.703125 -51.679688 145.039062 -56.996094 145.039062 -60.824219 C 145.039062 -68.054688 139.511719 -71.882812 133.34375 -71.882812 Z M 63.164062 -74.007812 L 52.953125 -42.320312 C 48.488281 -28.496094 40.40625 -25.308594 35.941406 -25.308594 C 31.261719 -25.308594 28.921875 -28.285156 28.921875 -33.175781 C 28.921875 -35.941406 29.5625 -38.492188 30.199219 -40.40625 L 43.808594 -83.152344 C 47.851562 -96.125 53.804688 -97.828125 57.207031 -97.828125 C 61.25 -97.828125 65.714844 -93.789062 65.714844 -86.554688 C 65.714844 -83.367188 64.863281 -79.324219 63.164062 -74.007812 Z M 63.164062 -74.007812 "/></g></g><g style="fill:rgb(94.509888%,59.999084%,32.548523%);fill-opacity:0.302;"><g transform="translate(334.94796, 216.050414)"><path style="stroke:none;" d="M 75.921875 -59.972656 C 67.417969 -36.578125 54.019531 -25.308594 41.683594 -25.308594 C 34.027344 -25.308594 29.347656 -29.988281 29.347656 -35.730469 C 29.347656 -37.21875 29.773438 -38.917969 30.199219 -40.40625 L 51.039062 -99.742188 L 64.863281 -99.742188 C 75.710938 -99.742188 81.453125 -107.398438 81.453125 -114.417969 C 81.453125 -119.945312 77.835938 -124.835938 69.753906 -124.835938 L 60.1875 -124.835938 L 74.433594 -166.308594 C 74.859375 -167.796875 75.074219 -169.074219 75.074219 -170.347656 C 75.074219 -178.21875 69.542969 -184.597656 60.1875 -184.597656 C 53.167969 -184.597656 47.210938 -179.707031 44.660156 -172.261719 L 27.648438 -124.835938 L 18.714844 -124.835938 C 7.230469 -124.835938 2.339844 -117.605469 2.339844 -110.800781 C 2.339844 -104.847656 5.953125 -99.742188 11.695312 -99.742188 L 18.714844 -99.742188 L 0.851562 -48.488281 L 0.851562 -48.703125 C -0.851562 -43.597656 -1.703125 -38.917969 -1.703125 -34.453125 C -1.703125 -12.761719 17.652344 0 39.554688 0 C 66.777344 0 89.535156 -20.203125 101.65625 -55.082031 C 102.082031 -56.570312 102.507812 -58.058594 102.507812 -59.335938 C 102.507812 -65.714844 96.339844 -69.753906 89.746094 -69.753906 C 84.429688 -69.753906 78.476562 -66.777344 75.921875 -59.972656 Z M 75.921875 -59.972656 "/></g></g><g style="fill:rgb(94.509888%,59.999084%,32.548523%);fill-opacity:0.302;"><g transform="translate(404.490848, 216.050414)"><path style="stroke:none;" d="M 133.34375 -71.882812 C 127.390625 -71.882812 120.796875 -68.265625 118.246094 -60.1875 C 109.949219 -34.027344 96.550781 -25.308594 86.980469 -25.308594 C 83.367188 -25.308594 81.238281 -27.222656 81.238281 -30.625 C 81.238281 -32.324219 81.664062 -34.453125 82.304688 -36.792969 L 106.121094 -105.695312 C 106.972656 -108.25 107.398438 -110.589844 107.398438 -112.714844 C 107.398438 -122.074219 99.742188 -126.964844 91.875 -126.964844 C 85.917969 -126.964844 79.75 -124.199219 76.347656 -118.882812 C 71.882812 -121.648438 63.589844 -124.835938 52.742188 -124.835938 C 38.707031 -124.835938 23.394531 -117.179688 17.652344 -100.804688 L -2.339844 -43.597656 C -3.617188 -39.769531 -4.464844 -35.941406 -4.464844 -32.113281 C -4.464844 -14.460938 9.78125 0 28.496094 0 C 38.492188 0 48.703125 -4.464844 56.570312 -11.484375 C 63.375 -1.703125 78.476562 0 84.855469 0 C 102.507812 0 126.113281 -8.933594 139.722656 -43.382812 C 142.703125 -51.679688 145.039062 -56.996094 145.039062 -60.824219 C 145.039062 -68.054688 139.511719 -71.882812 133.34375 -71.882812 Z M 63.164062 -74.007812 L 52.953125 -42.320312 C 48.488281 -28.496094 40.40625 -25.308594 35.941406 -25.308594 C 31.261719 -25.308594 28.921875 -28.285156 28.921875 -33.175781 C 28.921875 -35.941406 29.5625 -38.492188 30.199219 -40.40625 L 43.808594 -83.152344 C 47.851562 -96.125 53.804688 -97.828125 57.207031 -97.828125 C 61.25 -97.828125 65.714844 -93.789062 65.714844 -86.554688 C 65.714844 -83.367188 64.863281 -79.324219 63.164062 -74.007812 Z M 63.164062 -74.007812 "/></g></g><g style="fill:rgb(94.509888%,59.999084%,32.548523%);fill-opacity:0.302;"><g transform="translate(516.142322, 216.050414)"><path style="stroke:none;" d="M 112.925781 -60.1875 C 107.824219 -47.636719 100.378906 -38.917969 90.597656 -33.175781 C 91.023438 -35.941406 91.449219 -38.492188 91.449219 -41.257812 C 91.449219 -53.59375 84.855469 -65.289062 78.902344 -75.285156 C 74.648438 -82.515625 70.394531 -89.746094 69.542969 -96.339844 C 75.496094 -98.890625 80.175781 -105.695312 80.175781 -112.078125 C 80.175781 -121.222656 73.160156 -129.730469 62.523438 -129.730469 C 54.445312 -129.730469 46.363281 -125.6875 42.320312 -117.394531 C 34.027344 -101.230469 25.09375 -84.855469 16.589844 -68.90625 C 2.339844 -65.289062 -4.679688 -49.125 -4.679688 -35.515625 C -4.679688 -14.675781 16.164062 1.488281 53.804688 1.488281 C 90.808594 1.488281 123.988281 -12.546875 138.875 -55.507812 C 139.296875 -56.359375 139.296875 -57.421875 139.296875 -58.273438 C 139.296875 -64.4375 132.28125 -68.90625 125.476562 -68.90625 C 120.371094 -68.90625 115.265625 -66.351562 112.925781 -60.1875 Z M 45.511719 -65.925781 L 47.425781 -69.96875 C 53.804688 -62.3125 58.910156 -52.105469 58.910156 -42.109375 C 58.910156 -32.113281 53.59375 -23.820312 42.320312 -23.394531 C 35.089844 -23.394531 28.710938 -26.582031 26.371094 -32.113281 C 28.074219 -31.6875 29.773438 -31.6875 31.261719 -31.6875 C 43.597656 -31.6875 50.828125 -42.109375 50.828125 -52.53125 C 50.828125 -57.421875 49.125 -62.3125 45.511719 -65.925781 Z M 45.511719 -65.925781 "/></g></g><g style="fill:rgb(94.509888%,59.999084%,32.548523%);fill-opacity:0.502;"><g transform="translate(22.510915, 204.777998)"><path style="stroke:none;" d="M 201.1875 -62.949219 C 192.039062 -38.066406 180.558594 -27.007812 170.5625 -27.007812 C 166.308594 -27.007812 163.542969 -29.773438 163.542969 -34.027344 C 163.542969 -35.941406 164.179688 -38.28125 165.03125 -40.832031 L 199.273438 -134.40625 C 200.972656 -138.875 202.035156 -143.765625 202.035156 -149.71875 C 202.035156 -169.710938 187.363281 -184.597656 165.667969 -184.597656 C 152.910156 -184.597656 137.597656 -179.492188 127.601562 -169.074219 C 121.007812 -179.066406 114.628906 -184.597656 100.167969 -184.597656 C 86.554688 -184.597656 77.625 -176.089844 76.773438 -175.027344 C 75.074219 -180.34375 69.117188 -184.597656 61.035156 -184.597656 C 54.867188 -184.597656 46.363281 -182.046875 43.382812 -173.75 L -11.273438 -20.628906 C -12.121094 -18.503906 -12.121094 -16.589844 -12.121094 -14.675781 C -12.121094 -5.316406 -4.679688 0 3.617188 0 C 10.847656 0 18.714844 -4.253906 22.117188 -13.609375 L 63.164062 -128.027344 C 68.265625 -142.277344 76.136719 -149.71875 85.707031 -149.71875 C 96.765625 -149.71875 99.742188 -141.210938 93.789062 -124.625 L 56.570312 -22.332031 C 55.507812 -19.351562 54.867188 -16.589844 54.867188 -14.25 C 54.867188 -5.105469 62.3125 0 70.394531 0 C 77.835938 0 85.707031 -4.253906 89.109375 -13.824219 L 128.878906 -125.261719 C 133.980469 -139.722656 142.488281 -149.507812 152.910156 -149.507812 C 161.203125 -149.507812 166.734375 -142.277344 162.90625 -131.855469 L 133.132812 -49.550781 C 131.21875 -44.023438 130.152344 -38.066406 130.152344 -33.175781 C 130.152344 -12.121094 146.953125 0 167.582031 0 C 190.976562 0 213.308594 -15.3125 226.492188 -56.78125 C 226.917969 -58.484375 227.34375 -59.972656 227.34375 -61.460938 C 227.34375 -68.90625 220.964844 -73.160156 214.582031 -73.160156 C 209.054688 -73.160156 203.738281 -69.96875 201.1875 -62.949219 Z M 201.1875 -62.949219 "/></g></g><g style="fill:rgb(94.509888%,59.999084%,32.548523%);fill-opacity:0.502;"><g transform="translate(216.252722, 204.777998)"><path style="stroke:none;" d="M 133.34375 -71.882812 C 127.390625 -71.882812 120.796875 -68.265625 118.246094 -60.1875 C 109.949219 -34.027344 96.550781 -25.308594 86.980469 -25.308594 C 83.367188 -25.308594 81.238281 -27.222656 81.238281 -30.625 C 81.238281 -32.324219 81.664062 -34.453125 82.304688 -36.792969 L 106.121094 -105.695312 C 106.972656 -108.25 107.398438 -110.589844 107.398438 -112.714844 C 107.398438 -122.074219 99.742188 -126.964844 91.875 -126.964844 C 85.917969 -126.964844 79.75 -124.199219 76.347656 -118.882812 C 71.882812 -121.648438 63.589844 -124.835938 52.742188 -124.835938 C 38.707031 -124.835938 23.394531 -117.179688 17.652344 -100.804688 L -2.339844 -43.597656 C -3.617188 -39.769531 -4.464844 -35.941406 -4.464844 -32.113281 C -4.464844 -14.460938 9.78125 0 28.496094 0 C 38.492188 0 48.703125 -4.464844 56.570312 -11.484375 C 63.375 -1.703125 78.476562 0 84.855469 0 C 102.507812 0 126.113281 -8.933594 139.722656 -43.382812 C 142.703125 -51.679688 145.039062 -56.996094 145.039062 -60.824219 C 145.039062 -68.054688 139.511719 -71.882812 133.34375 -71.882812 Z M 63.164062 -74.007812 L 52.953125 -42.320312 C 48.488281 -28.496094 40.40625 -25.308594 35.941406 -25.308594 C 31.261719 -25.308594 28.921875 -28.285156 28.921875 -33.175781 C 28.921875 -35.941406 29.5625 -38.492188 30.199219 -40.40625 L 43.808594 -83.152344 C 47.851562 -96.125 53.804688 -97.828125 57.207031 -97.828125 C 61.25 -97.828125 65.714844 -93.789062 65.714844 -86.554688 C 65.714844 -83.367188 64.863281 -79.324219 63.164062 -74.007812 Z M 63.164062 -74.007812 "/></g></g><g style="fill:rgb(94.509888%,59.999084%,32.548523%);fill-opacity:0.502;"><g transform="translate(327.904172, 204.777998)"><path style="stroke:none;" d="M 75.921875 -59.972656 C 67.417969 -36.578125 54.019531 -25.308594 41.683594 -25.308594 C 34.027344 -25.308594 29.347656 -29.988281 29.347656 -35.730469 C 29.347656 -37.21875 29.773438 -38.917969 30.199219 -40.40625 L 51.039062 -99.742188 L 64.863281 -99.742188 C 75.710938 -99.742188 81.453125 -107.398438 81.453125 -114.417969 C 81.453125 -119.945312 77.835938 -124.835938 69.753906 -124.835938 L 60.1875 -124.835938 L 74.433594 -166.308594 C 74.859375 -167.796875 75.074219 -169.074219 75.074219 -170.347656 C 75.074219 -178.21875 69.542969 -184.597656 60.1875 -184.597656 C 53.167969 -184.597656 47.210938 -179.707031 44.660156 -172.261719 L 27.648438 -124.835938 L 18.714844 -124.835938 C 7.230469 -124.835938 2.339844 -117.605469 2.339844 -110.800781 C 2.339844 -104.847656 5.953125 -99.742188 11.695312 -99.742188 L 18.714844 -99.742188 L 0.851562 -48.488281 L 0.851562 -48.703125 C -0.851562 -43.597656 -1.703125 -38.917969 -1.703125 -34.453125 C -1.703125 -12.761719 17.652344 0 39.554688 0 C 66.777344 0 89.535156 -20.203125 101.65625 -55.082031 C 102.082031 -56.570312 102.507812 -58.058594 102.507812 -59.335938 C 102.507812 -65.714844 96.339844 -69.753906 89.746094 -69.753906 C 84.429688 -69.753906 78.476562 -66.777344 75.921875 -59.972656 Z M 75.921875 -59.972656 "/></g></g><g style="fill:rgb(94.509888%,59.999084%,32.548523%);fill-opacity:0.502;"><g transform="translate(397.44706, 204.777998)"><path style="stroke:none;" d="M 133.34375 -71.882812 C 127.390625 -71.882812 120.796875 -68.265625 118.246094 -60.1875 C 109.949219 -34.027344 96.550781 -25.308594 86.980469 -25.308594 C 83.367188 -25.308594 81.238281 -27.222656 81.238281 -30.625 C 81.238281 -32.324219 81.664062 -34.453125 82.304688 -36.792969 L 106.121094 -105.695312 C 106.972656 -108.25 107.398438 -110.589844 107.398438 -112.714844 C 107.398438 -122.074219 99.742188 -126.964844 91.875 -126.964844 C 85.917969 -126.964844 79.75 -124.199219 76.347656 -118.882812 C 71.882812 -121.648438 63.589844 -124.835938 52.742188 -124.835938 C 38.707031 -124.835938 23.394531 -117.179688 17.652344 -100.804688 L -2.339844 -43.597656 C -3.617188 -39.769531 -4.464844 -35.941406 -4.464844 -32.113281 C -4.464844 -14.460938 9.78125 0 28.496094 0 C 38.492188 0 48.703125 -4.464844 56.570312 -11.484375 C 63.375 -1.703125 78.476562 0 84.855469 0 C 102.507812 0 126.113281 -8.933594 139.722656 -43.382812 C 142.703125 -51.679688 145.039062 -56.996094 145.039062 -60.824219 C 145.039062 -68.054688 139.511719 -71.882812 133.34375 -71.882812 Z M 63.164062 -74.007812 L 52.953125 -42.320312 C 48.488281 -28.496094 40.40625 -25.308594 35.941406 -25.308594 C 31.261719 -25.308594 28.921875 -28.285156 28.921875 -33.175781 C 28.921875 -35.941406 29.5625 -38.492188 30.199219 -40.40625 L 43.808594 -83.152344 C 47.851562 -96.125 53.804688 -97.828125 57.207031 -97.828125 C 61.25 -97.828125 65.714844 -93.789062 65.714844 -86.554688 C 65.714844 -83.367188 64.863281 -79.324219 63.164062 -74.007812 Z M 63.164062 -74.007812 "/></g></g><g style="fill:rgb(94.509888%,59.999084%,32.548523%);fill-opacity:0.502;"><g transform="translate(509.098534, 204.777998)"><path style="stroke:none;" d="M 112.925781 -60.1875 C 107.824219 -47.636719 100.378906 -38.917969 90.597656 -33.175781 C 91.023438 -35.941406 91.449219 -38.492188 91.449219 -41.257812 C 91.449219 -53.59375 84.855469 -65.289062 78.902344 -75.285156 C 74.648438 -82.515625 70.394531 -89.746094 69.542969 -96.339844 C 75.496094 -98.890625 80.175781 -105.695312 80.175781 -112.078125 C 80.175781 -121.222656 73.160156 -129.730469 62.523438 -129.730469 C 54.445312 -129.730469 46.363281 -125.6875 42.320312 -117.394531 C 34.027344 -101.230469 25.09375 -84.855469 16.589844 -68.90625 C 2.339844 -65.289062 -4.679688 -49.125 -4.679688 -35.515625 C -4.679688 -14.675781 16.164062 1.488281 53.804688 1.488281 C 90.808594 1.488281 123.988281 -12.546875 138.875 -55.507812 C 139.296875 -56.359375 139.296875 -57.421875 139.296875 -58.273438 C 139.296875 -64.4375 132.28125 -68.90625 125.476562 -68.90625 C 120.371094 -68.90625 115.265625 -66.351562 112.925781 -60.1875 Z M 45.511719 -65.925781 L 47.425781 -69.96875 C 53.804688 -62.3125 58.910156 -52.105469 58.910156 -42.109375 C 58.910156 -32.113281 53.59375 -23.820312 42.320312 -23.394531 C 35.089844 -23.394531 28.710938 -26.582031 26.371094 -32.113281 C 28.074219 -31.6875 29.773438 -31.6875 31.261719 -31.6875 C 43.597656 -31.6875 50.828125 -42.109375 50.828125 -52.53125 C 50.828125 -57.421875 49.125 -62.3125 45.511719 -65.925781 Z M 45.511719 -65.925781 "/></g></g><g style="fill:rgb(92.939758%,96.859741%,96.469116%);fill-opacity:1;"><g transform="translate(15.467128, 193.505582)"><path style="stroke:none;" d="M 201.1875 -62.949219 C 192.039062 -38.066406 180.558594 -27.007812 170.5625 -27.007812 C 166.308594 -27.007812 163.542969 -29.773438 163.542969 -34.027344 C 163.542969 -35.941406 164.179688 -38.28125 165.03125 -40.832031 L 199.273438 -134.40625 C 200.972656 -138.875 202.035156 -143.765625 202.035156 -149.71875 C 202.035156 -169.710938 187.363281 -184.597656 165.667969 -184.597656 C 152.910156 -184.597656 137.597656 -179.492188 127.601562 -169.074219 C 121.007812 -179.066406 114.628906 -184.597656 100.167969 -184.597656 C 86.554688 -184.597656 77.625 -176.089844 76.773438 -175.027344 C 75.074219 -180.34375 69.117188 -184.597656 61.035156 -184.597656 C 54.867188 -184.597656 46.363281 -182.046875 43.382812 -173.75 L -11.273438 -20.628906 C -12.121094 -18.503906 -12.121094 -16.589844 -12.121094 -14.675781 C -12.121094 -5.316406 -4.679688 0 3.617188 0 C 10.847656 0 18.714844 -4.253906 22.117188 -13.609375 L 63.164062 -128.027344 C 68.265625 -142.277344 76.136719 -149.71875 85.707031 -149.71875 C 96.765625 -149.71875 99.742188 -141.210938 93.789062 -124.625 L 56.570312 -22.332031 C 55.507812 -19.351562 54.867188 -16.589844 54.867188 -14.25 C 54.867188 -5.105469 62.3125 0 70.394531 0 C 77.835938 0 85.707031 -4.253906 89.109375 -13.824219 L 128.878906 -125.261719 C 133.980469 -139.722656 142.488281 -149.507812 152.910156 -149.507812 C 161.203125 -149.507812 166.734375 -142.277344 162.90625 -131.855469 L 133.132812 -49.550781 C 131.21875 -44.023438 130.152344 -38.066406 130.152344 -33.175781 C 130.152344 -12.121094 146.953125 0 167.582031 0 C 190.976562 0 213.308594 -15.3125 226.492188 -56.78125 C 226.917969 -58.484375 227.34375 -59.972656 227.34375 -61.460938 C 227.34375 -68.90625 220.964844 -73.160156 214.582031 -73.160156 C 209.054688 -73.160156 203.738281 -69.96875 201.1875 -62.949219 Z M 201.1875 -62.949219 "/></g></g><g style="fill:rgb(92.939758%,96.859741%,96.469116%);fill-opacity:1;"><g transform="translate(209.208935, 193.505582)"><path style="stroke:none;" d="M 133.34375 -71.882812 C 127.390625 -71.882812 120.796875 -68.265625 118.246094 -60.1875 C 109.949219 -34.027344 96.550781 -25.308594 86.980469 -25.308594 C 83.367188 -25.308594 81.238281 -27.222656 81.238281 -30.625 C 81.238281 -32.324219 81.664062 -34.453125 82.304688 -36.792969 L 106.121094 -105.695312 C 106.972656 -108.25 107.398438 -110.589844 107.398438 -112.714844 C 107.398438 -122.074219 99.742188 -126.964844 91.875 -126.964844 C 85.917969 -126.964844 79.75 -124.199219 76.347656 -118.882812 C 71.882812 -121.648438 63.589844 -124.835938 52.742188 -124.835938 C 38.707031 -124.835938 23.394531 -117.179688 17.652344 -100.804688 L -2.339844 -43.597656 C -3.617188 -39.769531 -4.464844 -35.941406 -4.464844 -32.113281 C -4.464844 -14.460938 9.78125 0 28.496094 0 C 38.492188 0 48.703125 -4.464844 56.570312 -11.484375 C 63.375 -1.703125 78.476562 0 84.855469 0 C 102.507812 0 126.113281 -8.933594 139.722656 -43.382812 C 142.703125 -51.679688 145.039062 -56.996094 145.039062 -60.824219 C 145.039062 -68.054688 139.511719 -71.882812 133.34375 -71.882812 Z M 63.164062 -74.007812 L 52.953125 -42.320312 C 48.488281 -28.496094 40.40625 -25.308594 35.941406 -25.308594 C 31.261719 -25.308594 28.921875 -28.285156 28.921875 -33.175781 C 28.921875 -35.941406 29.5625 -38.492188 30.199219 -40.40625 L 43.808594 -83.152344 C 47.851562 -96.125 53.804688 -97.828125 57.207031 -97.828125 C 61.25 -97.828125 65.714844 -93.789062 65.714844 -86.554688 C 65.714844 -83.367188 64.863281 -79.324219 63.164062 -74.007812 Z M 63.164062 -74.007812 "/></g></g><g style="fill:rgb(92.939758%,96.859741%,96.469116%);fill-opacity:1;"><g transform="translate(320.860385, 193.505582)"><path style="stroke:none;" d="M 75.921875 -59.972656 C 67.417969 -36.578125 54.019531 -25.308594 41.683594 -25.308594 C 34.027344 -25.308594 29.347656 -29.988281 29.347656 -35.730469 C 29.347656 -37.21875 29.773438 -38.917969 30.199219 -40.40625 L 51.039062 -99.742188 L 64.863281 -99.742188 C 75.710938 -99.742188 81.453125 -107.398438 81.453125 -114.417969 C 81.453125 -119.945312 77.835938 -124.835938 69.753906 -124.835938 L 60.1875 -124.835938 L 74.433594 -166.308594 C 74.859375 -167.796875 75.074219 -169.074219 75.074219 -170.347656 C 75.074219 -178.21875 69.542969 -184.597656 60.1875 -184.597656 C 53.167969 -184.597656 47.210938 -179.707031 44.660156 -172.261719 L 27.648438 -124.835938 L 18.714844 -124.835938 C 7.230469 -124.835938 2.339844 -117.605469 2.339844 -110.800781 C 2.339844 -104.847656 5.953125 -99.742188 11.695312 -99.742188 L 18.714844 -99.742188 L 0.851562 -48.488281 L 0.851562 -48.703125 C -0.851562 -43.597656 -1.703125 -38.917969 -1.703125 -34.453125 C -1.703125 -12.761719 17.652344 0 39.554688 0 C 66.777344 0 89.535156 -20.203125 101.65625 -55.082031 C 102.082031 -56.570312 102.507812 -58.058594 102.507812 -59.335938 C 102.507812 -65.714844 96.339844 -69.753906 89.746094 -69.753906 C 84.429688 -69.753906 78.476562 -66.777344 75.921875 -59.972656 Z M 75.921875 -59.972656 "/></g></g><g style="fill:rgb(92.939758%,96.859741%,96.469116%);fill-opacity:1;"><g transform="translate(390.403273, 193.505582)"><path style="stroke:none;" d="M 133.34375 -71.882812 C 127.390625 -71.882812 120.796875 -68.265625 118.246094 -60.1875 C 109.949219 -34.027344 96.550781 -25.308594 86.980469 -25.308594 C 83.367188 -25.308594 81.238281 -27.222656 81.238281 -30.625 C 81.238281 -32.324219 81.664062 -34.453125 82.304688 -36.792969 L 106.121094 -105.695312 C 106.972656 -108.25 107.398438 -110.589844 107.398438 -112.714844 C 107.398438 -122.074219 99.742188 -126.964844 91.875 -126.964844 C 85.917969 -126.964844 79.75 -124.199219 76.347656 -118.882812 C 71.882812 -121.648438 63.589844 -124.835938 52.742188 -124.835938 C 38.707031 -124.835938 23.394531 -117.179688 17.652344 -100.804688 L -2.339844 -43.597656 C -3.617188 -39.769531 -4.464844 -35.941406 -4.464844 -32.113281 C -4.464844 -14.460938 9.78125 0 28.496094 0 C 38.492188 0 48.703125 -4.464844 56.570312 -11.484375 C 63.375 -1.703125 78.476562 0 84.855469 0 C 102.507812 0 126.113281 -8.933594 139.722656 -43.382812 C 142.703125 -51.679688 145.039062 -56.996094 145.039062 -60.824219 C 145.039062 -68.054688 139.511719 -71.882812 133.34375 -71.882812 Z M 63.164062 -74.007812 L 52.953125 -42.320312 C 48.488281 -28.496094 40.40625 -25.308594 35.941406 -25.308594 C 31.261719 -25.308594 28.921875 -28.285156 28.921875 -33.175781 C 28.921875 -35.941406 29.5625 -38.492188 30.199219 -40.40625 L 43.808594 -83.152344 C 47.851562 -96.125 53.804688 -97.828125 57.207031 -97.828125 C 61.25 -97.828125 65.714844 -93.789062 65.714844 -86.554688 C 65.714844 -83.367188 64.863281 -79.324219 63.164062 -74.007812 Z M 63.164062 -74.007812 "/></g></g><g style="fill:rgb(92.939758%,96.859741%,96.469116%);fill-opacity:1;"><g transform="translate(502.054747, 193.505582)"><path style="stroke:none;" d="M 112.925781 -60.1875 C 107.824219 -47.636719 100.378906 -38.917969 90.597656 -33.175781 C 91.023438 -35.941406 91.449219 -38.492188 91.449219 -41.257812 C 91.449219 -53.59375 84.855469 -65.289062 78.902344 -75.285156 C 74.648438 -82.515625 70.394531 -89.746094 69.542969 -96.339844 C 75.496094 -98.890625 80.175781 -105.695312 80.175781 -112.078125 C 80.175781 -121.222656 73.160156 -129.730469 62.523438 -129.730469 C 54.445312 -129.730469 46.363281 -125.6875 42.320312 -117.394531 C 34.027344 -101.230469 25.09375 -84.855469 16.589844 -68.90625 C 2.339844 -65.289062 -4.679688 -49.125 -4.679688 -35.515625 C -4.679688 -14.675781 16.164062 1.488281 53.804688 1.488281 C 90.808594 1.488281 123.988281 -12.546875 138.875 -55.507812 C 139.296875 -56.359375 139.296875 -57.421875 139.296875 -58.273438 C 139.296875 -64.4375 132.28125 -68.90625 125.476562 -68.90625 C 120.371094 -68.90625 115.265625 -66.351562 112.925781 -60.1875 Z M 45.511719 -65.925781 L 47.425781 -69.96875 C 53.804688 -62.3125 58.910156 -52.105469 58.910156 -42.109375 C 58.910156 -32.113281 53.59375 -23.820312 42.320312 -23.394531 C 35.089844 -23.394531 28.710938 -26.582031 26.371094 -32.113281 C 28.074219 -31.6875 29.773438 -31.6875 31.261719 -31.6875 C 43.597656 -31.6875 50.828125 -42.109375 50.828125 -52.53125 C 50.828125 -57.421875 49.125 -62.3125 45.511719 -65.925781 Z M 45.511719 -65.925781 "/></g></g><g style="fill:rgb(94.509888%,59.999084%,32.548523%);fill-opacity:0.302;"><g transform="translate(80.573817, 443.100082)"><path style="stroke:none;" d="M 101.019531 -184.597656 C 95.0625 -184.597656 87.40625 -183.320312 82.089844 -179.492188 C 81.664062 -186.511719 74.648438 -191.191406 66.992188 -191.191406 C 59.335938 -191.191406 51.464844 -186.9375 47.636719 -176.304688 L -6.167969 -22.117188 C -7.019531 -19.566406 -7.65625 -17.226562 -7.65625 -15.097656 C -7.65625 -5.742188 0.210938 0 8.71875 0 C 15.738281 0 23.179688 -4.253906 26.582031 -14.25 L 40.832031 -56.144531 C 48.277344 -49.125 59.121094 -44.660156 71.03125 -44.660156 C 91.875 -44.660156 114.417969 -57.421875 123.988281 -84.429688 L 140.789062 -131.644531 C 142.703125 -136.960938 143.765625 -142.488281 143.765625 -147.167969 C 143.765625 -171.625 124.410156 -184.597656 101.019531 -184.597656 Z M 105.484375 -130.578125 L 92.511719 -92.511719 C 88.894531 -81.878906 80.816406 -76.347656 72.519531 -76.347656 C 63.164062 -76.347656 55.507812 -83.367188 55.507812 -92.9375 C 55.507812 -94.636719 55.71875 -95.914062 56.359375 -97.617188 L 71.03125 -140.789062 C 75.074219 -152.484375 83.792969 -156.523438 92.296875 -156.523438 C 100.804688 -156.523438 107.1875 -150.996094 107.1875 -140.789062 C 107.1875 -138.023438 106.761719 -134.621094 105.484375 -130.578125 Z M 105.484375 -130.578125 "/></g></g><g style="fill:rgb(94.509888%,59.999084%,32.548523%);fill-opacity:0.302;"><g transform="translate(203.709412, 443.100082)"><path style="stroke:none;" d="M 57.207031 -144.402344 C 66.777344 -144.402344 74.648438 -152.273438 74.648438 -162.054688 C 74.648438 -171.625 66.777344 -179.28125 57.207031 -179.28125 C 47.636719 -179.28125 39.769531 -171.625 39.769531 -162.054688 C 39.769531 -152.273438 47.636719 -144.402344 57.207031 -144.402344 Z M 28.496094 -35.941406 L 51.890625 -102.71875 C 52.742188 -105.484375 53.804688 -108.460938 53.804688 -110.589844 C 53.804688 -119.945312 46.789062 -124.835938 39.554688 -124.835938 C 32.964844 -124.835938 25.945312 -120.160156 22.542969 -110.164062 C 15.738281 -90.171875 6.804688 -64.863281 0 -45.085938 C -1.277344 -40.832031 -2.976562 -35.089844 -2.976562 -31.476562 C -2.976562 -11.484375 13.609375 0 33.175781 0 C 54.019531 0 76.988281 -12.761719 91.875 -56.78125 C 92.296875 -58.058594 92.511719 -59.335938 92.511719 -60.609375 C 92.511719 -67.203125 86.132812 -71.246094 79.75 -71.246094 C 74.007812 -71.246094 68.265625 -68.265625 65.714844 -61.675781 C 55.71875 -34.027344 44.449219 -25.308594 35.941406 -25.308594 C 31.050781 -25.308594 27.859375 -28.496094 27.859375 -32.539062 C 27.859375 -33.601562 28.074219 -34.664062 28.496094 -35.941406 Z M 28.496094 -35.941406 "/></g></g><g style="fill:rgb(94.509888%,59.999084%,32.548523%);fill-opacity:0.302;"><g transform="translate(262.406171, 443.100082)"><path style="stroke:none;" d="M 81.453125 -18.503906 L 110.800781 -100.804688 C 112.289062 -105.273438 112.925781 -108.886719 112.925781 -111.652344 C 112.925781 -121.222656 106.335938 -123.136719 103.570312 -124.199219 C 102.292969 -124.625 100.804688 -124.835938 99.316406 -124.835938 C 92.9375 -124.835938 86.34375 -121.648438 83.792969 -114.203125 C 76.5625 -121.859375 68.480469 -124.835938 57.207031 -124.835938 C 41.46875 -124.835938 24.882812 -115.90625 17.863281 -96.125 L -0.210938 -44.660156 C -1.703125 -40.195312 -2.550781 -35.515625 -2.550781 -31.261719 C -2.550781 -14.460938 9.144531 -3.191406 23.605469 0 C 3.828125 3.828125 -21.480469 11.484375 -27.859375 32.539062 C -28.921875 36.152344 -29.347656 39.34375 -29.347656 42.535156 C -29.347656 63.164062 -10.207031 76.773438 10.632812 76.773438 C 31.6875 76.773438 51.464844 65.503906 60.1875 40.832031 L 69.96875 13.824219 C 100.378906 4.253906 131.644531 -12.335938 146.316406 -56.996094 C 146.953125 -58.695312 147.167969 -60.398438 147.167969 -61.886719 C 147.167969 -69.117188 141.636719 -73.371094 135.257812 -73.371094 C 129.515625 -73.371094 123.347656 -69.753906 120.371094 -61.460938 C 112.503906 -39.769531 98.253906 -27.007812 81.453125 -18.503906 Z M 72.308594 -84.21875 L 56.144531 -39.34375 C 51.890625 -31.261719 44.660156 -25.308594 37.429688 -25.308594 C 32.324219 -25.308594 28.496094 -27.859375 28.496094 -32.539062 C 28.496094 -33.601562 28.921875 -35.304688 29.347656 -36.792969 L 48.488281 -90.808594 C 50.617188 -96.765625 55.507812 -99.742188 60.1875 -99.742188 C 66.777344 -99.742188 72.519531 -94.851562 72.519531 -87.195312 C 72.519531 -86.34375 72.519531 -85.28125 72.308594 -84.21875 Z M 31.050781 23.605469 L 25.945312 38.066406 C 22.96875 45.9375 16.375 49.976562 9.996094 49.976562 C 5.105469 49.976562 2.765625 47 2.765625 43.171875 C 2.765625 41.894531 3.191406 40.195312 3.828125 38.707031 C 6.804688 31.261719 17.226562 27.222656 31.050781 23.605469 Z M 31.050781 23.605469 "/></g></g><g style="fill:rgb(94.509888%,59.999084%,32.548523%);fill-opacity:0.302;"><g transform="translate(375.971643, 443.100082)"><path style="stroke:none;" d="M 133.34375 -71.882812 C 127.390625 -71.882812 120.796875 -68.265625 118.246094 -60.1875 C 109.949219 -34.027344 96.550781 -25.308594 86.980469 -25.308594 C 83.367188 -25.308594 81.238281 -27.222656 81.238281 -30.625 C 81.238281 -32.324219 81.664062 -34.453125 82.304688 -36.792969 L 106.121094 -105.695312 C 106.972656 -108.25 107.398438 -110.589844 107.398438 -112.714844 C 107.398438 -122.074219 99.742188 -126.964844 91.875 -126.964844 C 85.917969 -126.964844 79.75 -124.199219 76.347656 -118.882812 C 71.882812 -121.648438 63.589844 -124.835938 52.742188 -124.835938 C 38.707031 -124.835938 23.394531 -117.179688 17.652344 -100.804688 L -2.339844 -43.597656 C -3.617188 -39.769531 -4.464844 -35.941406 -4.464844 -32.113281 C -4.464844 -14.460938 9.78125 0 28.496094 0 C 38.492188 0 48.703125 -4.464844 56.570312 -11.484375 C 63.375 -1.703125 78.476562 0 84.855469 0 C 102.507812 0 126.113281 -8.933594 139.722656 -43.382812 C 142.703125 -51.679688 145.039062 -56.996094 145.039062 -60.824219 C 145.039062 -68.054688 139.511719 -71.882812 133.34375 -71.882812 Z M 63.164062 -74.007812 L 52.953125 -42.320312 C 48.488281 -28.496094 40.40625 -25.308594 35.941406 -25.308594 C 31.261719 -25.308594 28.921875 -28.285156 28.921875 -33.175781 C 28.921875 -35.941406 29.5625 -38.492188 30.199219 -40.40625 L 43.808594 -83.152344 C 47.851562 -96.125 53.804688 -97.828125 57.207031 -97.828125 C 61.25 -97.828125 65.714844 -93.789062 65.714844 -86.554688 C 65.714844 -83.367188 64.863281 -79.324219 63.164062 -74.007812 Z M 63.164062 -74.007812 "/></g></g><g style="fill:rgb(94.509888%,59.999084%,32.548523%);fill-opacity:0.302;"><g transform="translate(487.623093, 443.100082)"><path style="stroke:none;" d="M 81.453125 -18.503906 L 110.800781 -100.804688 C 112.289062 -105.273438 112.925781 -108.886719 112.925781 -111.652344 C 112.925781 -121.222656 106.335938 -123.136719 103.570312 -124.199219 C 102.292969 -124.625 100.804688 -124.835938 99.316406 -124.835938 C 92.9375 -124.835938 86.34375 -121.648438 83.792969 -114.203125 C 76.5625 -121.859375 68.480469 -124.835938 57.207031 -124.835938 C 41.46875 -124.835938 24.882812 -115.90625 17.863281 -96.125 L -0.210938 -44.660156 C -1.703125 -40.195312 -2.550781 -35.515625 -2.550781 -31.261719 C -2.550781 -14.460938 9.144531 -3.191406 23.605469 0 C 3.828125 3.828125 -21.480469 11.484375 -27.859375 32.539062 C -28.921875 36.152344 -29.347656 39.34375 -29.347656 42.535156 C -29.347656 63.164062 -10.207031 76.773438 10.632812 76.773438 C 31.6875 76.773438 51.464844 65.503906 60.1875 40.832031 L 69.96875 13.824219 C 100.378906 4.253906 131.644531 -12.335938 146.316406 -56.996094 C 146.953125 -58.695312 147.167969 -60.398438 147.167969 -61.886719 C 147.167969 -69.117188 141.636719 -73.371094 135.257812 -73.371094 C 129.515625 -73.371094 123.347656 -69.753906 120.371094 -61.460938 C 112.503906 -39.769531 98.253906 -27.007812 81.453125 -18.503906 Z M 72.308594 -84.21875 L 56.144531 -39.34375 C 51.890625 -31.261719 44.660156 -25.308594 37.429688 -25.308594 C 32.324219 -25.308594 28.496094 -27.859375 28.496094 -32.539062 C 28.496094 -33.601562 28.921875 -35.304688 29.347656 -36.792969 L 48.488281 -90.808594 C 50.617188 -96.765625 55.507812 -99.742188 60.1875 -99.742188 C 66.777344 -99.742188 72.519531 -94.851562 72.519531 -87.195312 C 72.519531 -86.34375 72.519531 -85.28125 72.308594 -84.21875 Z M 31.050781 23.605469 L 25.945312 38.066406 C 22.96875 45.9375 16.375 49.976562 9.996094 49.976562 C 5.105469 49.976562 2.765625 47 2.765625 43.171875 C 2.765625 41.894531 3.191406 40.195312 3.828125 38.707031 C 6.804688 31.261719 17.226562 27.222656 31.050781 23.605469 Z M 31.050781 23.605469 "/></g></g><g style="fill:rgb(94.509888%,59.999084%,32.548523%);fill-opacity:0.302;"><g transform="translate(601.188589, 443.100082)"><path style="stroke:none;" d="M 133.34375 -71.882812 C 127.390625 -71.882812 120.796875 -68.265625 118.246094 -60.1875 C 109.949219 -34.027344 96.550781 -25.308594 86.980469 -25.308594 C 83.367188 -25.308594 81.238281 -27.222656 81.238281 -30.625 C 81.238281 -32.324219 81.664062 -34.453125 82.304688 -36.792969 L 106.121094 -105.695312 C 106.972656 -108.25 107.398438 -110.589844 107.398438 -112.714844 C 107.398438 -122.074219 99.742188 -126.964844 91.875 -126.964844 C 85.917969 -126.964844 79.75 -124.199219 76.347656 -118.882812 C 71.882812 -121.648438 63.589844 -124.835938 52.742188 -124.835938 C 38.707031 -124.835938 23.394531 -117.179688 17.652344 -100.804688 L -2.339844 -43.597656 C -3.617188 -39.769531 -4.464844 -35.941406 -4.464844 -32.113281 C -4.464844 -14.460938 9.78125 0 28.496094 0 C 38.492188 0 48.703125 -4.464844 56.570312 -11.484375 C 63.375 -1.703125 78.476562 0 84.855469 0 C 102.507812 0 126.113281 -8.933594 139.722656 -43.382812 C 142.703125 -51.679688 145.039062 -56.996094 145.039062 -60.824219 C 145.039062 -68.054688 139.511719 -71.882812 133.34375 -71.882812 Z M 63.164062 -74.007812 L 52.953125 -42.320312 C 48.488281 -28.496094 40.40625 -25.308594 35.941406 -25.308594 C 31.261719 -25.308594 28.921875 -28.285156 28.921875 -33.175781 C 28.921875 -35.941406 29.5625 -38.492188 30.199219 -40.40625 L 43.808594 -83.152344 C 47.851562 -96.125 53.804688 -97.828125 57.207031 -97.828125 C 61.25 -97.828125 65.714844 -93.789062 65.714844 -86.554688 C 65.714844 -83.367188 64.863281 -79.324219 63.164062 -74.007812 Z M 63.164062 -74.007812 "/></g></g><g style="fill:rgb(94.509888%,59.999084%,32.548523%);fill-opacity:0.502;"><g transform="translate(72.684775, 430.474983)"><path style="stroke:none;" d="M 101.019531 -184.597656 C 95.0625 -184.597656 87.40625 -183.320312 82.089844 -179.492188 C 81.664062 -186.511719 74.648438 -191.191406 66.992188 -191.191406 C 59.335938 -191.191406 51.464844 -186.9375 47.636719 -176.304688 L -6.167969 -22.117188 C -7.019531 -19.566406 -7.65625 -17.226562 -7.65625 -15.097656 C -7.65625 -5.742188 0.210938 0 8.71875 0 C 15.738281 0 23.179688 -4.253906 26.582031 -14.25 L 40.832031 -56.144531 C 48.277344 -49.125 59.121094 -44.660156 71.03125 -44.660156 C 91.875 -44.660156 114.417969 -57.421875 123.988281 -84.429688 L 140.789062 -131.644531 C 142.703125 -136.960938 143.765625 -142.488281 143.765625 -147.167969 C 143.765625 -171.625 124.410156 -184.597656 101.019531 -184.597656 Z M 105.484375 -130.578125 L 92.511719 -92.511719 C 88.894531 -81.878906 80.816406 -76.347656 72.519531 -76.347656 C 63.164062 -76.347656 55.507812 -83.367188 55.507812 -92.9375 C 55.507812 -94.636719 55.71875 -95.914062 56.359375 -97.617188 L 71.03125 -140.789062 C 75.074219 -152.484375 83.792969 -156.523438 92.296875 -156.523438 C 100.804688 -156.523438 107.1875 -150.996094 107.1875 -140.789062 C 107.1875 -138.023438 106.761719 -134.621094 105.484375 -130.578125 Z M 105.484375 -130.578125 "/></g></g><g style="fill:rgb(94.509888%,59.999084%,32.548523%);fill-opacity:0.502;"><g transform="translate(195.820371, 430.474983)"><path style="stroke:none;" d="M 57.207031 -144.402344 C 66.777344 -144.402344 74.648438 -152.273438 74.648438 -162.054688 C 74.648438 -171.625 66.777344 -179.28125 57.207031 -179.28125 C 47.636719 -179.28125 39.769531 -171.625 39.769531 -162.054688 C 39.769531 -152.273438 47.636719 -144.402344 57.207031 -144.402344 Z M 28.496094 -35.941406 L 51.890625 -102.71875 C 52.742188 -105.484375 53.804688 -108.460938 53.804688 -110.589844 C 53.804688 -119.945312 46.789062 -124.835938 39.554688 -124.835938 C 32.964844 -124.835938 25.945312 -120.160156 22.542969 -110.164062 C 15.738281 -90.171875 6.804688 -64.863281 0 -45.085938 C -1.277344 -40.832031 -2.976562 -35.089844 -2.976562 -31.476562 C -2.976562 -11.484375 13.609375 0 33.175781 0 C 54.019531 0 76.988281 -12.761719 91.875 -56.78125 C 92.296875 -58.058594 92.511719 -59.335938 92.511719 -60.609375 C 92.511719 -67.203125 86.132812 -71.246094 79.75 -71.246094 C 74.007812 -71.246094 68.265625 -68.265625 65.714844 -61.675781 C 55.71875 -34.027344 44.449219 -25.308594 35.941406 -25.308594 C 31.050781 -25.308594 27.859375 -28.496094 27.859375 -32.539062 C 27.859375 -33.601562 28.074219 -34.664062 28.496094 -35.941406 Z M 28.496094 -35.941406 "/></g></g><g style="fill:rgb(94.509888%,59.999084%,32.548523%);fill-opacity:0.502;"><g transform="translate(254.517129, 430.474983)"><path style="stroke:none;" d="M 81.453125 -18.503906 L 110.800781 -100.804688 C 112.289062 -105.273438 112.925781 -108.886719 112.925781 -111.652344 C 112.925781 -121.222656 106.335938 -123.136719 103.570312 -124.199219 C 102.292969 -124.625 100.804688 -124.835938 99.316406 -124.835938 C 92.9375 -124.835938 86.34375 -121.648438 83.792969 -114.203125 C 76.5625 -121.859375 68.480469 -124.835938 57.207031 -124.835938 C 41.46875 -124.835938 24.882812 -115.90625 17.863281 -96.125 L -0.210938 -44.660156 C -1.703125 -40.195312 -2.550781 -35.515625 -2.550781 -31.261719 C -2.550781 -14.460938 9.144531 -3.191406 23.605469 0 C 3.828125 3.828125 -21.480469 11.484375 -27.859375 32.539062 C -28.921875 36.152344 -29.347656 39.34375 -29.347656 42.535156 C -29.347656 63.164062 -10.207031 76.773438 10.632812 76.773438 C 31.6875 76.773438 51.464844 65.503906 60.1875 40.832031 L 69.96875 13.824219 C 100.378906 4.253906 131.644531 -12.335938 146.316406 -56.996094 C 146.953125 -58.695312 147.167969 -60.398438 147.167969 -61.886719 C 147.167969 -69.117188 141.636719 -73.371094 135.257812 -73.371094 C 129.515625 -73.371094 123.347656 -69.753906 120.371094 -61.460938 C 112.503906 -39.769531 98.253906 -27.007812 81.453125 -18.503906 Z M 72.308594 -84.21875 L 56.144531 -39.34375 C 51.890625 -31.261719 44.660156 -25.308594 37.429688 -25.308594 C 32.324219 -25.308594 28.496094 -27.859375 28.496094 -32.539062 C 28.496094 -33.601562 28.921875 -35.304688 29.347656 -36.792969 L 48.488281 -90.808594 C 50.617188 -96.765625 55.507812 -99.742188 60.1875 -99.742188 C 66.777344 -99.742188 72.519531 -94.851562 72.519531 -87.195312 C 72.519531 -86.34375 72.519531 -85.28125 72.308594 -84.21875 Z M 31.050781 23.605469 L 25.945312 38.066406 C 22.96875 45.9375 16.375 49.976562 9.996094 49.976562 C 5.105469 49.976562 2.765625 47 2.765625 43.171875 C 2.765625 41.894531 3.191406 40.195312 3.828125 38.707031 C 6.804688 31.261719 17.226562 27.222656 31.050781 23.605469 Z M 31.050781 23.605469 "/></g></g><g style="fill:rgb(94.509888%,59.999084%,32.548523%);fill-opacity:0.502;"><g transform="translate(368.082601, 430.474983)"><path style="stroke:none;" d="M 133.34375 -71.882812 C 127.390625 -71.882812 120.796875 -68.265625 118.246094 -60.1875 C 109.949219 -34.027344 96.550781 -25.308594 86.980469 -25.308594 C 83.367188 -25.308594 81.238281 -27.222656 81.238281 -30.625 C 81.238281 -32.324219 81.664062 -34.453125 82.304688 -36.792969 L 106.121094 -105.695312 C 106.972656 -108.25 107.398438 -110.589844 107.398438 -112.714844 C 107.398438 -122.074219 99.742188 -126.964844 91.875 -126.964844 C 85.917969 -126.964844 79.75 -124.199219 76.347656 -118.882812 C 71.882812 -121.648438 63.589844 -124.835938 52.742188 -124.835938 C 38.707031 -124.835938 23.394531 -117.179688 17.652344 -100.804688 L -2.339844 -43.597656 C -3.617188 -39.769531 -4.464844 -35.941406 -4.464844 -32.113281 C -4.464844 -14.460938 9.78125 0 28.496094 0 C 38.492188 0 48.703125 -4.464844 56.570312 -11.484375 C 63.375 -1.703125 78.476562 0 84.855469 0 C 102.507812 0 126.113281 -8.933594 139.722656 -43.382812 C 142.703125 -51.679688 145.039062 -56.996094 145.039062 -60.824219 C 145.039062 -68.054688 139.511719 -71.882812 133.34375 -71.882812 Z M 63.164062 -74.007812 L 52.953125 -42.320312 C 48.488281 -28.496094 40.40625 -25.308594 35.941406 -25.308594 C 31.261719 -25.308594 28.921875 -28.285156 28.921875 -33.175781 C 28.921875 -35.941406 29.5625 -38.492188 30.199219 -40.40625 L 43.808594 -83.152344 C 47.851562 -96.125 53.804688 -97.828125 57.207031 -97.828125 C 61.25 -97.828125 65.714844 -93.789062 65.714844 -86.554688 C 65.714844 -83.367188 64.863281 -79.324219 63.164062 -74.007812 Z M 63.164062 -74.007812 "/></g></g><g style="fill:rgb(94.509888%,59.999084%,32.548523%);fill-opacity:0.502;"><g transform="translate(479.734051, 430.474983)"><path style="stroke:none;" d="M 81.453125 -18.503906 L 110.800781 -100.804688 C 112.289062 -105.273438 112.925781 -108.886719 112.925781 -111.652344 C 112.925781 -121.222656 106.335938 -123.136719 103.570312 -124.199219 C 102.292969 -124.625 100.804688 -124.835938 99.316406 -124.835938 C 92.9375 -124.835938 86.34375 -121.648438 83.792969 -114.203125 C 76.5625 -121.859375 68.480469 -124.835938 57.207031 -124.835938 C 41.46875 -124.835938 24.882812 -115.90625 17.863281 -96.125 L -0.210938 -44.660156 C -1.703125 -40.195312 -2.550781 -35.515625 -2.550781 -31.261719 C -2.550781 -14.460938 9.144531 -3.191406 23.605469 0 C 3.828125 3.828125 -21.480469 11.484375 -27.859375 32.539062 C -28.921875 36.152344 -29.347656 39.34375 -29.347656 42.535156 C -29.347656 63.164062 -10.207031 76.773438 10.632812 76.773438 C 31.6875 76.773438 51.464844 65.503906 60.1875 40.832031 L 69.96875 13.824219 C 100.378906 4.253906 131.644531 -12.335938 146.316406 -56.996094 C 146.953125 -58.695312 147.167969 -60.398438 147.167969 -61.886719 C 147.167969 -69.117188 141.636719 -73.371094 135.257812 -73.371094 C 129.515625 -73.371094 123.347656 -69.753906 120.371094 -61.460938 C 112.503906 -39.769531 98.253906 -27.007812 81.453125 -18.503906 Z M 72.308594 -84.21875 L 56.144531 -39.34375 C 51.890625 -31.261719 44.660156 -25.308594 37.429688 -25.308594 C 32.324219 -25.308594 28.496094 -27.859375 28.496094 -32.539062 C 28.496094 -33.601562 28.921875 -35.304688 29.347656 -36.792969 L 48.488281 -90.808594 C 50.617188 -96.765625 55.507812 -99.742188 60.1875 -99.742188 C 66.777344 -99.742188 72.519531 -94.851562 72.519531 -87.195312 C 72.519531 -86.34375 72.519531 -85.28125 72.308594 -84.21875 Z M 31.050781 23.605469 L 25.945312 38.066406 C 22.96875 45.9375 16.375 49.976562 9.996094 49.976562 C 5.105469 49.976562 2.765625 47 2.765625 43.171875 C 2.765625 41.894531 3.191406 40.195312 3.828125 38.707031 C 6.804688 31.261719 17.226562 27.222656 31.050781 23.605469 Z M 31.050781 23.605469 "/></g></g><g style="fill:rgb(94.509888%,59.999084%,32.548523%);fill-opacity:0.502;"><g transform="translate(593.299547, 430.474983)"><path style="stroke:none;" d="M 133.34375 -71.882812 C 127.390625 -71.882812 120.796875 -68.265625 118.246094 -60.1875 C 109.949219 -34.027344 96.550781 -25.308594 86.980469 -25.308594 C 83.367188 -25.308594 81.238281 -27.222656 81.238281 -30.625 C 81.238281 -32.324219 81.664062 -34.453125 82.304688 -36.792969 L 106.121094 -105.695312 C 106.972656 -108.25 107.398438 -110.589844 107.398438 -112.714844 C 107.398438 -122.074219 99.742188 -126.964844 91.875 -126.964844 C 85.917969 -126.964844 79.75 -124.199219 76.347656 -118.882812 C 71.882812 -121.648438 63.589844 -124.835938 52.742188 -124.835938 C 38.707031 -124.835938 23.394531 -117.179688 17.652344 -100.804688 L -2.339844 -43.597656 C -3.617188 -39.769531 -4.464844 -35.941406 -4.464844 -32.113281 C -4.464844 -14.460938 9.78125 0 28.496094 0 C 38.492188 0 48.703125 -4.464844 56.570312 -11.484375 C 63.375 -1.703125 78.476562 0 84.855469 0 C 102.507812 0 126.113281 -8.933594 139.722656 -43.382812 C 142.703125 -51.679688 145.039062 -56.996094 145.039062 -60.824219 C 145.039062 -68.054688 139.511719 -71.882812 133.34375 -71.882812 Z M 63.164062 -74.007812 L 52.953125 -42.320312 C 48.488281 -28.496094 40.40625 -25.308594 35.941406 -25.308594 C 31.261719 -25.308594 28.921875 -28.285156 28.921875 -33.175781 C 28.921875 -35.941406 29.5625 -38.492188 30.199219 -40.40625 L 43.808594 -83.152344 C 47.851562 -96.125 53.804688 -97.828125 57.207031 -97.828125 C 61.25 -97.828125 65.714844 -93.789062 65.714844 -86.554688 C 65.714844 -83.367188 64.863281 -79.324219 63.164062 -74.007812 Z M 63.164062 -74.007812 "/></g></g><g style="fill:rgb(92.939758%,96.859741%,96.469116%);fill-opacity:1;"><g transform="translate(64.795736, 417.849872)"><path style="stroke:none;" d="M 101.019531 -184.597656 C 95.0625 -184.597656 87.40625 -183.320312 82.089844 -179.492188 C 81.664062 -186.511719 74.648438 -191.191406 66.992188 -191.191406 C 59.335938 -191.191406 51.464844 -186.9375 47.636719 -176.304688 L -6.167969 -22.117188 C -7.019531 -19.566406 -7.65625 -17.226562 -7.65625 -15.097656 C -7.65625 -5.742188 0.210938 0 8.71875 0 C 15.738281 0 23.179688 -4.253906 26.582031 -14.25 L 40.832031 -56.144531 C 48.277344 -49.125 59.121094 -44.660156 71.03125 -44.660156 C 91.875 -44.660156 114.417969 -57.421875 123.988281 -84.429688 L 140.789062 -131.644531 C 142.703125 -136.960938 143.765625 -142.488281 143.765625 -147.167969 C 143.765625 -171.625 124.410156 -184.597656 101.019531 -184.597656 Z M 105.484375 -130.578125 L 92.511719 -92.511719 C 88.894531 -81.878906 80.816406 -76.347656 72.519531 -76.347656 C 63.164062 -76.347656 55.507812 -83.367188 55.507812 -92.9375 C 55.507812 -94.636719 55.71875 -95.914062 56.359375 -97.617188 L 71.03125 -140.789062 C 75.074219 -152.484375 83.792969 -156.523438 92.296875 -156.523438 C 100.804688 -156.523438 107.1875 -150.996094 107.1875 -140.789062 C 107.1875 -138.023438 106.761719 -134.621094 105.484375 -130.578125 Z M 105.484375 -130.578125 "/></g></g><g style="fill:rgb(92.939758%,96.859741%,96.469116%);fill-opacity:1;"><g transform="translate(187.931331, 417.849872)"><path style="stroke:none;" d="M 57.207031 -144.402344 C 66.777344 -144.402344 74.648438 -152.273438 74.648438 -162.054688 C 74.648438 -171.625 66.777344 -179.28125 57.207031 -179.28125 C 47.636719 -179.28125 39.769531 -171.625 39.769531 -162.054688 C 39.769531 -152.273438 47.636719 -144.402344 57.207031 -144.402344 Z M 28.496094 -35.941406 L 51.890625 -102.71875 C 52.742188 -105.484375 53.804688 -108.460938 53.804688 -110.589844 C 53.804688 -119.945312 46.789062 -124.835938 39.554688 -124.835938 C 32.964844 -124.835938 25.945312 -120.160156 22.542969 -110.164062 C 15.738281 -90.171875 6.804688 -64.863281 0 -45.085938 C -1.277344 -40.832031 -2.976562 -35.089844 -2.976562 -31.476562 C -2.976562 -11.484375 13.609375 0 33.175781 0 C 54.019531 0 76.988281 -12.761719 91.875 -56.78125 C 92.296875 -58.058594 92.511719 -59.335938 92.511719 -60.609375 C 92.511719 -67.203125 86.132812 -71.246094 79.75 -71.246094 C 74.007812 -71.246094 68.265625 -68.265625 65.714844 -61.675781 C 55.71875 -34.027344 44.449219 -25.308594 35.941406 -25.308594 C 31.050781 -25.308594 27.859375 -28.496094 27.859375 -32.539062 C 27.859375 -33.601562 28.074219 -34.664062 28.496094 -35.941406 Z M 28.496094 -35.941406 "/></g></g><g style="fill:rgb(92.939758%,96.859741%,96.469116%);fill-opacity:1;"><g transform="translate(246.62809, 417.849872)"><path style="stroke:none;" d="M 81.453125 -18.503906 L 110.800781 -100.804688 C 112.289062 -105.273438 112.925781 -108.886719 112.925781 -111.652344 C 112.925781 -121.222656 106.335938 -123.136719 103.570312 -124.199219 C 102.292969 -124.625 100.804688 -124.835938 99.316406 -124.835938 C 92.9375 -124.835938 86.34375 -121.648438 83.792969 -114.203125 C 76.5625 -121.859375 68.480469 -124.835938 57.207031 -124.835938 C 41.46875 -124.835938 24.882812 -115.90625 17.863281 -96.125 L -0.210938 -44.660156 C -1.703125 -40.195312 -2.550781 -35.515625 -2.550781 -31.261719 C -2.550781 -14.460938 9.144531 -3.191406 23.605469 0 C 3.828125 3.828125 -21.480469 11.484375 -27.859375 32.539062 C -28.921875 36.152344 -29.347656 39.34375 -29.347656 42.535156 C -29.347656 63.164062 -10.207031 76.773438 10.632812 76.773438 C 31.6875 76.773438 51.464844 65.503906 60.1875 40.832031 L 69.96875 13.824219 C 100.378906 4.253906 131.644531 -12.335938 146.316406 -56.996094 C 146.953125 -58.695312 147.167969 -60.398438 147.167969 -61.886719 C 147.167969 -69.117188 141.636719 -73.371094 135.257812 -73.371094 C 129.515625 -73.371094 123.347656 -69.753906 120.371094 -61.460938 C 112.503906 -39.769531 98.253906 -27.007812 81.453125 -18.503906 Z M 72.308594 -84.21875 L 56.144531 -39.34375 C 51.890625 -31.261719 44.660156 -25.308594 37.429688 -25.308594 C 32.324219 -25.308594 28.496094 -27.859375 28.496094 -32.539062 C 28.496094 -33.601562 28.921875 -35.304688 29.347656 -36.792969 L 48.488281 -90.808594 C 50.617188 -96.765625 55.507812 -99.742188 60.1875 -99.742188 C 66.777344 -99.742188 72.519531 -94.851562 72.519531 -87.195312 C 72.519531 -86.34375 72.519531 -85.28125 72.308594 -84.21875 Z M 31.050781 23.605469 L 25.945312 38.066406 C 22.96875 45.9375 16.375 49.976562 9.996094 49.976562 C 5.105469 49.976562 2.765625 47 2.765625 43.171875 C 2.765625 41.894531 3.191406 40.195312 3.828125 38.707031 C 6.804688 31.261719 17.226562 27.222656 31.050781 23.605469 Z M 31.050781 23.605469 "/></g></g><g style="fill:rgb(92.939758%,96.859741%,96.469116%);fill-opacity:1;"><g transform="translate(360.193562, 417.849872)"><path style="stroke:none;" d="M 133.34375 -71.882812 C 127.390625 -71.882812 120.796875 -68.265625 118.246094 -60.1875 C 109.949219 -34.027344 96.550781 -25.308594 86.980469 -25.308594 C 83.367188 -25.308594 81.238281 -27.222656 81.238281 -30.625 C 81.238281 -32.324219 81.664062 -34.453125 82.304688 -36.792969 L 106.121094 -105.695312 C 106.972656 -108.25 107.398438 -110.589844 107.398438 -112.714844 C 107.398438 -122.074219 99.742188 -126.964844 91.875 -126.964844 C 85.917969 -126.964844 79.75 -124.199219 76.347656 -118.882812 C 71.882812 -121.648438 63.589844 -124.835938 52.742188 -124.835938 C 38.707031 -124.835938 23.394531 -117.179688 17.652344 -100.804688 L -2.339844 -43.597656 C -3.617188 -39.769531 -4.464844 -35.941406 -4.464844 -32.113281 C -4.464844 -14.460938 9.78125 0 28.496094 0 C 38.492188 0 48.703125 -4.464844 56.570312 -11.484375 C 63.375 -1.703125 78.476562 0 84.855469 0 C 102.507812 0 126.113281 -8.933594 139.722656 -43.382812 C 142.703125 -51.679688 145.039062 -56.996094 145.039062 -60.824219 C 145.039062 -68.054688 139.511719 -71.882812 133.34375 -71.882812 Z M 63.164062 -74.007812 L 52.953125 -42.320312 C 48.488281 -28.496094 40.40625 -25.308594 35.941406 -25.308594 C 31.261719 -25.308594 28.921875 -28.285156 28.921875 -33.175781 C 28.921875 -35.941406 29.5625 -38.492188 30.199219 -40.40625 L 43.808594 -83.152344 C 47.851562 -96.125 53.804688 -97.828125 57.207031 -97.828125 C 61.25 -97.828125 65.714844 -93.789062 65.714844 -86.554688 C 65.714844 -83.367188 64.863281 -79.324219 63.164062 -74.007812 Z M 63.164062 -74.007812 "/></g></g><g style="fill:rgb(92.939758%,96.859741%,96.469116%);fill-opacity:1;"><g transform="translate(471.845012, 417.849872)"><path style="stroke:none;" d="M 81.453125 -18.503906 L 110.800781 -100.804688 C 112.289062 -105.273438 112.925781 -108.886719 112.925781 -111.652344 C 112.925781 -121.222656 106.335938 -123.136719 103.570312 -124.199219 C 102.292969 -124.625 100.804688 -124.835938 99.316406 -124.835938 C 92.9375 -124.835938 86.34375 -121.648438 83.792969 -114.203125 C 76.5625 -121.859375 68.480469 -124.835938 57.207031 -124.835938 C 41.46875 -124.835938 24.882812 -115.90625 17.863281 -96.125 L -0.210938 -44.660156 C -1.703125 -40.195312 -2.550781 -35.515625 -2.550781 -31.261719 C -2.550781 -14.460938 9.144531 -3.191406 23.605469 0 C 3.828125 3.828125 -21.480469 11.484375 -27.859375 32.539062 C -28.921875 36.152344 -29.347656 39.34375 -29.347656 42.535156 C -29.347656 63.164062 -10.207031 76.773438 10.632812 76.773438 C 31.6875 76.773438 51.464844 65.503906 60.1875 40.832031 L 69.96875 13.824219 C 100.378906 4.253906 131.644531 -12.335938 146.316406 -56.996094 C 146.953125 -58.695312 147.167969 -60.398438 147.167969 -61.886719 C 147.167969 -69.117188 141.636719 -73.371094 135.257812 -73.371094 C 129.515625 -73.371094 123.347656 -69.753906 120.371094 -61.460938 C 112.503906 -39.769531 98.253906 -27.007812 81.453125 -18.503906 Z M 72.308594 -84.21875 L 56.144531 -39.34375 C 51.890625 -31.261719 44.660156 -25.308594 37.429688 -25.308594 C 32.324219 -25.308594 28.496094 -27.859375 28.496094 -32.539062 C 28.496094 -33.601562 28.921875 -35.304688 29.347656 -36.792969 L 48.488281 -90.808594 C 50.617188 -96.765625 55.507812 -99.742188 60.1875 -99.742188 C 66.777344 -99.742188 72.519531 -94.851562 72.519531 -87.195312 C 72.519531 -86.34375 72.519531 -85.28125 72.308594 -84.21875 Z M 31.050781 23.605469 L 25.945312 38.066406 C 22.96875 45.9375 16.375 49.976562 9.996094 49.976562 C 5.105469 49.976562 2.765625 47 2.765625 43.171875 C 2.765625 41.894531 3.191406 40.195312 3.828125 38.707031 C 6.804688 31.261719 17.226562 27.222656 31.050781 23.605469 Z M 31.050781 23.605469 "/></g></g><g style="fill:rgb(92.939758%,96.859741%,96.469116%);fill-opacity:1;"><g transform="translate(585.410508, 417.849872)"><path style="stroke:none;" d="M 133.34375 -71.882812 C 127.390625 -71.882812 120.796875 -68.265625 118.246094 -60.1875 C 109.949219 -34.027344 96.550781 -25.308594 86.980469 -25.308594 C 83.367188 -25.308594 81.238281 -27.222656 81.238281 -30.625 C 81.238281 -32.324219 81.664062 -34.453125 82.304688 -36.792969 L 106.121094 -105.695312 C 106.972656 -108.25 107.398438 -110.589844 107.398438 -112.714844 C 107.398438 -122.074219 99.742188 -126.964844 91.875 -126.964844 C 85.917969 -126.964844 79.75 -124.199219 76.347656 -118.882812 C 71.882812 -121.648438 63.589844 -124.835938 52.742188 -124.835938 C 38.707031 -124.835938 23.394531 -117.179688 17.652344 -100.804688 L -2.339844 -43.597656 C -3.617188 -39.769531 -4.464844 -35.941406 -4.464844 -32.113281 C -4.464844 -14.460938 9.78125 0 28.496094 0 C 38.492188 0 48.703125 -4.464844 56.570312 -11.484375 C 63.375 -1.703125 78.476562 0 84.855469 0 C 102.507812 0 126.113281 -8.933594 139.722656 -43.382812 C 142.703125 -51.679688 145.039062 -56.996094 145.039062 -60.824219 C 145.039062 -68.054688 139.511719 -71.882812 133.34375 -71.882812 Z M 63.164062 -74.007812 L 52.953125 -42.320312 C 48.488281 -28.496094 40.40625 -25.308594 35.941406 -25.308594 C 31.261719 -25.308594 28.921875 -28.285156 28.921875 -33.175781 C 28.921875 -35.941406 29.5625 -38.492188 30.199219 -40.40625 L 43.808594 -83.152344 C 47.851562 -96.125 53.804688 -97.828125 57.207031 -97.828125 C 61.25 -97.828125 65.714844 -93.789062 65.714844 -86.554688 C 65.714844 -83.367188 64.863281 -79.324219 63.164062 -74.007812 Z M 63.164062 -74.007812 "/></g></g></g></svg>