<?xml version="1.0" encoding="UTF-8"?><svg xmlns="http://www.w3.org/2000/svg" xmlns:xlink="http://www.w3.org/1999/xlink" contentScriptType="text/ecmascript" width="75pt" zoomAndPan="magnify" contentStyleType="text/css" viewBox="0 0 75 74.999997" height="74.999997pt" preserveAspectRatio="xMidYMid meet" version="1.2"><defs><g/><clipPath xml:id="clip1" id="clip1"><path d="M 0.601562 0.601562 L 74.101562 0.601562 L 74.101562 74.101562 L 0.601562 74.101562 Z M 0.601562 0.601562 "/></clipPath></defs><g xml:id="surface1" id="surface1"><g clip-rule="nonzero" clip-path="url(#clip1)"><path style=" stroke:none;fill-rule:nonzero;fill:rgb(92.939758%,96.859741%,96.469116%);fill-opacity:1;" d="M 74.027344 37.351562 C 74.027344 38.550781 73.96875 39.75 73.851562 40.945312 C 73.730469 42.140625 73.554688 43.328125 73.320312 44.503906 C 73.085938 45.683594 72.796875 46.847656 72.449219 47.996094 C 72.097656 49.144531 71.695312 50.277344 71.234375 51.386719 C 70.773438 52.496094 70.261719 53.578125 69.695312 54.640625 C 69.128906 55.699219 68.511719 56.726562 67.84375 57.726562 C 67.179688 58.726562 66.464844 59.6875 65.703125 60.617188 C 64.9375 61.546875 64.132812 62.433594 63.285156 63.285156 C 62.433594 64.132812 61.546875 64.9375 60.617188 65.703125 C 59.6875 66.464844 58.726562 67.179688 57.726562 67.84375 C 56.726562 68.511719 55.699219 69.128906 54.640625 69.695312 C 53.578125 70.261719 52.496094 70.773438 51.386719 71.234375 C 50.277344 71.695312 49.144531 72.097656 47.996094 72.449219 C 46.847656 72.796875 45.683594 73.085938 44.503906 73.320312 C 43.328125 73.554688 42.140625 73.730469 40.945312 73.851562 C 39.75 73.96875 38.550781 74.027344 37.351562 74.027344 C 36.148438 74.027344 34.949219 73.96875 33.753906 73.851562 C 32.558594 73.730469 31.371094 73.554688 30.195312 73.320312 C 29.015625 73.085938 27.851562 72.796875 26.703125 72.449219 C 25.554688 72.097656 24.425781 71.695312 23.3125 71.234375 C 22.203125 70.773438 21.121094 70.261719 20.0625 69.695312 C 19 69.128906 17.972656 68.511719 16.972656 67.84375 C 15.976562 67.179688 15.011719 66.464844 14.082031 65.703125 C 13.152344 64.9375 12.265625 64.132812 11.414062 63.285156 C 10.566406 62.433594 9.761719 61.546875 9 60.617188 C 8.238281 59.6875 7.523438 58.726562 6.855469 57.726562 C 6.1875 56.726562 5.570312 55.699219 5.003906 54.640625 C 4.4375 53.578125 3.925781 52.496094 3.464844 51.386719 C 3.003906 50.277344 2.601562 49.144531 2.253906 47.996094 C 1.902344 46.847656 1.613281 45.683594 1.378906 44.503906 C 1.144531 43.328125 0.96875 42.140625 0.851562 40.945312 C 0.730469 39.75 0.671875 38.550781 0.671875 37.351562 C 0.671875 36.148438 0.730469 34.949219 0.851562 33.753906 C 0.96875 32.558594 1.144531 31.371094 1.378906 30.195312 C 1.613281 29.015625 1.902344 27.851562 2.253906 26.703125 C 2.601562 25.554688 3.003906 24.425781 3.464844 23.3125 C 3.925781 22.203125 4.4375 21.121094 5.003906 20.0625 C 5.570312 19 6.1875 17.972656 6.855469 16.972656 C 7.523438 15.976562 8.238281 15.011719 9 14.082031 C 9.761719 13.152344 10.566406 12.265625 11.414062 11.414062 C 12.265625 10.566406 13.152344 9.761719 14.082031 9 C 15.011719 8.238281 15.976562 7.523438 16.972656 6.855469 C 17.972656 6.1875 19 5.570312 20.0625 5.003906 C 21.121094 4.4375 22.203125 3.925781 23.3125 3.464844 C 24.425781 3.003906 25.554688 2.601562 26.703125 2.253906 C 27.851562 1.902344 29.015625 1.613281 30.195312 1.378906 C 31.371094 1.144531 32.558594 0.96875 33.753906 0.851562 C 34.949219 0.730469 36.148438 0.671875 37.351562 0.671875 C 38.550781 0.671875 39.75 0.730469 40.945312 0.851562 C 42.140625 0.96875 43.328125 1.144531 44.503906 1.378906 C 45.683594 1.613281 46.847656 1.902344 47.996094 2.253906 C 49.144531 2.601562 50.277344 3.003906 51.386719 3.464844 C 52.496094 3.925781 53.578125 4.4375 54.640625 5.003906 C 55.699219 5.570312 56.726562 6.1875 57.726562 6.855469 C 58.726562 7.523438 59.6875 8.238281 60.617188 9 C 61.546875 9.761719 62.433594 10.566406 63.285156 11.414062 C 64.132812 12.265625 64.9375 13.152344 65.703125 14.082031 C 66.464844 15.011719 67.179688 15.976562 67.84375 16.972656 C 68.511719 17.972656 69.128906 19 69.695312 20.0625 C 70.261719 21.121094 70.773438 22.203125 71.234375 23.3125 C 71.695312 24.425781 72.097656 25.554688 72.449219 26.703125 C 72.796875 27.851562 73.085938 29.015625 73.320312 30.195312 C 73.554688 31.371094 73.730469 32.558594 73.851562 33.753906 C 73.96875 34.949219 74.027344 36.148438 74.027344 37.351562 Z M 74.027344 37.351562 "/><path style=" stroke:none;fill-rule:nonzero;fill:rgb(2.749634%,3.529358%,5.879211%);fill-opacity:1;" d="M 37.351562 74.101562 C 27.535156 74.101562 18.308594 70.269531 11.367188 63.332031 C 4.429688 56.390625 0.601562 47.164062 0.601562 37.351562 C 0.601562 27.535156 4.429688 18.308594 11.367188 11.367188 C 18.308594 4.429688 27.535156 0.601562 37.351562 0.601562 C 47.164062 0.601562 56.390625 4.429688 63.332031 11.367188 C 70.269531 18.308594 74.101562 27.535156 74.101562 37.351562 C 74.101562 47.164062 70.269531 56.390625 63.332031 63.332031 C 56.390625 70.269531 47.164062 74.101562 37.351562 74.101562 Z M 37.351562 2.800781 C 28.121094 2.800781 19.453125 6.394531 12.921875 12.921875 C 6.394531 19.453125 2.800781 28.121094 2.800781 37.351562 C 2.800781 46.578125 6.394531 55.25 12.921875 61.777344 C 19.453125 68.304688 28.121094 71.898438 37.351562 71.898438 C 46.578125 71.898438 55.25 68.304688 61.777344 61.777344 C 68.304688 55.25 71.898438 46.578125 71.898438 37.351562 C 71.898438 28.121094 68.304688 19.453125 61.777344 12.921875 C 55.25 6.394531 46.578125 2.800781 37.351562 2.800781 Z M 37.351562 2.800781 "/></g><g style="fill:rgb(2.749634%,3.529358%,5.879211%);fill-opacity:0.302;"><g transform="translate(9.827621, 51.571321)"><path style="stroke:none;" d="M 6.65625 0.140625 C 5.945312 0.140625 5.4375 -0.015625 5.125 -0.328125 C 4.820312 -0.640625 4.671875 -1.238281 4.671875 -2.125 C 4.671875 -2.71875 4.734375 -3.476562 4.859375 -4.40625 C 4.984375 -5.332031 5.1875 -6.609375 5.46875 -8.234375 C 5.96875 -11.234375 6.363281 -13.832031 6.65625 -16.03125 C 6.820312 -17.40625 6.90625 -18.550781 6.90625 -19.46875 C 6.90625 -20.332031 6.59375 -20.765625 5.96875 -20.765625 C 5.46875 -20.765625 4.867188 -20.507812 4.171875 -20 C 3.472656 -19.488281 2.703125 -18.679688 1.859375 -17.578125 C 1.597656 -17.210938 1.300781 -17.03125 0.96875 -17.03125 C 0.707031 -17.03125 0.472656 -17.160156 0.265625 -17.421875 C 0.0664062 -17.679688 -0.03125 -17.972656 -0.03125 -18.296875 C -0.03125 -18.597656 0.03125 -18.90625 0.15625 -19.21875 C 0.28125 -19.539062 0.488281 -19.898438 0.78125 -20.296875 C 1.695312 -21.578125 2.71875 -22.566406 3.84375 -23.265625 C 4.96875 -23.960938 6.09375 -24.3125 7.21875 -24.3125 C 8.269531 -24.3125 9.078125 -23.976562 9.640625 -23.3125 C 10.210938 -22.644531 10.5 -21.671875 10.5 -20.390625 C 10.5 -19.867188 10.445312 -19.257812 10.34375 -18.5625 C 10.25 -17.863281 10.164062 -17.296875 10.09375 -16.859375 C 10.019531 -16.421875 9.960938 -16.113281 9.921875 -15.9375 C 11.015625 -19.050781 12.238281 -21.222656 13.59375 -22.453125 C 14.945312 -23.691406 16.4375 -24.3125 18.0625 -24.3125 C 19.300781 -24.3125 20.28125 -23.867188 21 -22.984375 C 21.71875 -22.109375 22.078125 -20.867188 22.078125 -19.265625 C 22.078125 -18.640625 21.988281 -17.859375 21.8125 -16.921875 C 22.769531 -19.554688 23.890625 -21.445312 25.171875 -22.59375 C 26.453125 -23.738281 27.925781 -24.3125 29.59375 -24.3125 C 30.925781 -24.3125 31.953125 -23.878906 32.671875 -23.015625 C 33.390625 -22.160156 33.75 -20.957031 33.75 -19.40625 C 33.75 -18.570312 33.625 -17.550781 33.375 -16.34375 L 31.625 -8.140625 C 31.4375 -7.179688 31.34375 -6.359375 31.34375 -5.671875 C 31.34375 -4.867188 31.523438 -4.265625 31.890625 -3.859375 C 32.265625 -3.460938 32.785156 -3.265625 33.453125 -3.265625 C 34.085938 -3.265625 34.707031 -3.472656 35.3125 -3.890625 C 35.914062 -4.316406 36.628906 -5.019531 37.453125 -6 C 37.679688 -6.257812 37.9375 -6.390625 38.21875 -6.390625 C 38.46875 -6.390625 38.660156 -6.273438 38.796875 -6.046875 C 38.941406 -5.816406 39.015625 -5.503906 39.015625 -5.109375 C 39.015625 -4.359375 38.835938 -3.765625 38.484375 -3.328125 C 37.484375 -2.117188 36.492188 -1.238281 35.515625 -0.6875 C 34.546875 -0.132812 33.523438 0.140625 32.453125 0.140625 C 30.828125 0.140625 29.554688 -0.335938 28.640625 -1.296875 C 27.722656 -2.265625 27.265625 -3.5625 27.265625 -5.1875 C 27.265625 -6.3125 27.492188 -7.945312 27.953125 -10.09375 L 29.109375 -15.34375 C 29.140625 -15.507812 29.203125 -15.8125 29.296875 -16.25 C 29.398438 -16.695312 29.476562 -17.113281 29.53125 -17.5 C 29.59375 -17.894531 29.625 -18.285156 29.625 -18.671875 C 29.625 -19.335938 29.492188 -19.835938 29.234375 -20.171875 C 28.972656 -20.503906 28.601562 -20.671875 28.125 -20.671875 C 27.226562 -20.671875 26.285156 -20.09375 25.296875 -18.9375 C 24.316406 -17.78125 23.378906 -15.863281 22.484375 -13.1875 C 21.597656 -10.507812 20.878906 -7.03125 20.328125 -2.75 C 20.191406 -1.601562 19.957031 -0.832031 19.625 -0.4375 C 19.289062 -0.0507812 18.75 0.140625 18 0.140625 C 17.351562 0.140625 16.878906 -0.0078125 16.578125 -0.3125 C 16.285156 -0.625 16.140625 -1.195312 16.140625 -2.03125 C 16.140625 -2.820312 16.242188 -3.851562 16.453125 -5.125 C 16.660156 -6.394531 16.929688 -7.890625 17.265625 -9.609375 C 18.140625 -14.234375 18.578125 -17.210938 18.578125 -18.546875 C 18.578125 -19.273438 18.4375 -19.8125 18.15625 -20.15625 C 17.882812 -20.5 17.472656 -20.671875 16.921875 -20.671875 C 15.984375 -20.671875 15.015625 -20.140625 14.015625 -19.078125 C 13.023438 -18.015625 12.054688 -16.128906 11.109375 -13.421875 C 10.160156 -10.722656 9.375 -7.070312 8.75 -2.46875 C 8.613281 -1.488281 8.414062 -0.804688 8.15625 -0.421875 C 7.894531 -0.046875 7.394531 0.140625 6.65625 0.140625 Z M 6.65625 0.140625 "/></g></g><g style="fill:rgb(2.749634%,3.529358%,5.879211%);fill-opacity:0.302;"><g transform="translate(45.126386, 51.571321)"><path style="stroke:none;" d="M 23.59375 -17.09375 C 23.59375 -15.46875 23.171875 -13.972656 22.328125 -12.609375 C 21.492188 -11.253906 20.269531 -10.144531 18.65625 -9.28125 C 17.050781 -8.425781 15.144531 -7.921875 12.9375 -7.765625 L 11.703125 -0.859375 C 11.222656 1.796875 9.921875 3.125 7.796875 3.125 C 6.628906 3.125 5.550781 2.78125 4.5625 2.09375 C 3.582031 1.40625 2.796875 0.351562 2.203125 -1.0625 C 1.609375 -2.476562 1.3125 -4.21875 1.3125 -6.28125 C 1.3125 -10.15625 1.9375 -13.445312 3.1875 -16.15625 C 4.445312 -18.863281 6.128906 -20.890625 8.234375 -22.234375 C 10.347656 -23.578125 12.675781 -24.25 15.21875 -24.25 C 17.019531 -24.25 18.546875 -23.929688 19.796875 -23.296875 C 21.046875 -22.671875 21.988281 -21.816406 22.625 -20.734375 C 23.269531 -19.660156 23.59375 -18.445312 23.59375 -17.09375 Z M 13.453125 -10.71875 C 17.367188 -11.21875 19.328125 -13.253906 19.328125 -16.828125 C 19.328125 -18.085938 18.910156 -19.113281 18.078125 -19.90625 C 17.242188 -20.707031 15.957031 -21.109375 14.21875 -21.109375 C 12.25 -21.109375 10.53125 -20.484375 9.0625 -19.234375 C 7.601562 -17.992188 6.476562 -16.269531 5.6875 -14.0625 C 4.894531 -11.851562 4.5 -9.335938 4.5 -6.515625 C 4.5 -5.328125 4.617188 -4.273438 4.859375 -3.359375 C 5.097656 -2.441406 5.40625 -1.726562 5.78125 -1.21875 C 6.15625 -0.707031 6.515625 -0.453125 6.859375 -0.453125 C 7.328125 -0.453125 7.6875 -1.113281 7.9375 -2.4375 L 8.890625 -7.859375 C 8.140625 -7.972656 7.8125 -8.019531 7.90625 -8 C 7.332031 -8.09375 6.957031 -8.269531 6.78125 -8.53125 C 6.613281 -8.789062 6.53125 -9.117188 6.53125 -9.515625 C 6.53125 -9.941406 6.648438 -10.273438 6.890625 -10.515625 C 7.128906 -10.765625 7.460938 -10.890625 7.890625 -10.890625 C 8.078125 -10.890625 8.21875 -10.878906 8.3125 -10.859375 C 8.769531 -10.785156 9.125 -10.738281 9.375 -10.71875 C 9.625 -12.207031 9.976562 -14.207031 10.4375 -16.71875 C 10.550781 -17.363281 10.8125 -17.820312 11.21875 -18.09375 C 11.632812 -18.375 12.117188 -18.515625 12.671875 -18.515625 C 13.304688 -18.515625 13.757812 -18.394531 14.03125 -18.15625 C 14.3125 -17.925781 14.453125 -17.550781 14.453125 -17.03125 C 14.453125 -16.726562 14.429688 -16.476562 14.390625 -16.28125 Z M 13.453125 -10.71875 "/></g></g><g style="fill:rgb(2.749634%,3.529358%,5.879211%);fill-opacity:0.502;"><g transform="translate(9.067467, 50.811168)"><path style="stroke:none;" d="M 6.65625 0.140625 C 5.945312 0.140625 5.4375 -0.015625 5.125 -0.328125 C 4.820312 -0.640625 4.671875 -1.238281 4.671875 -2.125 C 4.671875 -2.71875 4.734375 -3.476562 4.859375 -4.40625 C 4.984375 -5.332031 5.1875 -6.609375 5.46875 -8.234375 C 5.96875 -11.234375 6.363281 -13.832031 6.65625 -16.03125 C 6.820312 -17.40625 6.90625 -18.550781 6.90625 -19.46875 C 6.90625 -20.332031 6.59375 -20.765625 5.96875 -20.765625 C 5.46875 -20.765625 4.867188 -20.507812 4.171875 -20 C 3.472656 -19.488281 2.703125 -18.679688 1.859375 -17.578125 C 1.597656 -17.210938 1.300781 -17.03125 0.96875 -17.03125 C 0.707031 -17.03125 0.472656 -17.160156 0.265625 -17.421875 C 0.0664062 -17.679688 -0.03125 -17.972656 -0.03125 -18.296875 C -0.03125 -18.597656 0.03125 -18.90625 0.15625 -19.21875 C 0.28125 -19.539062 0.488281 -19.898438 0.78125 -20.296875 C 1.695312 -21.578125 2.71875 -22.566406 3.84375 -23.265625 C 4.96875 -23.960938 6.09375 -24.3125 7.21875 -24.3125 C 8.269531 -24.3125 9.078125 -23.976562 9.640625 -23.3125 C 10.210938 -22.644531 10.5 -21.671875 10.5 -20.390625 C 10.5 -19.867188 10.445312 -19.257812 10.34375 -18.5625 C 10.25 -17.863281 10.164062 -17.296875 10.09375 -16.859375 C 10.019531 -16.421875 9.960938 -16.113281 9.921875 -15.9375 C 11.015625 -19.050781 12.238281 -21.222656 13.59375 -22.453125 C 14.945312 -23.691406 16.4375 -24.3125 18.0625 -24.3125 C 19.300781 -24.3125 20.28125 -23.867188 21 -22.984375 C 21.71875 -22.109375 22.078125 -20.867188 22.078125 -19.265625 C 22.078125 -18.640625 21.988281 -17.859375 21.8125 -16.921875 C 22.769531 -19.554688 23.890625 -21.445312 25.171875 -22.59375 C 26.453125 -23.738281 27.925781 -24.3125 29.59375 -24.3125 C 30.925781 -24.3125 31.953125 -23.878906 32.671875 -23.015625 C 33.390625 -22.160156 33.75 -20.957031 33.75 -19.40625 C 33.75 -18.570312 33.625 -17.550781 33.375 -16.34375 L 31.625 -8.140625 C 31.4375 -7.179688 31.34375 -6.359375 31.34375 -5.671875 C 31.34375 -4.867188 31.523438 -4.265625 31.890625 -3.859375 C 32.265625 -3.460938 32.785156 -3.265625 33.453125 -3.265625 C 34.085938 -3.265625 34.707031 -3.472656 35.3125 -3.890625 C 35.914062 -4.316406 36.628906 -5.019531 37.453125 -6 C 37.679688 -6.257812 37.9375 -6.390625 38.21875 -6.390625 C 38.46875 -6.390625 38.660156 -6.273438 38.796875 -6.046875 C 38.941406 -5.816406 39.015625 -5.503906 39.015625 -5.109375 C 39.015625 -4.359375 38.835938 -3.765625 38.484375 -3.328125 C 37.484375 -2.117188 36.492188 -1.238281 35.515625 -0.6875 C 34.546875 -0.132812 33.523438 0.140625 32.453125 0.140625 C 30.828125 0.140625 29.554688 -0.335938 28.640625 -1.296875 C 27.722656 -2.265625 27.265625 -3.5625 27.265625 -5.1875 C 27.265625 -6.3125 27.492188 -7.945312 27.953125 -10.09375 L 29.109375 -15.34375 C 29.140625 -15.507812 29.203125 -15.8125 29.296875 -16.25 C 29.398438 -16.695312 29.476562 -17.113281 29.53125 -17.5 C 29.59375 -17.894531 29.625 -18.285156 29.625 -18.671875 C 29.625 -19.335938 29.492188 -19.835938 29.234375 -20.171875 C 28.972656 -20.503906 28.601562 -20.671875 28.125 -20.671875 C 27.226562 -20.671875 26.285156 -20.09375 25.296875 -18.9375 C 24.316406 -17.78125 23.378906 -15.863281 22.484375 -13.1875 C 21.597656 -10.507812 20.878906 -7.03125 20.328125 -2.75 C 20.191406 -1.601562 19.957031 -0.832031 19.625 -0.4375 C 19.289062 -0.0507812 18.75 0.140625 18 0.140625 C 17.351562 0.140625 16.878906 -0.0078125 16.578125 -0.3125 C 16.285156 -0.625 16.140625 -1.195312 16.140625 -2.03125 C 16.140625 -2.820312 16.242188 -3.851562 16.453125 -5.125 C 16.660156 -6.394531 16.929688 -7.890625 17.265625 -9.609375 C 18.140625 -14.234375 18.578125 -17.210938 18.578125 -18.546875 C 18.578125 -19.273438 18.4375 -19.8125 18.15625 -20.15625 C 17.882812 -20.5 17.472656 -20.671875 16.921875 -20.671875 C 15.984375 -20.671875 15.015625 -20.140625 14.015625 -19.078125 C 13.023438 -18.015625 12.054688 -16.128906 11.109375 -13.421875 C 10.160156 -10.722656 9.375 -7.070312 8.75 -2.46875 C 8.613281 -1.488281 8.414062 -0.804688 8.15625 -0.421875 C 7.894531 -0.046875 7.394531 0.140625 6.65625 0.140625 Z M 6.65625 0.140625 "/></g></g><g style="fill:rgb(2.749634%,3.529358%,5.879211%);fill-opacity:0.502;"><g transform="translate(44.366233, 50.811168)"><path style="stroke:none;" d="M 23.59375 -17.09375 C 23.59375 -15.46875 23.171875 -13.972656 22.328125 -12.609375 C 21.492188 -11.253906 20.269531 -10.144531 18.65625 -9.28125 C 17.050781 -8.425781 15.144531 -7.921875 12.9375 -7.765625 L 11.703125 -0.859375 C 11.222656 1.796875 9.921875 3.125 7.796875 3.125 C 6.628906 3.125 5.550781 2.78125 4.5625 2.09375 C 3.582031 1.40625 2.796875 0.351562 2.203125 -1.0625 C 1.609375 -2.476562 1.3125 -4.21875 1.3125 -6.28125 C 1.3125 -10.15625 1.9375 -13.445312 3.1875 -16.15625 C 4.445312 -18.863281 6.128906 -20.890625 8.234375 -22.234375 C 10.347656 -23.578125 12.675781 -24.25 15.21875 -24.25 C 17.019531 -24.25 18.546875 -23.929688 19.796875 -23.296875 C 21.046875 -22.671875 21.988281 -21.816406 22.625 -20.734375 C 23.269531 -19.660156 23.59375 -18.445312 23.59375 -17.09375 Z M 13.453125 -10.71875 C 17.367188 -11.21875 19.328125 -13.253906 19.328125 -16.828125 C 19.328125 -18.085938 18.910156 -19.113281 18.078125 -19.90625 C 17.242188 -20.707031 15.957031 -21.109375 14.21875 -21.109375 C 12.25 -21.109375 10.53125 -20.484375 9.0625 -19.234375 C 7.601562 -17.992188 6.476562 -16.269531 5.6875 -14.0625 C 4.894531 -11.851562 4.5 -9.335938 4.5 -6.515625 C 4.5 -5.328125 4.617188 -4.273438 4.859375 -3.359375 C 5.097656 -2.441406 5.40625 -1.726562 5.78125 -1.21875 C 6.15625 -0.707031 6.515625 -0.453125 6.859375 -0.453125 C 7.328125 -0.453125 7.6875 -1.113281 7.9375 -2.4375 L 8.890625 -7.859375 C 8.140625 -7.972656 7.8125 -8.019531 7.90625 -8 C 7.332031 -8.09375 6.957031 -8.269531 6.78125 -8.53125 C 6.613281 -8.789062 6.53125 -9.117188 6.53125 -9.515625 C 6.53125 -9.941406 6.648438 -10.273438 6.890625 -10.515625 C 7.128906 -10.765625 7.460938 -10.890625 7.890625 -10.890625 C 8.078125 -10.890625 8.21875 -10.878906 8.3125 -10.859375 C 8.769531 -10.785156 9.125 -10.738281 9.375 -10.71875 C 9.625 -12.207031 9.976562 -14.207031 10.4375 -16.71875 C 10.550781 -17.363281 10.8125 -17.820312 11.21875 -18.09375 C 11.632812 -18.375 12.117188 -18.515625 12.671875 -18.515625 C 13.304688 -18.515625 13.757812 -18.394531 14.03125 -18.15625 C 14.3125 -17.925781 14.453125 -17.550781 14.453125 -17.03125 C 14.453125 -16.726562 14.429688 -16.476562 14.390625 -16.28125 Z M 13.453125 -10.71875 "/></g></g><g style="fill:rgb(94.509888%,59.999084%,32.548523%);fill-opacity:1;"><g transform="translate(8.307315, 50.051014)"><path style="stroke:none;" d="M 6.65625 0.140625 C 5.945312 0.140625 5.4375 -0.015625 5.125 -0.328125 C 4.820312 -0.640625 4.671875 -1.238281 4.671875 -2.125 C 4.671875 -2.71875 4.734375 -3.476562 4.859375 -4.40625 C 4.984375 -5.332031 5.1875 -6.609375 5.46875 -8.234375 C 5.96875 -11.234375 6.363281 -13.832031 6.65625 -16.03125 C 6.820312 -17.40625 6.90625 -18.550781 6.90625 -19.46875 C 6.90625 -20.332031 6.59375 -20.765625 5.96875 -20.765625 C 5.46875 -20.765625 4.867188 -20.507812 4.171875 -20 C 3.472656 -19.488281 2.703125 -18.679688 1.859375 -17.578125 C 1.597656 -17.210938 1.300781 -17.03125 0.96875 -17.03125 C 0.707031 -17.03125 0.472656 -17.160156 0.265625 -17.421875 C 0.0664062 -17.679688 -0.03125 -17.972656 -0.03125 -18.296875 C -0.03125 -18.597656 0.03125 -18.90625 0.15625 -19.21875 C 0.28125 -19.539062 0.488281 -19.898438 0.78125 -20.296875 C 1.695312 -21.578125 2.71875 -22.566406 3.84375 -23.265625 C 4.96875 -23.960938 6.09375 -24.3125 7.21875 -24.3125 C 8.269531 -24.3125 9.078125 -23.976562 9.640625 -23.3125 C 10.210938 -22.644531 10.5 -21.671875 10.5 -20.390625 C 10.5 -19.867188 10.445312 -19.257812 10.34375 -18.5625 C 10.25 -17.863281 10.164062 -17.296875 10.09375 -16.859375 C 10.019531 -16.421875 9.960938 -16.113281 9.921875 -15.9375 C 11.015625 -19.050781 12.238281 -21.222656 13.59375 -22.453125 C 14.945312 -23.691406 16.4375 -24.3125 18.0625 -24.3125 C 19.300781 -24.3125 20.28125 -23.867188 21 -22.984375 C 21.71875 -22.109375 22.078125 -20.867188 22.078125 -19.265625 C 22.078125 -18.640625 21.988281 -17.859375 21.8125 -16.921875 C 22.769531 -19.554688 23.890625 -21.445312 25.171875 -22.59375 C 26.453125 -23.738281 27.925781 -24.3125 29.59375 -24.3125 C 30.925781 -24.3125 31.953125 -23.878906 32.671875 -23.015625 C 33.390625 -22.160156 33.75 -20.957031 33.75 -19.40625 C 33.75 -18.570312 33.625 -17.550781 33.375 -16.34375 L 31.625 -8.140625 C 31.4375 -7.179688 31.34375 -6.359375 31.34375 -5.671875 C 31.34375 -4.867188 31.523438 -4.265625 31.890625 -3.859375 C 32.265625 -3.460938 32.785156 -3.265625 33.453125 -3.265625 C 34.085938 -3.265625 34.707031 -3.472656 35.3125 -3.890625 C 35.914062 -4.316406 36.628906 -5.019531 37.453125 -6 C 37.679688 -6.257812 37.9375 -6.390625 38.21875 -6.390625 C 38.46875 -6.390625 38.660156 -6.273438 38.796875 -6.046875 C 38.941406 -5.816406 39.015625 -5.503906 39.015625 -5.109375 C 39.015625 -4.359375 38.835938 -3.765625 38.484375 -3.328125 C 37.484375 -2.117188 36.492188 -1.238281 35.515625 -0.6875 C 34.546875 -0.132812 33.523438 0.140625 32.453125 0.140625 C 30.828125 0.140625 29.554688 -0.335938 28.640625 -1.296875 C 27.722656 -2.265625 27.265625 -3.5625 27.265625 -5.1875 C 27.265625 -6.3125 27.492188 -7.945312 27.953125 -10.09375 L 29.109375 -15.34375 C 29.140625 -15.507812 29.203125 -15.8125 29.296875 -16.25 C 29.398438 -16.695312 29.476562 -17.113281 29.53125 -17.5 C 29.59375 -17.894531 29.625 -18.285156 29.625 -18.671875 C 29.625 -19.335938 29.492188 -19.835938 29.234375 -20.171875 C 28.972656 -20.503906 28.601562 -20.671875 28.125 -20.671875 C 27.226562 -20.671875 26.285156 -20.09375 25.296875 -18.9375 C 24.316406 -17.78125 23.378906 -15.863281 22.484375 -13.1875 C 21.597656 -10.507812 20.878906 -7.03125 20.328125 -2.75 C 20.191406 -1.601562 19.957031 -0.832031 19.625 -0.4375 C 19.289062 -0.0507812 18.75 0.140625 18 0.140625 C 17.351562 0.140625 16.878906 -0.0078125 16.578125 -0.3125 C 16.285156 -0.625 16.140625 -1.195312 16.140625 -2.03125 C 16.140625 -2.820312 16.242188 -3.851562 16.453125 -5.125 C 16.660156 -6.394531 16.929688 -7.890625 17.265625 -9.609375 C 18.140625 -14.234375 18.578125 -17.210938 18.578125 -18.546875 C 18.578125 -19.273438 18.4375 -19.8125 18.15625 -20.15625 C 17.882812 -20.5 17.472656 -20.671875 16.921875 -20.671875 C 15.984375 -20.671875 15.015625 -20.140625 14.015625 -19.078125 C 13.023438 -18.015625 12.054688 -16.128906 11.109375 -13.421875 C 10.160156 -10.722656 9.375 -7.070312 8.75 -2.46875 C 8.613281 -1.488281 8.414062 -0.804688 8.15625 -0.421875 C 7.894531 -0.046875 7.394531 0.140625 6.65625 0.140625 Z M 6.65625 0.140625 "/></g></g><g style="fill:rgb(94.509888%,59.999084%,32.548523%);fill-opacity:1;"><g transform="translate(43.60608, 50.051014)"><path style="stroke:none;" d="M 23.59375 -17.09375 C 23.59375 -15.46875 23.171875 -13.972656 22.328125 -12.609375 C 21.492188 -11.253906 20.269531 -10.144531 18.65625 -9.28125 C 17.050781 -8.425781 15.144531 -7.921875 12.9375 -7.765625 L 11.703125 -0.859375 C 11.222656 1.796875 9.921875 3.125 7.796875 3.125 C 6.628906 3.125 5.550781 2.78125 4.5625 2.09375 C 3.582031 1.40625 2.796875 0.351562 2.203125 -1.0625 C 1.609375 -2.476562 1.3125 -4.21875 1.3125 -6.28125 C 1.3125 -10.15625 1.9375 -13.445312 3.1875 -16.15625 C 4.445312 -18.863281 6.128906 -20.890625 8.234375 -22.234375 C 10.347656 -23.578125 12.675781 -24.25 15.21875 -24.25 C 17.019531 -24.25 18.546875 -23.929688 19.796875 -23.296875 C 21.046875 -22.671875 21.988281 -21.816406 22.625 -20.734375 C 23.269531 -19.660156 23.59375 -18.445312 23.59375 -17.09375 Z M 13.453125 -10.71875 C 17.367188 -11.21875 19.328125 -13.253906 19.328125 -16.828125 C 19.328125 -18.085938 18.910156 -19.113281 18.078125 -19.90625 C 17.242188 -20.707031 15.957031 -21.109375 14.21875 -21.109375 C 12.25 -21.109375 10.53125 -20.484375 9.0625 -19.234375 C 7.601562 -17.992188 6.476562 -16.269531 5.6875 -14.0625 C 4.894531 -11.851562 4.5 -9.335938 4.5 -6.515625 C 4.5 -5.328125 4.617188 -4.273438 4.859375 -3.359375 C 5.097656 -2.441406 5.40625 -1.726562 5.78125 -1.21875 C 6.15625 -0.707031 6.515625 -0.453125 6.859375 -0.453125 C 7.328125 -0.453125 7.6875 -1.113281 7.9375 -2.4375 L 8.890625 -7.859375 C 8.140625 -7.972656 7.8125 -8.019531 7.90625 -8 C 7.332031 -8.09375 6.957031 -8.269531 6.78125 -8.53125 C 6.613281 -8.789062 6.53125 -9.117188 6.53125 -9.515625 C 6.53125 -9.941406 6.648438 -10.273438 6.890625 -10.515625 C 7.128906 -10.765625 7.460938 -10.890625 7.890625 -10.890625 C 8.078125 -10.890625 8.21875 -10.878906 8.3125 -10.859375 C 8.769531 -10.785156 9.125 -10.738281 9.375 -10.71875 C 9.625 -12.207031 9.976562 -14.207031 10.4375 -16.71875 C 10.550781 -17.363281 10.8125 -17.820312 11.21875 -18.09375 C 11.632812 -18.375 12.117188 -18.515625 12.671875 -18.515625 C 13.304688 -18.515625 13.757812 -18.394531 14.03125 -18.15625 C 14.3125 -17.925781 14.453125 -17.550781 14.453125 -17.03125 C 14.453125 -16.726562 14.429688 -16.476562 14.390625 -16.28125 Z M 13.453125 -10.71875 "/></g></g></g></svg>